{"glyphs":{"0":{"ha":753,"x_min":63,"x_max":690,"o":"m 63 482 q 128 852 63 720 q 376 985 193 985 q 625 852 559 985 q 690 482 690 720 q 625 112 690 245 q 376 -20 559 -20 q 128 112 193 -20 q 63 482 63 245 m 189 482 q 222 185 189 292 q 376 77 254 77 q 531 185 498 77 q 564 482 564 292 q 531 780 564 672 q 376 887 498 887 q 222 780 254 887 q 189 482 189 672 z "},"1":{"ha":561,"x_min":100,"x_max":425,"o":"m 109 781 q 125 812 100 802 q 224 875 178 831 q 298 952 271 918 q 336 977 318 977 l 394 977 q 425 946 425 977 l 425 31 q 395 0 425 0 l 336 0 q 306 31 306 0 l 306 774 q 307 814 306 794 l 306 814 q 244 760 285 788 q 170 720 203 732 q 130 730 140 708 l 109 781 z "},"2":{"ha":753,"x_min":63,"x_max":688,"o":"m 101 0 q 64 31 64 0 l 64 63 q 86 112 64 90 l 352 380 q 507 563 470 498 q 544 713 544 628 q 502 833 544 784 q 376 883 460 883 q 250 844 300 883 q 177 715 199 806 q 137 685 168 676 l 84 701 q 74 758 63 707 q 169 916 94 847 q 370 985 245 985 q 603 905 530 985 q 677 709 677 825 q 616 513 677 595 q 450 329 555 431 l 227 113 l 227 110 q 281 111 245 111 l 650 111 q 688 81 688 111 l 688 31 q 650 0 688 0 l 101 0 z "},"3":{"ha":753,"x_min":47,"x_max":688,"o":"m 74 100 q 63 151 47 132 l 98 194 q 153 182 121 222 q 240 110 189 138 q 349 81 292 81 q 508 137 461 81 q 555 286 555 193 q 492 428 555 384 q 353 472 430 472 l 293 472 q 262 494 262 472 l 262 545 q 293 568 262 568 l 341 568 q 469 617 416 568 q 522 750 522 666 q 479 846 522 808 q 359 883 437 883 q 241 850 287 883 q 176 792 195 817 q 127 782 151 760 l 87 821 q 102 877 69 838 q 204 951 138 918 q 361 985 270 985 q 576 917 502 985 q 650 741 650 849 q 597 598 650 656 q 482 528 545 541 l 482 525 q 621 446 555 515 q 688 283 688 378 q 606 61 688 142 q 347 -20 524 -20 q 176 20 243 -20 q 74 100 109 60 z "},"4":{"ha":753,"x_min":43,"x_max":709,"o":"m 74 240 q 43 271 43 240 l 43 330 q 60 377 43 352 l 432 952 q 470 977 448 977 l 532 977 q 563 946 563 977 l 563 351 l 679 351 q 709 321 709 351 l 709 271 q 680 240 709 240 l 563 240 l 563 31 q 532 0 563 0 l 474 0 q 444 31 444 0 l 444 240 l 74 240 m 165 351 l 444 351 l 444 741 q 445 782 444 762 l 444 782 l 165 351 z "},"5":{"ha":753,"x_min":52,"x_max":680,"o":"m 77 111 q 71 162 52 144 l 113 199 q 167 182 136 220 q 231 121 185 160 q 351 81 277 81 q 497 141 448 81 q 547 299 547 201 q 505 446 547 392 q 378 499 463 499 q 292 489 326 499 q 220 446 257 479 q 165 424 194 424 l 134 424 q 103 454 103 424 l 103 934 q 134 964 103 964 l 602 964 q 632 934 632 964 l 632 884 q 602 853 632 853 l 222 853 l 222 585 q 221 545 222 565 l 224 545 q 313 589 262 576 q 407 601 363 601 q 606 517 533 601 q 680 296 680 433 q 592 64 680 148 q 353 -20 504 -20 q 175 25 242 -20 q 77 111 107 71 z "},"6":{"ha":753,"x_min":62,"x_max":692,"o":"m 62 455 q 166 869 62 753 q 418 985 270 985 q 554 963 503 985 q 642 907 605 941 q 654 863 670 881 l 623 826 q 573 830 604 804 q 513 867 548 852 q 412 883 477 883 q 253 791 321 883 q 185 504 185 700 l 186 504 q 274 579 217 548 q 419 610 332 610 q 610 535 528 610 q 692 312 692 461 q 613 72 692 164 q 382 -20 535 -20 q 142 107 222 -20 q 62 455 62 234 m 208 303 q 255 150 208 219 q 383 81 301 81 q 513 145 468 81 q 559 308 559 209 q 513 456 559 406 q 397 506 467 506 q 258 451 308 506 q 208 303 208 396 z "},"7":{"ha":746,"x_min":60,"x_max":686,"o":"m 90 853 q 60 884 60 853 l 60 934 q 90 964 60 964 l 656 964 q 686 934 686 964 l 686 887 q 662 838 686 865 q 444 497 526 684 q 362 90 362 311 l 362 26 q 332 -4 362 -4 l 270 -4 q 239 26 239 -4 l 239 66 q 332 497 239 311 q 564 853 425 684 l 564 854 q 523 853 543 853 l 90 853 z "},"8":{"ha":753,"x_min":62,"x_max":690,"o":"m 62 278 q 121 440 62 373 q 238 521 180 507 l 238 523 q 131 596 176 543 q 86 738 86 650 q 167 917 86 850 q 376 985 248 985 q 586 917 505 985 q 667 738 667 850 q 619 596 667 650 q 509 522 572 542 l 509 521 q 629 440 567 507 q 690 278 690 373 q 615 61 690 142 q 376 -20 539 -20 q 138 61 214 -20 q 62 278 62 142 m 195 275 q 241 131 195 180 q 376 81 288 81 q 511 131 465 81 q 557 275 557 180 q 509 407 557 350 q 376 464 461 464 q 243 407 292 464 q 195 275 195 350 m 214 738 q 253 622 214 670 q 376 574 292 574 q 500 622 461 574 q 539 738 539 670 q 502 838 539 792 q 376 883 465 883 q 251 838 288 883 q 214 738 214 792 z "},"9":{"ha":753,"x_min":61,"x_max":690,"o":"m 61 652 q 139 892 61 800 q 371 985 218 985 q 611 858 531 985 q 690 509 690 730 q 587 95 690 211 q 334 -20 483 -20 q 199 1 250 -20 q 111 57 148 23 q 98 101 83 83 l 130 138 q 180 134 149 160 q 240 97 205 113 q 340 81 275 81 q 500 173 432 81 q 568 460 568 264 l 566 460 q 478 386 536 416 q 334 355 421 355 q 143 429 225 355 q 61 652 61 503 m 194 656 q 240 508 194 558 q 355 458 286 458 q 495 513 445 458 q 545 661 545 568 q 498 814 545 745 q 370 883 452 883 q 239 819 285 883 q 194 656 194 755 z "},"\u0000":{"ha":841,"x_min":102,"x_max":739,"o":"m 132 0 q 102 31 102 0 l 102 942 q 127 972 102 972 l 709 972 q 739 942 739 972 l 739 31 q 709 0 739 0 l 132 0 m 183 81 l 658 81 l 658 891 l 183 891 l 183 81 z "}," ":{"ha":463,"x_min":0,"x_max":0,"o":""},"!":{"ha":407,"x_min":134,"x_max":273,"o":"m 134 935 q 168 972 134 972 l 239 972 q 273 935 273 972 l 258 295 q 228 264 258 264 l 179 264 q 149 295 149 264 l 134 935 m 165 0 q 135 31 135 0 l 135 113 q 165 144 135 144 l 241 144 q 272 113 272 144 l 272 31 q 241 0 272 0 l 165 0 z "},"\"":{"ha":562,"x_min":101,"x_max":460,"o":"m 102 959 q 127 996 101 996 l 197 996 q 222 959 223 996 l 208 589 q 184 559 206 559 l 140 559 q 117 589 118 559 l 102 959 m 340 959 q 364 996 338 996 l 435 996 q 459 959 460 996 l 445 589 q 421 559 444 559 l 378 559 q 354 589 355 559 l 340 959 z "},"#":{"ha":943,"x_min":52,"x_max":891,"o":"m 82 254 q 56 278 52 254 l 62 312 q 96 336 66 336 l 242 336 l 294 629 l 148 629 q 122 652 118 629 l 127 686 q 163 710 132 710 l 309 710 l 348 934 q 377 964 353 964 l 419 964 q 437 934 443 964 l 398 710 l 626 710 l 665 934 q 694 964 671 964 l 736 964 q 755 934 760 964 l 715 710 l 861 710 q 887 686 891 710 l 882 652 q 846 629 878 629 l 701 629 l 649 336 l 795 336 q 821 312 825 336 l 815 278 q 781 254 811 254 l 635 254 l 595 31 q 566 0 590 0 l 524 0 q 506 31 500 0 l 545 254 l 317 254 l 278 31 q 249 0 273 0 l 207 0 q 189 31 183 0 l 228 254 l 82 254 m 332 336 l 559 336 l 611 629 l 383 629 l 332 336 z "},"$":{"ha":753,"x_min":50,"x_max":682,"o":"m 86 65 q 67 122 50 98 l 94 159 q 153 155 115 187 q 249 99 203 112 q 343 82 294 85 l 343 441 q 246 483 294 456 q 146 566 182 519 q 102 653 111 613 q 92 757 92 693 q 123 857 92 800 q 211 945 155 913 q 343 984 267 977 l 343 1065 q 367 1096 343 1096 l 401 1096 q 425 1065 425 1096 l 425 983 q 526 962 469 983 q 612 913 583 941 q 628 861 643 883 l 599 818 q 538 827 576 785 q 478 866 515 852 q 425 879 441 879 l 425 548 q 544 492 478 531 q 623 428 590 465 q 669 346 655 391 q 682 254 682 301 q 661 140 682 190 q 581 41 639 90 q 425 -18 524 -7 l 425 -112 q 401 -142 425 -142 l 367 -142 q 343 -112 343 -142 l 343 -20 q 203 2 275 -20 q 86 65 131 24 m 218 749 q 236 661 218 695 q 301 600 254 626 q 343 578 321 588 l 343 881 q 259 846 300 878 q 218 749 218 814 m 425 86 q 513 134 476 98 q 549 253 549 170 q 529 335 549 298 q 476 390 508 371 q 425 416 441 410 l 425 86 z "},"%":{"ha":1208,"x_min":73,"x_max":1135,"o":"m 73 761 q 131 946 73 869 q 283 1022 188 1022 q 435 946 378 1022 q 492 761 492 869 q 435 576 492 652 q 283 500 378 500 q 131 576 188 500 q 73 761 73 652 m 182 761 q 205 622 182 666 q 283 578 229 578 q 360 622 337 578 q 384 761 384 666 q 360 900 384 856 q 283 944 337 944 q 205 900 229 944 q 182 761 182 856 m 256 -34 q 252 4 235 -22 l 888 1022 q 924 1036 904 1048 l 953 1017 q 957 979 973 1005 l 321 -39 q 284 -52 304 -64 l 256 -34 m 716 222 q 773 407 716 331 q 926 484 831 484 q 1078 407 1021 484 q 1135 222 1135 331 q 1078 38 1135 114 q 926 -39 1021 -39 q 773 38 831 -39 q 716 222 716 114 m 825 222 q 848 83 825 127 q 926 39 871 39 q 1003 83 980 39 q 1027 222 1027 127 q 1003 361 1027 317 q 926 406 980 406 q 848 361 871 406 q 825 222 825 317 z "},"&":{"ha":937,"x_min":81,"x_max":922,"o":"m 81 221 q 116 367 81 291 q 302 554 150 444 q 232 649 269 593 q 195 789 195 706 q 251 932 195 871 q 432 993 307 993 q 580 952 509 993 q 652 800 652 911 q 603 664 652 728 q 471 538 553 600 l 684 283 q 741 363 711 312 q 779 446 770 414 q 813 469 787 477 l 865 453 q 884 416 894 444 q 823 294 864 355 q 752 201 783 232 l 888 39 q 876 0 922 0 l 808 0 q 744 29 768 0 l 669 117 q 536 18 606 56 q 352 -20 467 -20 q 158 47 235 -20 q 81 221 81 114 m 214 222 q 252 119 214 160 q 366 78 290 78 q 490 114 423 78 q 601 199 556 150 l 372 473 q 241 343 268 394 q 214 222 214 293 m 317 795 q 347 694 317 740 q 401 618 377 648 q 503 720 476 682 q 530 804 530 759 q 504 870 530 842 q 423 899 477 899 q 345 869 373 899 q 317 795 317 840 z "},"'":{"ha":324,"x_min":101,"x_max":223,"o":"m 102 959 q 127 996 101 996 l 197 996 q 222 959 223 996 l 208 589 q 184 559 206 559 l 140 559 q 117 589 118 559 l 102 959 z "},"(":{"ha":454,"x_min":84,"x_max":424,"o":"m 84 369 q 155 735 84 578 q 333 1013 225 892 q 379 1026 359 1042 l 403 1008 q 401 968 424 991 q 279 748 340 903 q 217 369 217 594 q 279 -11 217 144 q 401 -230 340 -165 q 403 -270 424 -254 l 379 -288 q 333 -275 359 -304 q 155 3 225 -155 q 84 369 84 160 z "},")":{"ha":454,"x_min":31,"x_max":370,"o":"m 52 -270 q 53 -230 31 -254 q 176 -11 114 -165 q 237 369 237 144 q 176 748 237 594 q 53 968 114 903 q 52 1008 31 991 l 75 1026 q 121 1013 96 1042 q 300 735 229 892 q 370 369 370 578 q 300 3 370 160 q 121 -275 229 -155 q 75 -288 96 -304 l 52 -270 z "},"*":{"ha":637,"x_min":50,"x_max":587,"o":"m 251 717 l 106 780 q 78 852 50 804 l 82 859 q 158 870 110 906 l 285 776 l 267 933 q 315 993 260 993 l 323 993 q 371 933 378 993 l 353 776 l 479 870 q 555 859 528 906 l 559 852 q 532 780 587 804 l 387 717 l 532 654 q 559 583 587 631 l 555 576 q 479 564 528 528 l 353 659 l 371 501 q 323 441 378 441 l 315 441 q 267 501 260 441 l 285 659 l 158 564 q 82 576 110 528 l 78 583 q 106 654 50 631 l 251 717 z "},"+":{"ha":868,"x_min":54,"x_max":814,"o":"m 85 451 q 54 475 54 451 l 54 509 q 85 532 54 532 l 393 532 l 393 841 q 416 871 393 871 l 450 871 q 474 841 474 871 l 474 532 l 783 532 q 814 509 814 532 l 814 475 q 783 451 814 451 l 474 451 l 474 142 q 450 112 474 112 l 416 112 q 393 142 393 112 l 393 451 l 85 451 z "},",":{"ha":407,"x_min":132,"x_max":273,"o":"m 164 0 q 134 31 134 0 l 134 113 q 164 144 134 144 l 243 144 q 273 113 273 144 l 273 31 q 258 -94 273 -41 q 198 -187 243 -147 q 173 -191 183 -200 l 142 -162 q 147 -139 132 -153 q 185 -80 170 -119 q 199 0 199 -42 l 164 0 z "},"-":{"ha":461,"x_min":38,"x_max":423,"o":"m 68 328 q 38 351 38 328 l 38 399 q 68 422 38 422 l 393 422 q 423 399 423 422 l 423 351 q 393 328 423 328 l 68 328 z "},".":{"ha":407,"x_min":135,"x_max":272,"o":"m 165 0 q 135 31 135 0 l 135 113 q 165 144 135 144 l 241 144 q 272 113 272 144 l 272 31 q 241 0 272 0 l 165 0 z "},"/":{"ha":570,"x_min":-7,"x_max":576,"o":"m 16 -265 q 5 -227 -7 -256 l 490 974 q 524 993 501 1002 l 555 981 q 565 943 576 972 l 80 -258 q 47 -277 68 -286 l 16 -265 z "},":":{"ha":407,"x_min":135,"x_max":272,"o":"m 165 0 q 135 31 135 0 l 135 113 q 165 144 135 144 l 241 144 q 272 113 272 144 l 272 31 q 241 0 272 0 l 165 0 m 165 568 q 135 599 135 568 l 135 682 q 165 712 135 712 l 241 712 q 272 682 272 712 l 272 599 q 241 568 272 568 l 165 568 z "},";":{"ha":407,"x_min":132,"x_max":273,"o":"m 165 568 q 135 599 135 568 l 135 682 q 165 712 135 712 l 241 712 q 272 682 272 712 l 272 599 q 241 568 272 568 l 165 568 m 164 0 q 134 31 134 0 l 134 113 q 164 144 134 144 l 243 144 q 273 113 273 144 l 273 31 q 258 -94 273 -41 q 198 -187 243 -147 q 173 -191 183 -200 l 142 -162 q 147 -139 132 -153 q 185 -80 170 -119 q 199 0 199 -42 l 164 0 z "},"<":{"ha":868,"x_min":71,"x_max":802,"o":"m 88 465 q 71 488 71 474 l 71 509 q 88 532 71 523 l 734 905 q 772 900 760 921 l 789 871 q 774 835 802 850 l 192 499 l 192 498 l 774 162 q 789 126 802 146 l 772 97 q 734 92 760 76 l 88 465 z "},"=":{"ha":868,"x_min":54,"x_max":814,"o":"m 85 336 q 54 359 54 336 l 54 393 q 85 417 54 417 l 783 417 q 814 393 814 417 l 814 359 q 783 336 814 336 l 85 336 m 85 566 q 54 590 54 566 l 54 624 q 85 648 54 648 l 783 648 q 814 624 814 648 l 814 590 q 783 566 814 566 l 85 566 z "},">":{"ha":868,"x_min":66,"x_max":797,"o":"m 79 126 q 94 162 66 146 l 676 498 l 676 499 l 94 835 q 79 871 66 850 l 96 900 q 134 905 108 921 l 780 532 q 797 509 797 523 l 797 488 q 780 465 797 474 l 134 92 q 96 97 108 76 l 79 126 z "},"?":{"ha":689,"x_min":54,"x_max":617,"o":"m 75 789 q 73 848 54 799 q 154 943 92 893 q 334 993 216 993 q 549 923 480 993 q 617 738 617 854 q 504 516 617 641 q 391 297 391 391 l 391 281 q 361 251 391 251 l 302 251 q 272 281 272 251 l 272 307 q 378 542 272 421 q 484 742 484 663 q 446 858 484 825 q 339 891 407 891 q 227 864 264 891 q 170 790 189 837 q 125 766 154 753 l 75 789 m 293 0 q 262 31 262 0 l 262 113 q 293 144 262 144 l 369 144 q 399 113 399 144 l 399 31 q 369 0 399 0 l 293 0 z "},"@":{"ha":1351,"x_min":81,"x_max":1270,"o":"m 81 374 q 258 815 81 632 q 719 999 434 999 q 1098 878 926 999 q 1270 486 1270 757 q 1174 181 1270 286 q 922 75 1078 75 q 810 114 834 75 q 785 225 785 153 l 784 225 q 696 120 758 165 q 572 75 633 75 q 426 140 481 75 q 370 317 370 205 q 459 582 370 456 q 682 707 549 707 q 842 587 812 707 l 844 587 l 860 659 q 888 682 865 682 l 963 682 q 981 659 987 682 l 892 258 q 895 174 878 191 q 943 157 913 157 q 1115 232 1042 157 q 1187 486 1187 308 q 1055 805 1187 692 q 720 918 924 918 q 326 769 488 918 q 164 363 164 621 q 319 -3 164 138 q 692 -144 474 -144 q 897 -107 793 -144 q 1089 2 1000 -70 q 1118 2 1107 17 l 1145 -35 q 1138 -63 1156 -51 q 919 -183 1027 -141 q 686 -225 811 -225 q 262 -64 442 -225 q 81 374 81 98 m 486 303 q 516 188 486 220 q 600 157 547 157 q 728 253 669 157 q 798 395 787 350 q 808 493 808 438 q 781 583 808 540 q 699 627 753 627 q 547 529 608 627 q 486 303 486 431 z "},"A":{"ha":922,"x_min":14,"x_max":908,"o":"m 50 0 q 31 45 14 0 l 369 931 q 414 972 385 972 l 509 972 q 553 931 538 972 l 891 45 q 873 0 908 0 l 804 0 q 755 33 768 0 l 670 258 l 252 258 l 168 33 q 119 0 155 0 l 50 0 m 295 369 l 627 369 l 524 640 q 495 724 509 678 q 463 855 481 770 l 460 855 q 427 724 441 770 q 399 640 413 678 l 295 369 z "},"B":{"ha":921,"x_min":115,"x_max":846,"o":"m 149 0 q 115 37 115 0 l 115 935 q 149 972 115 972 l 414 972 q 724 898 644 972 q 804 718 804 823 q 738 577 804 635 q 609 509 671 519 l 609 507 q 762 438 677 500 q 846 270 846 376 q 761 77 846 155 q 448 0 676 0 l 149 0 m 245 111 l 426 111 q 640 147 572 111 q 707 274 707 183 q 638 404 707 358 q 426 450 570 450 l 245 450 l 245 111 m 245 548 l 416 548 q 601 596 529 548 q 672 718 672 645 q 618 825 672 788 q 416 861 565 861 l 245 861 l 245 548 z "},"C":{"ha":951,"x_min":62,"x_max":896,"o":"m 62 486 q 180 858 62 724 q 518 993 298 993 q 731 949 647 993 q 852 829 815 905 q 846 775 871 790 l 792 744 q 744 770 765 728 q 671 850 722 812 q 525 887 620 887 q 278 782 355 887 q 201 486 201 676 q 278 191 201 296 q 525 85 355 85 q 681 130 623 85 q 766 224 740 175 q 815 248 787 263 l 871 216 q 876 161 896 201 q 745 32 836 83 q 518 -20 655 -20 q 180 114 298 -20 q 62 486 62 249 z "},"D":{"ha":974,"x_min":115,"x_max":911,"o":"m 149 0 q 115 37 115 0 l 115 935 q 149 972 115 972 l 399 972 q 799 845 687 972 q 911 488 911 718 q 799 129 911 257 q 399 0 687 0 l 149 0 m 245 111 l 393 111 q 695 206 617 111 q 772 488 772 301 q 695 768 772 674 q 393 863 617 863 l 245 863 l 245 111 z "},"E":{"ha":861,"x_min":115,"x_max":800,"o":"m 149 0 q 115 37 115 0 l 115 935 q 149 972 115 972 l 743 972 q 780 942 780 972 l 780 892 q 743 861 780 861 l 245 861 l 245 560 l 702 560 q 739 530 739 560 l 739 479 q 702 449 739 449 l 245 449 l 245 111 l 763 111 q 800 81 800 111 l 800 31 q 763 0 800 0 l 149 0 z "},"F":{"ha":791,"x_min":115,"x_max":739,"o":"m 149 0 q 115 37 115 0 l 115 935 q 149 972 115 972 l 702 972 q 739 942 739 972 l 739 892 q 702 861 739 861 l 245 861 l 245 540 l 644 540 q 681 509 681 540 l 681 459 q 644 429 681 429 l 245 429 l 245 37 q 212 0 245 0 l 149 0 z "},"G":{"ha":997,"x_min":62,"x_max":916,"o":"m 62 486 q 185 858 62 724 q 526 993 308 993 q 740 948 657 993 q 861 842 823 903 q 861 787 885 804 l 810 751 q 760 772 785 734 q 683 845 739 803 q 533 887 627 887 q 284 782 367 887 q 201 486 201 676 q 282 191 201 296 q 540 85 363 85 q 693 107 628 85 q 785 166 759 128 l 785 346 l 584 346 q 547 376 547 346 l 547 427 q 584 457 547 457 l 878 457 q 916 427 916 457 l 916 106 q 750 13 833 46 q 533 -20 667 -20 q 186 114 309 -20 q 62 486 62 249 z "},"H":{"ha":964,"x_min":115,"x_max":849,"o":"m 149 0 q 115 37 115 0 l 115 935 q 149 972 115 972 l 212 972 q 245 935 245 972 l 245 562 l 719 562 l 719 935 q 753 972 719 972 l 815 972 q 849 935 849 972 l 849 37 q 815 0 849 0 l 753 0 q 719 37 719 0 l 719 450 l 245 450 l 245 37 q 212 0 245 0 l 149 0 z "},"I":{"ha":361,"x_min":115,"x_max":245,"o":"m 149 0 q 115 37 115 0 l 115 935 q 149 972 115 972 l 212 972 q 245 935 245 972 l 245 37 q 212 0 245 0 l 149 0 z "},"J":{"ha":559,"x_min":14,"x_max":444,"o":"m 45 20 q 26 64 14 37 l 49 112 q 98 121 64 144 q 208 85 153 85 q 294 130 274 85 q 313 256 313 174 l 313 935 q 347 972 313 972 l 410 972 q 444 935 444 972 l 444 272 q 401 59 444 138 q 205 -20 359 -20 q 45 20 120 -20 z "},"K":{"ha":901,"x_min":115,"x_max":890,"o":"m 149 0 q 115 37 115 0 l 115 935 q 149 972 115 972 l 212 972 q 245 935 245 972 l 245 536 q 244 482 245 509 l 247 482 l 700 946 q 747 972 726 972 l 829 972 q 842 928 886 972 l 497 576 l 860 45 q 848 0 890 0 l 765 0 q 718 26 735 0 l 408 484 l 245 319 l 245 37 q 212 0 245 0 l 149 0 z "},"L":{"ha":770,"x_min":115,"x_max":732,"o":"m 149 0 q 115 37 115 0 l 115 935 q 149 972 115 972 l 212 972 q 245 935 245 972 l 245 111 l 695 111 q 732 81 732 111 l 732 31 q 695 0 732 0 l 149 0 z "},"M":{"ha":1158,"x_min":115,"x_max":1043,"o":"m 149 0 q 115 37 115 0 l 115 935 q 149 972 115 972 l 294 972 q 332 932 319 972 l 526 323 q 562 211 556 230 q 577 140 567 191 l 581 140 q 597 211 591 191 q 632 323 602 230 l 826 932 q 865 972 839 972 l 1009 972 q 1043 935 1043 972 l 1043 37 q 1009 0 1043 0 l 947 0 q 913 37 913 0 l 913 749 q 914 803 913 776 l 911 803 l 661 41 q 616 0 648 0 l 542 0 q 497 41 511 0 l 247 803 l 244 803 q 245 749 245 776 l 245 37 q 212 0 245 0 l 149 0 z "},"N":{"ha":975,"x_min":115,"x_max":860,"o":"m 149 0 q 115 37 115 0 l 115 935 q 149 972 115 972 l 236 972 q 304 939 283 972 l 728 227 l 731 227 q 730 281 730 254 l 730 935 q 764 972 730 972 l 826 972 q 860 935 860 972 l 860 37 q 826 0 860 0 l 766 0 q 699 34 719 0 l 247 789 l 244 789 q 245 734 245 762 l 245 37 q 212 0 245 0 l 149 0 z "},"O":{"ha":1034,"x_min":62,"x_max":971,"o":"m 62 486 q 179 858 62 724 q 517 993 296 993 q 854 858 737 993 q 971 486 971 724 q 854 114 971 249 q 517 -20 737 -20 q 179 114 296 -20 q 62 486 62 249 m 201 486 q 279 191 201 296 q 517 85 357 85 q 754 191 676 85 q 832 486 832 296 q 754 782 832 676 q 517 887 676 887 q 279 782 357 887 q 201 486 201 676 z "},"P":{"ha":887,"x_min":115,"x_max":826,"o":"m 149 0 q 115 37 115 0 l 115 935 q 149 972 115 972 l 434 972 q 745 895 665 972 q 826 682 826 817 q 745 468 826 546 q 434 391 665 391 l 245 391 l 245 37 q 212 0 245 0 l 149 0 m 245 502 l 436 502 q 640 544 585 502 q 694 682 694 587 q 640 819 694 777 q 436 861 585 861 l 245 861 l 245 502 z "},"Q":{"ha":1034,"x_min":62,"x_max":971,"o":"m 62 488 q 179 859 62 725 q 517 993 296 993 q 854 858 737 993 q 971 486 971 724 q 854 114 971 249 q 588 -16 757 2 q 637 -121 595 -82 q 757 -161 679 -161 q 825 -154 799 -161 q 855 -161 852 -147 l 869 -221 q 852 -242 872 -237 q 735 -256 791 -256 q 527 -183 589 -256 q 458 -18 464 -110 q 179 115 280 -1 q 62 488 62 250 m 201 486 q 279 191 201 296 q 517 85 357 85 q 754 191 676 85 q 832 486 832 296 q 754 782 832 676 q 517 887 676 887 q 279 782 357 887 q 201 486 201 676 z "},"R":{"ha":945,"x_min":115,"x_max":899,"o":"m 149 0 q 115 37 115 0 l 115 935 q 149 972 115 972 l 477 972 q 761 899 673 972 q 848 706 848 826 q 778 528 848 600 q 576 446 707 456 l 576 444 q 667 366 645 393 q 718 294 690 339 l 871 45 q 859 0 899 0 l 781 0 q 734 26 749 0 l 593 269 q 505 371 562 321 q 363 421 448 421 l 245 421 l 245 37 q 212 0 245 0 l 149 0 m 245 532 l 441 532 q 645 567 574 532 q 716 714 716 602 q 651 830 716 800 q 474 861 586 861 l 245 861 l 245 532 z "},"S":{"ha":830,"x_min":60,"x_max":757,"o":"m 96 73 q 77 130 60 106 l 112 181 q 171 177 130 208 q 282 111 224 137 q 423 85 340 85 q 526 104 484 85 q 594 156 568 122 q 619 239 619 191 q 609 305 619 275 q 575 355 598 335 q 527 387 552 376 q 403 431 486 406 q 259 486 321 456 q 162 556 198 515 q 114 641 125 597 q 102 741 102 685 q 152 890 102 827 q 275 972 202 952 q 423 993 348 993 q 573 970 509 993 q 687 912 637 948 q 703 859 722 887 l 669 810 q 608 819 653 787 q 523 865 573 844 q 425 886 473 886 q 321 872 362 886 q 256 823 279 857 q 232 743 232 788 q 237 690 232 714 q 265 641 243 666 q 319 602 288 616 q 452 559 362 584 q 609 498 542 534 q 699 429 671 465 q 742 350 726 393 q 757 255 757 308 q 707 94 757 159 q 590 5 658 30 q 420 -20 522 -20 q 216 8 297 -20 q 96 73 136 37 z "},"T":{"ha":841,"x_min":24,"x_max":817,"o":"m 62 856 q 24 886 24 856 l 24 942 q 62 972 24 972 l 779 972 q 817 942 817 972 l 817 886 q 779 856 817 856 l 486 856 l 486 37 q 452 0 486 0 l 389 0 q 355 37 355 0 l 355 856 l 62 856 z "},"U":{"ha":951,"x_min":115,"x_max":836,"o":"m 115 371 l 115 935 q 149 972 115 972 l 212 972 q 245 935 245 972 l 245 391 q 299 143 245 201 q 475 85 353 85 q 651 143 597 85 q 705 391 705 201 l 705 935 q 739 972 705 972 l 802 972 q 836 935 836 972 l 836 371 q 737 68 836 156 q 475 -20 638 -20 q 214 68 313 -20 q 115 371 115 156 z "},"V":{"ha":907,"x_min":14,"x_max":893,"o":"m 31 928 q 50 972 14 972 l 119 972 q 168 939 155 972 l 388 332 q 424 225 402 292 q 452 117 445 157 l 455 117 q 484 225 463 157 q 519 332 505 292 l 740 939 q 789 972 752 972 l 858 972 q 876 928 893 972 l 546 41 q 501 0 530 0 l 406 0 q 361 41 377 0 l 31 928 z "},"W":{"ha":1280,"x_min":22,"x_max":1259,"o":"m 33 932 q 50 972 22 972 l 133 972 q 162 941 155 972 l 313 290 q 335 204 323 250 q 355 117 347 158 l 359 117 q 375 197 366 157 q 395 289 384 236 l 550 936 q 593 972 559 972 l 687 972 q 730 936 722 972 l 885 289 q 906 197 897 236 q 922 117 915 157 l 925 117 q 946 204 934 158 q 967 290 958 250 l 1118 941 q 1147 972 1126 972 l 1230 972 q 1248 932 1259 972 l 1015 52 q 964 0 1001 0 l 880 0 q 831 57 846 0 l 668 707 q 650 788 656 757 q 641 854 645 820 l 640 854 q 630 788 635 820 q 612 707 625 757 l 449 57 q 401 0 435 0 l 316 0 q 266 52 279 0 l 33 932 z "},"X":{"ha":888,"x_min":8,"x_max":880,"o":"m 52 0 q 40 45 8 0 l 366 502 l 63 928 q 75 972 31 972 l 159 972 q 206 946 189 972 l 444 592 l 682 946 q 730 972 700 972 l 813 972 q 825 928 857 972 l 523 502 l 848 45 q 836 0 880 0 l 752 0 q 705 26 722 0 l 444 412 l 184 26 q 136 0 166 0 l 52 0 z "},"Y":{"ha":883,"x_min":7,"x_max":876,"o":"m 37 928 q 55 972 7 972 l 131 972 q 180 939 161 972 l 352 643 q 401 558 380 594 q 440 481 421 522 l 443 481 q 482 558 462 522 q 531 643 503 594 l 703 939 q 752 972 722 972 l 828 972 q 846 928 876 972 l 507 400 l 507 37 q 473 0 507 0 l 410 0 q 376 37 376 0 l 376 400 l 37 928 z "},"Z":{"ha":825,"x_min":44,"x_max":781,"o":"m 81 0 q 44 31 44 0 l 44 63 q 64 123 44 96 l 597 860 l 597 863 q 543 861 570 861 l 103 861 q 66 892 66 861 l 66 942 q 103 972 66 972 l 728 972 q 766 942 766 972 l 766 921 q 752 880 766 899 l 212 113 l 212 110 q 267 111 231 111 l 743 111 q 781 81 781 111 l 781 31 q 743 0 781 0 l 81 0 z "},"[":{"ha":446,"x_min":115,"x_max":399,"o":"m 146 -277 q 115 -246 115 -277 l 115 984 q 146 1015 115 1015 l 368 1015 q 399 991 399 1015 l 399 950 q 368 926 399 926 l 235 926 l 235 -189 l 368 -189 q 399 -212 399 -189 l 399 -253 q 368 -277 399 -277 l 146 -277 z "},"\\":{"ha":570,"x_min":-7,"x_max":576,"o":"m 5 943 q 15 981 -7 972 l 45 993 q 80 974 68 1002 l 565 -227 q 553 -265 576 -256 l 523 -277 q 490 -258 501 -286 l 5 943 z "},"]":{"ha":446,"x_min":47,"x_max":331,"o":"m 78 -277 q 47 -253 47 -277 l 47 -212 q 78 -189 47 -189 l 212 -189 l 212 926 l 78 926 q 47 950 47 926 l 47 991 q 78 1015 47 1015 l 300 1015 q 331 984 331 1015 l 331 -246 q 300 -277 331 -277 l 78 -277 z "},"^":{"ha":587,"x_min":41,"x_max":546,"o":"m 61 626 q 57 664 41 639 l 235 949 q 279 972 250 972 l 308 972 q 352 949 338 972 l 530 664 q 526 626 546 639 l 493 604 q 456 618 473 591 l 294 875 l 293 875 l 131 618 q 94 604 114 591 l 61 626 z "},"_":{"ha":746,"x_min":-16,"x_max":762,"o":"m 14 -264 q -16 -241 -16 -264 l -16 -200 q 14 -176 -16 -176 l 732 -176 q 762 -200 762 -176 l 762 -241 q 732 -264 762 -264 l 14 -264 z "},"`":{"ha":416,"x_min":91,"x_max":381,"o":"m 121 938 q 131 973 91 973 l 206 973 q 261 948 243 973 l 355 816 q 347 780 381 780 l 297 780 q 242 800 259 780 l 121 938 z "},"a":{"ha":724,"x_min":58,"x_max":627,"o":"m 58 190 q 171 367 58 311 q 508 433 283 423 l 508 479 q 479 589 508 543 q 365 635 450 635 q 278 625 311 635 q 219 597 245 614 q 168 553 192 580 q 133 551 149 532 l 98 591 q 108 632 83 608 q 178 683 144 666 q 262 712 212 700 q 365 724 313 724 q 567 651 507 724 q 627 451 627 578 l 627 31 q 597 0 627 0 l 536 0 q 509 31 509 0 l 509 64 l 508 64 q 403 5 454 22 q 289 -12 352 -12 q 118 42 178 -12 q 58 190 58 95 m 181 187 q 199 120 181 145 q 248 87 216 94 q 313 80 279 80 q 412 90 365 80 q 508 144 458 100 l 508 344 q 313 319 371 334 q 218 269 254 304 q 181 187 181 233 z "},"b":{"ha":759,"x_min":96,"x_max":701,"o":"m 127 0 q 96 31 96 0 l 96 970 q 127 1001 96 1001 l 185 1001 q 216 970 216 1001 l 216 669 q 214 627 216 648 l 216 627 q 300 698 253 672 q 425 724 347 724 q 631 613 560 724 q 701 356 701 502 q 631 99 701 210 q 425 -12 560 -12 q 300 14 347 -12 q 216 85 253 40 l 214 85 l 210 31 q 184 0 208 0 l 127 0 m 216 278 q 264 126 216 176 q 386 77 313 77 q 532 154 489 77 q 575 356 575 231 q 532 558 575 481 q 386 635 489 635 q 264 586 313 635 q 216 434 216 536 l 216 278 z "},"c":{"ha":696,"x_min":58,"x_max":658,"o":"m 58 356 q 137 620 58 515 q 378 724 216 724 q 546 685 488 724 q 630 605 604 646 q 624 569 644 583 l 581 541 q 541 559 561 527 q 485 613 521 591 q 378 635 450 635 q 235 567 286 635 q 184 356 184 498 q 235 145 184 214 q 378 77 286 77 q 494 105 454 77 q 552 168 534 134 q 592 186 570 200 l 637 159 q 644 123 658 147 q 567 41 627 94 q 378 -12 507 -12 q 137 93 216 -12 q 58 356 58 197 z "},"d":{"ha":759,"x_min":58,"x_max":663,"o":"m 58 356 q 128 613 58 502 q 334 724 199 724 q 459 698 412 724 q 543 627 506 672 l 545 627 q 543 669 543 648 l 543 970 q 574 1001 543 1001 l 632 1001 q 663 970 663 1001 l 663 31 q 632 0 663 0 l 575 0 q 549 31 551 0 l 545 85 l 543 85 q 459 14 506 40 q 334 -12 412 -12 q 128 99 199 -12 q 58 356 58 210 m 184 356 q 227 154 184 231 q 373 77 270 77 q 495 126 446 77 q 543 278 543 176 l 543 434 q 495 586 543 536 q 373 635 446 635 q 227 558 270 635 q 184 356 184 481 z "},"e":{"ha":745,"x_min":58,"x_max":684,"o":"m 58 356 q 142 624 58 524 q 382 724 226 724 q 598 632 513 724 q 684 341 684 541 q 656 311 684 311 l 184 311 q 254 129 195 180 q 388 77 313 77 q 509 104 467 77 q 570 156 551 130 q 612 167 592 184 l 652 132 q 652 95 668 119 q 579 32 640 75 q 388 -12 518 -12 q 138 88 218 -12 q 58 356 58 188 m 181 399 l 564 399 q 515 565 562 494 q 380 637 469 637 q 246 584 301 637 q 181 399 191 532 z "},"f":{"ha":442,"x_min":31,"x_max":493,"o":"m 61 623 q 31 646 31 623 l 31 688 q 61 712 31 712 l 134 712 l 134 813 q 195 969 134 926 q 334 1013 256 1013 q 410 1008 381 1013 q 478 987 439 1003 q 487 965 493 981 l 466 911 q 442 906 460 898 q 406 919 427 913 q 359 924 384 924 q 278 897 302 924 q 253 793 253 870 l 253 712 l 377 712 q 408 688 408 712 l 408 646 q 377 623 408 623 l 253 623 l 253 31 q 222 0 253 0 l 164 0 q 134 31 134 0 l 134 623 l 61 623 z "},"g":{"ha":759,"x_min":58,"x_max":663,"o":"m 58 356 q 128 613 58 502 q 334 724 199 724 q 459 698 412 724 q 543 627 506 672 l 545 627 l 549 682 q 575 712 551 712 l 632 712 q 663 682 663 712 l 663 -5 q 603 -209 663 -136 q 366 -283 543 -283 q 188 -256 247 -283 q 104 -199 129 -229 q 102 -161 85 -177 l 139 -125 q 182 -134 155 -110 q 252 -181 218 -167 q 366 -195 285 -195 q 501 -155 458 -195 q 543 7 543 -116 l 543 48 q 545 90 543 69 l 543 90 q 460 16 508 43 q 334 -12 412 -12 q 128 99 199 -12 q 58 356 58 210 m 184 356 q 227 154 184 231 q 373 77 270 77 q 495 126 446 77 q 543 278 543 176 l 543 434 q 495 586 543 536 q 373 635 446 635 q 227 558 270 635 q 184 356 184 481 z "},"h":{"ha":765,"x_min":96,"x_max":670,"o":"m 127 0 q 96 31 96 0 l 96 970 q 127 1001 96 1001 l 185 1001 q 216 970 216 1001 l 216 668 q 214 627 216 648 l 217 627 q 312 700 261 676 q 439 724 363 724 q 616 654 562 724 q 670 464 670 585 l 670 31 q 640 0 670 0 l 581 0 q 551 31 551 0 l 551 431 q 507 600 551 564 q 395 635 463 635 q 261 583 307 635 q 216 403 216 530 l 216 31 q 185 0 216 0 l 127 0 z "},"i":{"ha":312,"x_min":96,"x_max":216,"o":"m 127 0 q 96 31 96 0 l 96 682 q 127 712 96 712 l 185 712 q 216 682 216 712 l 216 31 q 185 0 216 0 l 127 0 m 127 841 q 96 871 96 841 l 96 930 q 127 960 96 960 l 185 960 q 216 930 216 960 l 216 871 q 185 841 216 841 l 127 841 z "},"j":{"ha":316,"x_min":-72,"x_max":220,"o":"m -57 -269 q -69 -248 -72 -262 l -58 -193 q -41 -182 -54 -176 q 24 -195 -14 -195 q 82 -155 64 -195 q 100 4 100 -116 l 100 682 q 131 712 100 712 l 189 712 q 220 682 220 712 l 220 -63 q 170 -239 220 -195 q 46 -283 120 -283 q -57 -269 -26 -283 m 131 841 q 100 871 100 841 l 100 930 q 131 960 100 960 l 189 960 q 220 930 220 960 l 220 871 q 189 841 220 841 l 131 841 z "},"k":{"ha":680,"x_min":96,"x_max":662,"o":"m 127 0 q 96 31 96 0 l 96 970 q 127 1001 96 1001 l 185 1001 q 216 970 216 1001 l 216 406 q 214 366 216 386 l 216 366 l 490 694 q 526 712 505 712 l 588 712 q 606 672 640 712 l 393 418 l 636 40 q 618 0 662 0 l 552 0 q 513 25 530 0 l 318 330 l 216 208 l 216 31 q 185 0 216 0 l 127 0 z "},"l":{"ha":312,"x_min":96,"x_max":216,"o":"m 127 0 q 96 31 96 0 l 96 877 q 103 903 96 890 l 151 989 q 172 1013 163 1013 l 195 1013 q 216 989 216 1013 l 216 31 q 185 0 216 0 l 127 0 z "},"m":{"ha":1138,"x_min":96,"x_max":1043,"o":"m 127 0 q 96 31 96 0 l 96 682 q 127 712 96 712 l 184 712 q 214 682 214 712 l 214 627 l 217 627 q 313 700 261 676 q 412 724 364 724 q 546 680 499 724 q 607 592 593 636 l 610 592 q 704 686 647 648 q 825 724 761 724 q 988 654 933 724 q 1043 464 1043 585 l 1043 31 q 1013 0 1043 0 l 954 0 q 924 31 924 0 l 924 425 q 890 596 924 557 q 788 635 857 635 q 675 577 720 635 q 629 403 629 519 l 629 31 q 599 0 629 0 l 541 0 q 510 31 510 0 l 510 425 q 477 596 510 557 q 374 635 444 635 q 261 583 307 635 q 216 403 216 530 l 216 31 q 185 0 216 0 l 127 0 z "},"n":{"ha":765,"x_min":96,"x_max":670,"o":"m 127 0 q 96 31 96 0 l 96 682 q 127 712 96 712 l 184 712 q 214 682 214 712 l 214 627 l 217 627 q 312 700 261 676 q 439 724 363 724 q 616 654 562 724 q 670 464 670 585 l 670 31 q 640 0 670 0 l 581 0 q 551 31 551 0 l 551 431 q 507 600 551 564 q 395 635 463 635 q 261 583 307 635 q 216 403 216 530 l 216 31 q 185 0 216 0 l 127 0 z "},"o":{"ha":779,"x_min":58,"x_max":721,"o":"m 58 356 q 142 620 58 515 q 389 724 227 724 q 636 620 552 724 q 721 356 721 515 q 636 93 721 197 q 389 -12 552 -12 q 142 93 227 -12 q 58 356 58 197 m 184 356 q 240 145 184 214 q 389 77 296 77 q 538 145 482 77 q 595 356 595 214 q 538 567 595 498 q 389 635 482 635 q 240 567 296 635 q 184 356 184 498 z "},"p":{"ha":759,"x_min":96,"x_max":701,"o":"m 127 -271 q 96 -241 96 -271 l 96 682 q 127 712 96 712 l 184 712 q 210 682 208 712 l 214 627 l 216 627 q 300 698 253 672 q 425 724 347 724 q 631 613 560 724 q 701 356 701 502 q 631 99 701 210 q 425 -12 560 -12 q 300 14 347 -12 q 216 85 253 40 l 214 85 q 216 43 216 64 l 216 -241 q 185 -271 216 -271 l 127 -271 m 216 278 q 264 126 216 176 q 386 77 313 77 q 532 154 489 77 q 575 356 575 231 q 532 558 575 481 q 386 635 489 635 q 264 586 313 635 q 216 434 216 536 l 216 278 z "},"q":{"ha":759,"x_min":58,"x_max":663,"o":"m 58 356 q 128 613 58 502 q 334 724 199 724 q 459 698 412 724 q 543 627 506 672 l 545 627 l 549 682 q 575 712 551 712 l 632 712 q 663 682 663 712 l 663 -241 q 632 -271 663 -271 l 574 -271 q 543 -241 543 -271 l 543 43 q 545 85 543 64 l 543 85 q 459 14 506 40 q 334 -12 412 -12 q 128 99 199 -12 q 58 356 58 210 m 184 356 q 227 154 184 231 q 373 77 270 77 q 495 126 446 77 q 543 278 543 176 l 543 434 q 495 586 543 536 q 373 635 446 635 q 227 558 270 635 q 184 356 184 481 z "},"r":{"ha":490,"x_min":96,"x_max":480,"o":"m 127 0 q 96 31 96 0 l 96 682 q 127 712 96 712 l 184 712 q 214 682 214 712 l 214 600 l 217 600 q 294 692 250 661 q 404 724 338 724 q 465 716 447 724 q 476 696 480 710 l 460 640 q 443 631 457 628 q 398 635 419 635 q 267 564 319 635 q 216 369 216 492 l 216 31 q 185 0 216 0 l 127 0 z "},"s":{"ha":640,"x_min":35,"x_max":589,"o":"m 56 66 q 47 103 35 86 l 78 146 q 122 144 93 166 q 211 95 162 113 q 323 77 260 77 q 390 86 361 77 q 441 120 419 95 q 463 187 463 145 q 453 233 463 212 q 420 268 442 255 q 377 289 398 281 q 308 310 342 302 q 218 336 274 319 q 148 369 181 348 q 90 427 115 391 q 65 528 65 464 q 105 642 65 594 q 205 706 145 689 q 323 724 266 724 q 458 704 407 724 q 547 659 509 685 q 553 623 568 643 l 522 582 q 478 583 508 562 q 407 616 453 601 q 326 632 361 632 q 253 623 283 632 q 203 590 222 613 q 184 536 184 567 q 192 493 184 512 q 220 459 199 475 q 277 434 240 444 q 381 407 334 419 q 466 377 428 395 q 542 326 515 354 q 579 266 569 298 q 589 195 589 234 q 546 72 589 122 q 450 5 503 22 q 323 -12 397 -12 q 150 17 222 -12 q 56 66 77 46 z "},"t":{"ha":513,"x_min":31,"x_max":480,"o":"m 62 623 q 31 646 31 623 l 31 688 q 62 712 31 712 l 142 712 l 142 773 q 149 799 142 787 l 196 885 q 217 909 209 909 l 241 909 q 261 885 261 909 l 261 712 l 406 712 q 436 688 436 712 l 436 646 q 406 623 436 623 l 261 623 l 261 191 q 282 98 261 119 q 334 77 304 77 q 389 90 357 77 q 433 113 421 104 q 452 107 446 123 l 475 55 q 467 33 480 41 q 389 3 440 18 q 288 -12 338 -12 q 179 39 217 -12 q 142 183 142 90 l 142 623 l 62 623 z "},"u":{"ha":760,"x_min":95,"x_max":663,"o":"m 95 248 l 95 682 q 125 712 95 712 l 184 712 q 214 682 214 712 l 214 281 q 258 112 214 148 q 368 77 302 77 q 498 129 453 77 q 544 309 544 182 l 544 682 q 574 712 544 712 l 633 712 q 663 682 663 712 l 663 31 q 633 0 663 0 l 576 0 q 545 31 545 0 l 545 85 l 543 85 q 448 12 498 36 q 323 -12 397 -12 q 150 58 205 -12 q 95 248 95 127 z "},"v":{"ha":669,"x_min":19,"x_max":650,"o":"m 31 679 q 49 712 19 712 l 123 712 q 153 686 144 712 l 297 238 q 321 162 315 183 q 333 111 328 142 l 336 111 q 348 162 341 142 q 372 238 354 183 l 515 686 q 546 712 524 712 l 620 712 q 638 679 650 712 l 416 41 q 379 0 401 0 l 290 0 q 253 41 267 0 l 31 679 z "},"w":{"ha":979,"x_min":22,"x_max":958,"o":"m 31 679 q 49 712 22 712 l 120 712 q 151 686 144 712 l 250 238 q 265 176 255 218 q 279 115 275 134 l 281 115 q 293 172 285 134 q 309 238 302 210 l 429 686 q 459 712 435 712 l 520 712 q 551 686 544 712 l 670 238 q 686 172 677 210 q 698 115 694 134 l 701 115 q 714 176 705 134 q 729 238 724 218 l 829 686 q 859 712 835 712 l 930 712 q 949 679 958 712 l 781 41 q 744 0 770 0 l 663 0 q 626 41 637 0 l 511 490 q 495 556 498 537 q 490 592 492 575 l 489 592 q 484 556 487 575 q 469 490 481 537 l 353 41 q 317 0 342 0 l 235 0 q 199 41 210 0 l 31 679 z "},"x":{"ha":661,"x_min":6,"x_max":653,"o":"m 52 0 q 34 40 6 0 l 265 375 l 60 672 q 77 712 32 712 l 144 712 q 180 694 168 712 l 330 458 l 479 694 q 515 712 490 712 l 582 712 q 600 672 627 712 l 394 375 l 625 40 q 608 0 653 0 l 541 0 q 505 18 517 0 l 330 292 l 154 18 q 118 0 142 0 l 52 0 z "},"y":{"ha":671,"x_min":22,"x_max":653,"o":"m 35 679 q 53 712 22 712 l 127 712 q 157 686 149 712 l 300 238 q 318 181 306 220 q 336 111 331 142 l 338 111 q 351 166 343 142 q 374 238 359 191 l 518 686 q 549 712 527 712 l 623 712 q 641 679 653 712 l 412 41 q 297 -211 348 -138 q 145 -283 246 -283 q 61 -267 92 -283 q 52 -246 47 -260 l 69 -191 q 87 -183 74 -177 q 141 -195 115 -195 q 218 -143 189 -195 q 266 -41 248 -92 l 279 -1 l 35 679 z "},"z":{"ha":644,"x_min":37,"x_max":607,"o":"m 68 0 q 37 24 37 0 l 37 58 q 61 113 37 81 l 453 623 l 453 624 q 412 623 433 623 l 84 623 q 54 646 54 623 l 54 688 q 84 712 54 712 l 560 712 q 591 688 591 712 l 591 656 q 566 604 591 636 l 171 90 l 171 88 q 212 90 191 90 l 576 90 q 607 66 607 90 l 607 24 q 576 0 607 0 l 68 0 z "},"{":{"ha":526,"x_min":61,"x_max":479,"o":"m 85 325 q 61 355 61 325 l 61 382 q 85 413 61 413 q 185 464 134 413 q 237 631 237 514 l 237 791 q 280 960 237 905 q 448 1015 323 1015 q 479 991 479 1015 l 479 950 q 448 926 479 926 q 369 899 382 926 q 357 806 357 871 l 357 612 q 295 425 357 473 q 189 370 233 376 l 189 368 q 295 313 233 362 q 357 125 357 264 l 357 -68 q 369 -161 357 -133 q 448 -189 382 -189 q 479 -212 479 -189 l 479 -253 q 448 -277 479 -277 q 280 -222 323 -277 q 237 -53 237 -168 l 237 106 q 185 274 237 224 q 85 325 134 325 z "},"|":{"ha":400,"x_min":156,"x_max":244,"o":"m 180 -298 q 156 -268 156 -298 l 156 984 q 180 1015 156 1015 l 220 1015 q 244 984 244 1015 l 244 -268 q 220 -298 244 -298 l 180 -298 z "},"}":{"ha":526,"x_min":47,"x_max":465,"o":"m 78 -277 q 47 -253 47 -277 l 47 -212 q 78 -189 47 -189 q 157 -161 144 -189 q 170 -68 170 -133 l 170 125 q 232 313 170 264 q 337 368 294 362 l 337 370 q 232 425 294 376 q 170 612 170 473 l 170 806 q 157 899 170 871 q 78 926 144 926 q 47 950 47 926 l 47 991 q 78 1015 47 1015 q 246 960 203 1015 q 289 791 289 905 l 289 631 q 341 464 289 514 q 441 413 393 413 q 465 382 465 413 l 465 355 q 441 325 465 325 q 341 274 393 325 q 289 106 289 224 l 289 -53 q 246 -222 289 -168 q 78 -277 203 -277 z "},"~":{"ha":868,"x_min":52,"x_max":816,"o":"m 68 426 q 60 455 52 431 q 138 573 83 530 q 271 617 193 617 q 460 536 349 617 q 622 454 571 454 q 699 485 669 454 q 745 553 728 515 q 770 568 754 574 l 800 557 q 808 528 816 552 q 730 410 785 454 q 597 366 675 366 q 408 448 519 366 q 246 529 297 529 q 170 498 199 529 q 123 430 140 468 q 98 416 114 410 l 68 426 z "},"¡":{"ha":407,"x_min":134,"x_max":273,"o":"m 168 -260 q 134 -223 134 -260 l 149 417 q 179 448 149 448 l 228 448 q 258 417 258 448 l 273 -223 q 239 -260 273 -260 l 168 -260 m 165 568 q 135 599 135 568 l 135 682 q 165 712 135 712 l 241 712 q 272 682 272 712 l 272 599 q 241 568 272 568 l 165 568 z "},"¢":{"ha":753,"x_min":87,"x_max":687,"o":"m 87 356 q 160 612 87 515 q 363 722 234 709 l 363 849 q 387 880 363 880 l 421 880 q 445 849 445 880 l 445 722 q 581 681 528 717 q 659 605 633 646 q 653 569 673 583 l 610 541 q 570 559 590 527 q 519 610 550 591 q 445 633 489 629 l 445 79 q 528 109 494 84 q 581 168 563 134 q 621 186 599 200 l 667 159 q 673 123 687 147 q 600 45 656 94 q 445 -10 545 -3 l 445 -137 q 421 -168 445 -168 l 387 -168 q 363 -137 363 -168 l 363 -9 q 160 100 234 3 q 87 356 87 197 m 213 356 q 257 154 213 214 q 363 81 302 94 l 363 631 q 257 558 302 618 q 213 356 213 498 z "},"£":{"ha":753,"x_min":54,"x_max":703,"o":"m 91 0 q 54 31 54 0 l 54 69 q 77 119 54 94 q 144 189 98 140 q 191 322 191 238 l 191 426 l 83 426 q 54 456 54 426 l 54 507 q 84 537 54 537 l 191 537 l 191 687 q 263 916 191 848 q 468 985 336 985 q 594 962 541 985 q 679 908 647 940 q 688 867 703 884 l 657 831 q 612 833 637 808 q 552 869 590 854 q 462 883 515 883 q 353 847 397 883 q 310 702 310 812 l 310 537 l 503 537 q 534 507 534 537 l 534 456 q 504 426 534 426 l 310 426 l 310 336 q 278 186 310 240 q 216 113 247 132 l 216 110 q 271 111 235 111 l 659 111 q 696 81 696 111 l 696 31 q 659 0 696 0 l 91 0 z "},"¤":{"ha":753,"x_min":43,"x_max":709,"o":"m 61 196 q 64 235 43 212 l 153 330 q 103 494 103 401 q 153 658 103 586 l 64 753 q 61 791 43 775 l 86 814 q 124 808 104 831 l 208 718 q 376 776 279 776 q 545 718 474 776 l 629 808 q 667 814 649 831 l 692 791 q 688 753 709 775 l 600 658 q 650 494 650 586 q 600 330 650 401 l 688 235 q 692 196 709 212 l 667 173 q 629 179 649 157 l 545 269 q 376 212 474 212 q 208 269 279 212 l 124 179 q 86 173 104 157 l 61 196 m 193 494 q 244 357 193 414 q 376 300 295 300 q 509 357 458 300 q 559 494 559 414 q 509 630 559 573 q 376 688 458 688 q 244 630 295 688 q 193 494 193 573 z "},"¥":{"ha":753,"x_min":-16,"x_max":768,"o":"m 10 928 q 28 972 -16 972 l 91 972 q 140 939 123 972 l 293 643 q 338 556 320 591 q 375 481 356 522 l 378 481 q 415 556 397 522 q 460 643 433 591 l 613 939 q 662 972 630 972 l 724 972 q 743 928 768 972 l 495 501 l 614 501 q 645 471 645 501 l 645 431 q 614 400 645 400 l 436 400 l 436 277 l 614 277 q 645 247 645 277 l 645 207 q 614 176 645 176 l 436 176 l 436 31 q 406 0 436 0 l 347 0 q 317 31 317 0 l 317 176 l 132 176 q 101 207 101 176 l 101 247 q 132 277 101 277 l 317 277 l 317 400 l 132 400 q 101 431 101 400 l 101 471 q 132 501 101 501 l 258 501 l 10 928 z "},"¦":{"ha":400,"x_min":156,"x_max":244,"o":"m 180 -229 q 156 -199 156 -229 l 156 238 q 180 269 156 269 l 220 269 q 244 238 244 269 l 244 -199 q 220 -229 244 -229 l 180 -229 m 180 448 q 156 478 156 448 l 156 915 q 180 945 156 945 l 220 945 q 244 915 244 945 l 244 478 q 220 448 244 448 l 180 448 z "},"§":{"ha":787,"x_min":75,"x_max":712,"o":"m 75 394 q 125 538 75 477 q 242 649 176 600 q 186 783 186 719 q 248 935 186 877 q 411 993 311 993 q 526 970 479 993 q 598 916 574 947 q 601 878 616 893 l 564 840 q 533 850 550 827 q 490 887 519 869 q 417 905 461 905 q 335 876 361 905 q 309 804 309 847 q 511 583 309 720 q 712 345 712 446 q 662 201 712 262 q 545 90 611 140 q 601 -44 601 20 q 538 -196 601 -138 q 376 -254 476 -254 q 260 -231 308 -254 q 189 -176 213 -208 q 186 -139 171 -154 l 223 -101 q 254 -111 237 -87 q 297 -148 268 -130 q 370 -165 326 -165 q 452 -137 426 -165 q 477 -64 477 -108 q 276 156 477 19 q 75 394 75 293 m 191 438 q 320 274 191 363 q 488 149 449 184 l 552 206 q 596 301 596 246 q 467 466 596 376 q 298 591 338 555 l 235 533 q 191 438 191 493 z "},"¨":{"ha":416,"x_min":11,"x_max":406,"o":"m 41 841 q 11 871 11 841 l 11 930 q 41 960 11 960 l 100 960 q 130 930 130 960 l 130 871 q 100 841 130 841 l 41 841 m 317 841 q 286 871 286 841 l 286 930 q 317 960 286 960 l 375 960 q 406 930 406 960 l 406 871 q 375 841 406 841 l 317 841 z "},"©":{"ha":1122,"x_min":54,"x_max":1067,"o":"m 54 486 q 95 683 54 589 q 203 844 135 777 q 364 952 271 912 q 561 993 458 993 q 758 952 664 993 q 919 844 851 912 q 1027 683 987 777 q 1067 486 1067 589 q 1027 290 1067 383 q 919 128 987 196 q 758 20 851 60 q 561 -20 664 -20 q 364 20 458 -20 q 203 128 271 60 q 95 290 135 196 q 54 486 54 383 m 122 486 q 157 316 122 397 q 251 176 192 235 q 390 81 309 117 q 561 45 471 45 q 731 81 650 45 q 871 176 812 117 q 965 316 930 235 q 1000 486 1000 397 q 965 657 1000 576 q 871 797 930 738 q 731 891 812 855 q 561 928 650 928 q 390 891 471 928 q 251 797 309 855 q 157 657 192 738 q 122 486 122 576 m 292 486 q 361 702 292 624 q 559 780 431 780 q 685 754 634 780 q 756 684 735 728 q 753 653 767 661 l 713 631 q 686 646 698 623 q 646 690 673 671 q 563 709 618 709 q 422 652 465 709 q 380 486 380 596 q 422 320 380 376 q 563 264 465 264 q 651 287 620 264 q 699 339 683 311 q 727 353 711 361 l 768 330 q 770 298 782 322 q 693 223 747 253 q 559 193 639 193 q 362 271 432 193 q 292 486 292 349 z "},"ª":{"ha":500,"x_min":39,"x_max":427,"o":"m 39 663 q 112 785 39 750 q 337 830 184 819 l 337 846 q 315 917 337 892 q 236 941 293 941 q 168 932 191 941 q 120 900 145 922 q 96 899 106 888 l 64 932 q 71 959 54 944 q 155 1001 109 990 q 248 1013 202 1013 q 384 965 340 1013 q 427 828 427 917 l 427 562 q 406 542 427 542 l 356 542 q 338 562 338 542 l 338 583 l 337 583 q 270 545 300 555 q 197 534 239 534 q 83 568 126 534 q 39 663 39 602 m 133 668 q 151 623 133 639 q 212 608 168 608 q 271 614 240 608 q 337 644 302 621 l 337 759 q 166 724 199 750 q 133 668 133 699 z "},"«":{"ha":700,"x_min":69,"x_max":619,"o":"m 82 351 q 82 382 69 366 l 307 646 q 336 652 322 664 l 369 623 q 367 593 382 611 l 176 366 l 367 140 q 369 110 382 121 l 336 81 q 307 86 322 68 l 82 351 m 319 351 q 319 382 307 366 l 545 646 q 574 652 559 664 l 606 623 q 604 593 619 611 l 413 366 l 604 140 q 606 110 619 121 l 574 81 q 545 86 559 68 l 319 351 z "},"¬":{"ha":753,"x_min":54,"x_max":699,"o":"m 85 548 q 54 572 54 548 l 54 606 q 85 629 54 629 l 668 629 q 699 606 699 629 l 699 321 q 675 290 699 290 l 641 290 q 617 321 617 290 l 617 548 l 85 548 z "},"­":{"ha":461,"x_min":38,"x_max":423,"o":"m 68 328 q 38 351 38 328 l 38 399 q 68 422 38 422 l 393 422 q 423 399 423 422 l 423 351 q 393 328 423 328 l 68 328 z "},"®":{"ha":1122,"x_min":54,"x_max":1067,"o":"m 54 486 q 95 683 54 589 q 203 844 135 777 q 364 952 271 912 q 561 993 458 993 q 758 952 664 993 q 919 844 851 912 q 1027 683 987 777 q 1067 486 1067 589 q 1027 290 1067 383 q 919 128 987 196 q 758 20 851 60 q 561 -20 664 -20 q 364 20 458 -20 q 203 128 271 60 q 95 290 135 196 q 54 486 54 383 m 122 486 q 157 316 122 397 q 251 176 192 235 q 390 81 309 117 q 561 45 471 45 q 731 81 650 45 q 871 176 812 117 q 965 316 930 235 q 1000 486 1000 397 q 965 657 1000 576 q 871 797 930 738 q 731 891 812 855 q 561 928 650 928 q 390 891 471 928 q 251 797 309 855 q 157 657 192 738 q 122 486 122 576 m 386 192 q 366 214 366 192 l 366 734 q 386 756 366 756 l 576 756 q 741 713 690 756 q 791 602 791 671 q 752 498 791 541 q 633 446 712 456 l 633 446 q 686 406 672 422 q 715 362 699 389 l 804 218 q 797 192 821 192 l 745 192 q 718 208 728 192 l 640 341 q 588 398 624 368 q 503 429 553 429 l 448 429 l 448 214 q 428 192 448 192 l 386 192 m 448 504 l 549 504 q 666 526 625 504 q 707 600 707 548 q 669 664 707 647 q 568 682 632 682 l 448 682 l 448 504 z "},"¯":{"ha":416,"x_min":-1,"x_max":418,"o":"m 29 841 q -1 865 -1 841 l -1 892 q 29 916 -1 916 l 387 916 q 418 892 418 916 l 418 865 q 387 841 418 841 l 29 841 z "},"°":{"ha":380,"x_min":54,"x_max":326,"o":"m 54 841 q 94 937 54 897 q 190 977 134 977 q 286 937 246 977 q 326 841 326 897 q 286 745 326 785 q 190 705 246 705 q 94 745 134 705 q 54 841 54 785 m 122 841 q 142 793 122 812 q 190 773 161 773 q 238 793 218 773 q 258 841 258 812 q 238 889 258 869 q 190 909 218 909 q 142 889 161 909 q 122 841 122 869 z "},"±":{"ha":868,"x_min":54,"x_max":814,"o":"m 85 -41 q 54 -17 54 -41 l 54 17 q 85 41 54 41 l 783 41 q 814 17 814 41 l 814 -17 q 783 -41 814 -41 l 85 -41 m 85 451 q 54 475 54 451 l 54 509 q 85 532 54 532 l 393 532 l 393 841 q 416 871 393 871 l 450 871 q 474 841 474 871 l 474 532 l 783 532 q 814 509 814 532 l 814 475 q 783 451 814 451 l 474 451 l 474 142 q 450 112 474 112 l 416 112 q 393 142 393 112 l 393 451 l 85 451 z "},"²":{"ha":400,"x_min":33,"x_max":366,"o":"m 52 483 q 33 498 33 483 l 33 526 q 45 552 33 541 l 183 691 q 263 787 250 760 q 276 853 276 815 q 256 902 276 878 q 195 926 236 926 q 144 912 170 926 q 103 854 118 899 q 82 838 97 835 l 43 847 q 39 877 33 850 q 88 959 49 923 q 193 994 127 994 q 322 957 283 994 q 360 851 360 920 q 331 757 360 800 q 241 654 302 714 l 143 556 l 143 554 q 171 555 157 555 l 346 555 q 366 540 366 555 l 366 498 q 346 483 366 483 l 52 483 z "},"³":{"ha":403,"x_min":24,"x_max":366,"o":"m 39 535 q 33 562 24 552 l 61 591 q 90 585 73 604 q 133 550 110 559 q 182 540 156 540 q 259 567 237 540 q 281 631 281 595 q 251 696 281 671 q 183 721 220 721 l 152 721 q 136 732 136 721 l 136 773 q 152 785 136 785 l 177 785 q 238 807 212 785 q 264 873 264 829 q 243 909 264 892 q 186 926 222 926 q 134 918 157 926 q 98 895 111 909 q 73 889 84 878 l 45 915 q 52 944 35 924 q 105 980 71 966 q 188 994 140 994 q 305 964 264 994 q 346 868 346 934 q 314 792 346 820 q 250 757 283 764 l 250 755 q 327 718 288 750 q 366 630 366 686 q 319 514 366 557 q 180 472 273 472 q 92 493 126 472 q 39 535 57 514 z "},"´":{"ha":416,"x_min":96,"x_max":386,"o":"m 130 780 q 121 816 96 780 l 216 948 q 271 973 233 973 l 346 973 q 355 938 386 973 l 235 800 q 180 780 218 780 l 130 780 z "},"µ":{"ha":787,"x_min":100,"x_max":690,"o":"m 131 -283 q 100 -252 100 -283 l 100 681 q 131 711 100 711 l 189 711 q 220 681 220 711 l 220 309 q 269 140 220 203 q 399 76 317 76 q 517 136 464 76 q 571 309 571 195 l 571 682 q 602 712 571 712 l 660 712 q 690 682 690 712 l 690 31 q 660 0 690 0 l 603 0 q 572 31 572 0 l 572 85 l 570 85 q 480 9 525 31 q 388 -12 435 -12 q 300 9 340 -12 q 221 84 259 31 l 218 84 q 220 43 220 64 l 220 -252 q 189 -283 220 -283 l 131 -283 z "},"¶":{"ha":693,"x_min":54,"x_max":597,"o":"m 54 735 q 125 902 54 831 q 292 972 195 972 l 356 972 q 380 942 380 972 l 380 -220 q 356 -251 380 -251 l 315 -251 q 292 -220 292 -251 l 292 498 q 125 568 195 498 q 54 735 54 639 m 532 -251 q 509 -220 509 -251 l 509 942 q 532 972 509 972 l 573 972 q 597 942 597 972 l 597 -220 q 573 -251 597 -251 l 532 -251 z "},"·":{"ha":407,"x_min":135,"x_max":272,"o":"m 165 420 q 135 450 135 420 l 135 533 q 165 564 135 564 l 241 564 q 272 533 272 564 l 272 450 q 241 420 272 420 l 165 420 z "},"¸":{"ha":416,"x_min":67,"x_max":314,"o":"m 81 -269 q 72 -245 67 -264 l 79 -218 q 104 -205 84 -198 q 161 -214 133 -214 q 212 -203 194 -214 q 230 -168 230 -191 q 210 -138 230 -148 q 156 -128 189 -128 l 137 -128 q 121 -111 121 -128 q 127 -74 121 -85 l 171 0 q 198 15 180 15 l 239 15 q 252 0 260 15 l 214 -65 l 214 -67 q 291 -103 267 -71 q 314 -170 314 -135 q 274 -252 314 -222 q 167 -282 233 -282 q 81 -269 130 -282 z "},"¹":{"ha":326,"x_min":49,"x_max":240,"o":"m 54 892 q 62 908 49 901 q 107 936 77 916 q 155 977 138 955 q 175 990 165 990 l 224 990 q 240 975 240 990 l 240 498 q 224 483 240 483 l 175 483 q 159 498 159 483 l 159 878 q 160 899 159 888 l 159 899 q 128 870 148 885 q 91 849 109 856 q 71 855 76 843 l 54 892 z "},"º":{"ha":529,"x_min":39,"x_max":490,"o":"m 39 773 q 98 947 39 882 q 264 1013 156 1013 q 431 947 373 1013 q 490 773 490 882 q 431 600 490 665 q 264 534 373 534 q 98 600 156 534 q 39 773 39 665 m 133 773 q 170 646 133 685 q 264 608 207 608 q 359 646 322 608 q 396 773 396 685 q 359 900 396 861 q 264 939 322 939 q 170 900 207 939 q 133 773 133 861 z "},"»":{"ha":700,"x_min":81,"x_max":631,"o":"m 94 110 q 96 140 81 121 l 287 366 l 96 593 q 94 623 81 611 l 126 652 q 155 646 140 664 l 380 382 q 380 351 393 366 l 155 86 q 126 81 140 68 l 94 110 m 331 110 q 333 140 318 121 l 524 366 l 333 593 q 331 623 318 611 l 363 652 q 393 646 378 664 l 618 382 q 618 351 631 366 l 393 86 q 363 81 378 68 l 331 110 z "},"¼":{"ha":1177,"x_min":130,"x_max":1082,"o":"m 135 892 q 143 908 130 901 q 189 936 159 916 q 237 977 219 955 q 256 990 247 990 l 305 990 q 321 975 321 990 l 321 498 q 305 483 321 483 l 256 483 q 240 498 240 483 l 240 878 q 241 899 240 888 l 240 899 q 210 870 229 885 q 172 849 190 856 q 152 855 157 843 l 135 892 m 745 117 q 728 133 728 117 l 728 179 q 737 203 728 190 l 928 494 q 947 507 936 507 l 1002 507 q 1019 492 1019 507 l 1019 190 l 1066 190 q 1082 174 1082 190 l 1082 133 q 1067 117 1082 117 l 1019 117 l 1019 16 q 1003 0 1019 0 l 953 0 q 937 16 937 0 l 937 117 l 745 117 m 809 190 l 937 190 l 937 374 q 939 395 937 385 l 937 395 l 809 190 m 240 -34 q 236 4 220 -22 l 872 1022 q 909 1036 888 1048 l 937 1017 q 941 979 958 1005 l 305 -39 q 269 -52 289 -64 l 240 -34 z "},"½":{"ha":1177,"x_min":130,"x_max":1084,"o":"m 770 0 q 751 16 751 0 l 751 43 q 763 69 751 58 l 901 208 q 981 304 968 277 q 994 370 994 332 q 974 419 994 395 q 913 444 954 444 q 862 430 888 444 q 821 371 836 416 q 800 355 815 352 l 762 364 q 757 394 751 367 q 806 476 767 440 q 911 511 846 511 q 1040 474 1002 511 q 1078 368 1078 437 q 1049 274 1078 317 q 960 171 1021 231 l 861 73 l 861 71 q 889 73 876 73 l 1064 73 q 1084 57 1084 73 l 1084 16 q 1064 0 1084 0 l 770 0 m 135 892 q 143 908 130 901 q 189 936 159 916 q 237 977 219 955 q 256 990 247 990 l 305 990 q 321 975 321 990 l 321 498 q 305 483 321 483 l 256 483 q 240 498 240 483 l 240 878 q 241 899 240 888 l 240 899 q 210 870 229 885 q 172 849 190 856 q 152 855 157 843 l 135 892 m 240 -34 q 236 4 220 -22 l 872 1022 q 909 1036 888 1048 l 937 1017 q 941 979 958 1005 l 305 -39 q 269 -52 289 -64 l 240 -34 z "},"¾":{"ha":1177,"x_min":85,"x_max":1063,"o":"m 726 117 q 710 133 710 117 l 710 179 q 719 203 710 190 l 909 494 q 929 507 918 507 l 984 507 q 1000 492 1000 507 l 1000 190 l 1048 190 q 1063 174 1063 190 l 1063 133 q 1048 117 1063 117 l 1000 117 l 1000 16 q 985 0 1000 0 l 935 0 q 919 16 919 0 l 919 117 l 726 117 m 791 190 l 919 190 l 919 374 q 921 395 919 385 l 919 395 l 791 190 m 100 535 q 94 562 85 552 l 123 591 q 151 585 135 604 q 195 550 172 559 q 243 540 218 540 q 321 567 299 540 q 343 631 343 595 q 312 696 343 671 q 245 721 281 721 l 214 721 q 198 732 198 721 l 198 773 q 214 785 198 785 l 239 785 q 300 807 273 785 q 326 873 326 829 q 305 909 326 892 q 248 926 284 926 q 196 918 219 926 q 160 895 173 909 q 134 889 146 878 l 106 915 q 114 944 97 924 q 167 980 132 966 q 250 994 202 994 q 367 964 326 994 q 408 868 408 934 q 376 792 408 820 q 312 757 345 764 l 312 755 q 389 718 350 750 q 427 630 427 686 q 381 514 427 557 q 241 472 334 472 q 153 493 188 472 q 100 535 119 514 m 240 -34 q 236 4 220 -22 l 872 1022 q 909 1036 888 1048 l 937 1017 q 941 979 958 1005 l 305 -39 q 269 -52 289 -64 l 240 -34 z "},"¿":{"ha":689,"x_min":72,"x_max":635,"o":"m 72 -26 q 185 196 72 71 q 298 415 298 321 l 298 431 q 328 461 298 461 l 387 461 q 417 431 417 461 l 417 406 q 311 170 417 291 q 205 -30 205 49 q 243 -146 205 -113 q 350 -179 282 -179 q 462 -152 425 -179 q 519 -78 500 -125 q 564 -54 535 -41 l 614 -77 q 616 -136 635 -87 q 535 -231 597 -181 q 355 -281 473 -281 q 140 -211 209 -281 q 72 -26 72 -142 m 320 568 q 290 599 290 568 l 290 682 q 320 712 290 712 l 396 712 q 427 682 427 712 l 427 599 q 396 568 427 568 l 320 568 z "},"À":{"ha":922,"x_min":14,"x_max":908,"o":"m 50 0 q 31 45 14 0 l 369 931 q 414 972 385 972 l 509 972 q 553 931 538 972 l 891 45 q 873 0 908 0 l 804 0 q 755 33 768 0 l 670 258 l 252 258 l 168 33 q 119 0 155 0 l 50 0 m 295 369 l 627 369 l 524 640 q 495 724 509 678 q 463 855 481 770 l 460 855 q 427 724 441 770 q 399 640 413 678 l 295 369 z "},"Á":{"ha":922,"x_min":14,"x_max":908,"o":"m 50 0 q 31 45 14 0 l 369 931 q 414 972 385 972 l 509 972 q 553 931 538 972 l 891 45 q 873 0 908 0 l 804 0 q 755 33 768 0 l 670 258 l 252 258 l 168 33 q 119 0 155 0 l 50 0 m 295 369 l 627 369 l 524 640 q 495 724 509 678 q 463 855 481 770 l 460 855 q 427 724 441 770 q 399 640 413 678 l 295 369 z "},"Â":{"ha":922,"x_min":14,"x_max":908,"o":"m 212 1072 q 229 1106 201 1093 l 394 1183 q 437 1195 420 1195 l 485 1195 q 528 1183 502 1195 l 693 1106 q 711 1072 721 1093 l 695 1038 q 657 1029 685 1016 l 462 1118 l 460 1118 l 265 1029 q 227 1038 237 1016 l 212 1072 m 50 0 q 31 45 14 0 l 369 931 q 414 972 385 972 l 509 972 q 553 931 538 972 l 891 45 q 873 0 908 0 l 804 0 q 755 33 768 0 l 670 258 l 252 258 l 168 33 q 119 0 155 0 l 50 0 m 295 369 l 627 369 l 524 640 q 495 724 509 678 q 463 855 481 770 l 460 855 q 427 724 441 770 q 399 640 413 678 l 295 369 z "},"Ã":{"ha":922,"x_min":14,"x_max":908,"o":"m 217 1068 q 211 1099 201 1077 q 269 1172 230 1143 q 368 1201 308 1201 q 476 1168 419 1201 q 563 1135 533 1135 q 618 1153 595 1135 q 651 1188 640 1171 q 677 1200 664 1208 l 705 1183 q 711 1153 721 1175 q 653 1080 692 1109 q 554 1050 614 1050 q 446 1084 503 1050 q 359 1117 389 1117 q 304 1099 327 1117 q 271 1063 282 1080 q 245 1051 258 1044 l 217 1068 m 50 0 q 31 45 14 0 l 369 931 q 414 972 385 972 l 509 972 q 553 931 538 972 l 891 45 q 873 0 908 0 l 804 0 q 755 33 768 0 l 670 258 l 252 258 l 168 33 q 119 0 155 0 l 50 0 m 295 369 l 627 369 l 524 640 q 495 724 509 678 q 463 855 481 770 l 460 855 q 427 724 441 770 q 399 640 413 678 l 295 369 z "},"Ä":{"ha":922,"x_min":14,"x_max":908,"o":"m 50 0 q 31 45 14 0 l 369 931 q 414 972 385 972 l 509 972 q 553 931 538 972 l 891 45 q 873 0 908 0 l 804 0 q 755 33 768 0 l 670 258 l 252 258 l 168 33 q 119 0 155 0 l 50 0 m 295 369 l 627 369 l 524 640 q 495 724 509 678 q 463 855 481 770 l 460 855 q 427 724 441 770 q 399 640 413 678 l 295 369 m 268 1051 q 237 1082 237 1051 l 237 1144 q 268 1175 237 1175 l 330 1175 q 361 1144 361 1175 l 361 1082 q 330 1051 361 1051 l 268 1051 m 592 1051 q 562 1082 562 1051 l 562 1144 q 592 1175 562 1175 l 654 1175 q 685 1144 685 1175 l 685 1082 q 654 1051 685 1051 l 592 1051 z "},"Å":{"ha":922,"x_min":14,"x_max":908,"o":"m 338 1117 q 373 1201 338 1168 q 461 1234 408 1234 q 549 1200 514 1234 q 585 1117 585 1166 q 549 1034 585 1067 q 461 1000 514 1000 q 373 1033 408 1000 q 338 1117 338 1066 m 391 1117 q 410 1069 391 1088 q 461 1050 430 1050 q 512 1069 492 1050 q 532 1117 532 1088 q 512 1165 532 1145 q 461 1184 492 1184 q 410 1165 430 1184 q 391 1117 391 1145 m 50 0 q 31 45 14 0 l 369 931 q 414 972 385 972 l 509 972 q 553 931 538 972 l 891 45 q 873 0 908 0 l 804 0 q 755 33 768 0 l 670 258 l 252 258 l 168 33 q 119 0 155 0 l 50 0 m 295 369 l 627 369 l 524 640 q 495 724 509 678 q 463 855 481 770 l 460 855 q 427 724 441 770 q 399 640 413 678 l 295 369 z "},"Æ":{"ha":1327,"x_min":9,"x_max":1266,"o":"m 50 0 q 31 45 9 0 l 468 937 q 514 972 485 972 l 1208 972 q 1246 942 1246 972 l 1246 892 q 1208 861 1246 861 l 739 861 l 739 560 l 1168 560 q 1205 530 1205 560 l 1205 479 q 1168 449 1205 449 l 739 449 l 739 111 l 1229 111 q 1266 81 1266 111 l 1266 31 q 1229 0 1266 0 l 642 0 q 608 37 608 0 l 608 258 l 277 258 l 168 33 q 122 0 152 0 l 50 0 m 332 369 l 608 369 l 608 861 l 561 861 q 535 789 549 821 q 500 714 522 757 l 332 369 z "},"Ç":{"ha":951,"x_min":62,"x_max":896,"o":"m 62 486 q 180 858 62 724 q 518 993 298 993 q 731 949 647 993 q 852 829 815 905 q 846 775 871 790 l 792 744 q 744 770 765 728 q 671 850 722 812 q 525 887 620 887 q 278 782 355 887 q 201 486 201 676 q 278 191 201 296 q 525 85 355 85 q 681 130 623 85 q 766 224 740 175 q 815 248 787 263 l 871 216 q 876 161 896 201 q 745 32 836 83 q 518 -20 655 -20 q 180 114 298 -20 q 62 486 62 249 m 393 -269 q 383 -245 378 -264 l 390 -218 q 416 -205 395 -198 q 473 -214 444 -214 q 523 -203 505 -214 q 541 -168 541 -191 q 521 -138 541 -148 q 467 -128 500 -128 l 448 -128 q 432 -111 432 -128 q 439 -74 432 -85 l 482 0 q 509 15 491 15 l 550 15 q 563 0 572 15 l 525 -65 l 525 -67 q 602 -103 578 -71 q 625 -170 625 -135 q 585 -252 625 -222 q 478 -282 545 -282 q 393 -269 441 -282 z "},"È":{"ha":861,"x_min":115,"x_max":800,"o":"m 149 0 q 115 37 115 0 l 115 935 q 149 972 115 972 l 743 972 q 780 942 780 972 l 780 892 q 743 861 780 861 l 245 861 l 245 560 l 702 560 q 739 530 739 560 l 739 479 q 702 449 739 449 l 245 449 l 245 111 l 763 111 q 800 81 800 111 l 800 31 q 763 0 800 0 l 149 0 z "},"É":{"ha":861,"x_min":115,"x_max":800,"o":"m 149 0 q 115 37 115 0 l 115 935 q 149 972 115 972 l 743 972 q 780 942 780 972 l 780 892 q 743 861 780 861 l 245 861 l 245 560 l 702 560 q 739 530 739 560 l 739 479 q 702 449 739 449 l 245 449 l 245 111 l 763 111 q 800 81 800 111 l 800 31 q 763 0 800 0 l 149 0 z "},"Ê":{"ha":861,"x_min":115,"x_max":800,"o":"m 208 1072 q 226 1106 198 1093 l 391 1183 q 434 1195 417 1195 l 481 1195 q 525 1183 498 1195 l 690 1106 q 707 1072 718 1093 l 692 1038 q 654 1029 682 1016 l 458 1118 l 457 1118 l 262 1029 q 224 1038 234 1016 l 208 1072 m 149 0 q 115 37 115 0 l 115 935 q 149 972 115 972 l 743 972 q 780 942 780 972 l 780 892 q 743 861 780 861 l 245 861 l 245 560 l 702 560 q 739 530 739 560 l 739 479 q 702 449 739 449 l 245 449 l 245 111 l 763 111 q 800 81 800 111 l 800 31 q 763 0 800 0 l 149 0 z "},"Ë":{"ha":861,"x_min":115,"x_max":800,"o":"m 264 1051 q 234 1082 234 1051 l 234 1144 q 264 1175 234 1175 l 327 1175 q 357 1144 357 1175 l 357 1082 q 327 1051 357 1051 l 264 1051 m 589 1051 q 558 1082 558 1051 l 558 1144 q 589 1175 558 1175 l 651 1175 q 682 1144 682 1175 l 682 1082 q 651 1051 682 1051 l 589 1051 m 149 0 q 115 37 115 0 l 115 935 q 149 972 115 972 l 743 972 q 780 942 780 972 l 780 892 q 743 861 780 861 l 245 861 l 245 560 l 702 560 q 739 530 739 560 l 739 479 q 702 449 739 449 l 245 449 l 245 111 l 763 111 q 800 81 800 111 l 800 31 q 763 0 800 0 l 149 0 z "},"Ì":{"ha":361,"x_min":-20,"x_max":314,"o":"m 149 0 q 115 37 115 0 l 115 935 q 149 972 115 972 l 212 972 q 245 935 245 972 l 245 37 q 212 0 245 0 l 149 0 z "},"Í":{"ha":361,"x_min":47,"x_max":381,"o":"m 149 0 q 115 37 115 0 l 115 935 q 149 972 115 972 l 212 972 q 245 935 245 972 l 245 37 q 212 0 245 0 l 149 0 z "},"Î":{"ha":361,"x_min":-79,"x_max":440,"o":"m -69 1072 q -52 1106 -79 1093 l 113 1183 q 157 1195 140 1195 l 204 1195 q 248 1183 221 1195 l 412 1106 q 430 1072 440 1093 l 414 1038 q 376 1029 404 1016 l 181 1118 l 180 1118 l -16 1029 q -54 1038 -43 1016 l -69 1072 m 149 0 q 115 37 115 0 l 115 935 q 149 972 115 972 l 212 972 q 245 935 245 972 l 245 37 q 212 0 245 0 l 149 0 z "},"Ï":{"ha":361,"x_min":-15,"x_max":376,"o":"m 149 0 q 115 37 115 0 l 115 935 q 149 972 115 972 l 212 972 q 245 935 245 972 l 245 37 q 212 0 245 0 l 149 0 m 16 1051 q -15 1082 -15 1051 l -15 1144 q 16 1175 -15 1175 l 78 1175 q 109 1144 109 1175 l 109 1082 q 78 1051 109 1051 l 16 1051 m 283 1051 q 252 1082 252 1051 l 252 1144 q 283 1175 252 1175 l 345 1175 q 376 1144 376 1175 l 376 1082 q 345 1051 376 1051 l 283 1051 z "},"Ð":{"ha":1008,"x_min":27,"x_max":945,"o":"m 64 444 q 27 474 27 444 l 27 524 q 64 555 27 555 l 149 555 l 149 935 q 183 972 149 972 l 433 972 q 833 845 721 972 q 945 488 945 718 q 833 129 945 257 q 433 0 721 0 l 183 0 q 149 37 149 0 l 149 444 l 64 444 m 279 111 l 427 111 q 729 206 651 111 q 806 488 806 301 q 729 768 806 674 q 427 863 651 863 l 279 863 l 279 555 l 490 555 q 528 524 528 555 l 528 474 q 490 444 528 444 l 279 444 l 279 111 z "},"Ñ":{"ha":975,"x_min":115,"x_max":860,"o":"m 243 1068 q 237 1099 228 1077 q 295 1172 256 1143 q 395 1201 334 1201 q 503 1168 446 1201 q 589 1135 559 1135 q 644 1153 622 1135 q 677 1188 667 1171 q 703 1200 690 1208 l 732 1183 q 738 1153 747 1175 q 680 1080 719 1109 q 581 1050 641 1050 q 473 1084 530 1050 q 386 1117 416 1117 q 331 1099 353 1117 q 298 1063 309 1080 q 272 1051 285 1044 l 243 1068 m 149 0 q 115 37 115 0 l 115 935 q 149 972 115 972 l 236 972 q 304 939 283 972 l 728 227 l 731 227 q 730 281 730 254 l 730 935 q 764 972 730 972 l 826 972 q 860 935 860 972 l 860 37 q 826 0 860 0 l 766 0 q 699 34 719 0 l 247 789 l 244 789 q 245 734 245 762 l 245 37 q 212 0 245 0 l 149 0 z "},"Ò":{"ha":1034,"x_min":62,"x_max":971,"o":"m 62 486 q 179 858 62 724 q 517 993 296 993 q 854 858 737 993 q 971 486 971 724 q 854 114 971 249 q 517 -20 737 -20 q 179 114 296 -20 q 62 486 62 249 m 201 486 q 279 191 201 296 q 517 85 357 85 q 754 191 676 85 q 832 486 832 296 q 754 782 832 676 q 517 887 676 887 q 279 782 357 887 q 201 486 201 676 z "},"Ó":{"ha":1034,"x_min":62,"x_max":971,"o":"m 62 486 q 179 858 62 724 q 517 993 296 993 q 854 858 737 993 q 971 486 971 724 q 854 114 971 249 q 517 -20 737 -20 q 179 114 296 -20 q 62 486 62 249 m 201 486 q 279 191 201 296 q 517 85 357 85 q 754 191 676 85 q 832 486 832 296 q 754 782 832 676 q 517 887 676 887 q 279 782 357 887 q 201 486 201 676 m 422 1044 q 414 1080 383 1044 l 504 1185 q 559 1211 526 1211 l 665 1211 q 675 1175 718 1211 l 541 1064 q 486 1044 517 1044 l 422 1044 z "},"Ô":{"ha":1034,"x_min":62,"x_max":971,"o":"m 267 1072 q 285 1106 257 1093 l 450 1183 q 493 1195 476 1195 l 541 1195 q 584 1183 557 1195 l 749 1106 q 766 1072 777 1093 l 751 1038 q 713 1029 741 1016 l 517 1118 l 516 1118 l 321 1029 q 283 1038 293 1016 l 267 1072 m 62 486 q 179 858 62 724 q 517 993 296 993 q 854 858 737 993 q 971 486 971 724 q 854 114 971 249 q 517 -20 737 -20 q 179 114 296 -20 q 62 486 62 249 m 201 486 q 279 191 201 296 q 517 85 357 85 q 754 191 676 85 q 832 486 832 296 q 754 782 832 676 q 517 887 676 887 q 279 782 357 887 q 201 486 201 676 z "},"Õ":{"ha":1034,"x_min":62,"x_max":971,"o":"m 273 1068 q 267 1099 257 1077 q 325 1172 286 1143 q 424 1201 363 1201 q 532 1168 475 1201 q 618 1135 589 1135 q 673 1153 651 1135 q 707 1188 696 1171 q 732 1200 720 1208 l 761 1183 q 767 1153 777 1175 q 709 1080 748 1109 q 610 1050 670 1050 q 502 1084 559 1050 q 415 1117 445 1117 q 360 1099 382 1117 q 327 1063 338 1080 q 301 1051 314 1044 l 273 1068 m 62 486 q 179 858 62 724 q 517 993 296 993 q 854 858 737 993 q 971 486 971 724 q 854 114 971 249 q 517 -20 737 -20 q 179 114 296 -20 q 62 486 62 249 m 201 486 q 279 191 201 296 q 517 85 357 85 q 754 191 676 85 q 832 486 832 296 q 754 782 832 676 q 517 887 676 887 q 279 782 357 887 q 201 486 201 676 z "},"Ö":{"ha":1034,"x_min":62,"x_max":971,"o":"m 62 486 q 179 858 62 724 q 517 993 296 993 q 854 858 737 993 q 971 486 971 724 q 854 114 971 249 q 517 -20 737 -20 q 179 114 296 -20 q 62 486 62 249 m 201 486 q 279 191 201 296 q 517 85 357 85 q 754 191 676 85 q 832 486 832 296 q 754 782 832 676 q 517 887 676 887 q 279 782 357 887 q 201 486 201 676 m 323 1051 q 293 1082 293 1051 l 293 1144 q 323 1175 293 1175 l 386 1175 q 416 1144 416 1175 l 416 1082 q 386 1051 416 1051 l 323 1051 m 648 1051 q 617 1082 617 1051 l 617 1144 q 648 1175 617 1175 l 710 1175 q 741 1144 741 1175 l 741 1082 q 710 1051 741 1051 l 648 1051 z "},"×":{"ha":868,"x_min":136,"x_max":731,"o":"m 153 235 q 157 273 136 252 l 375 491 l 157 709 q 153 747 136 731 l 177 771 q 215 766 194 788 l 433 549 l 652 768 q 690 772 673 789 l 714 749 q 709 710 731 732 l 490 491 l 709 273 q 714 234 730 251 l 690 210 q 652 215 673 193 l 433 434 l 215 216 q 177 212 193 195 l 153 235 z "},"Ø":{"ha":1034,"x_min":35,"x_max":999,"o":"m 62 486 q 179 858 62 724 q 517 993 296 993 q 817 896 704 993 l 899 987 q 946 994 924 1015 l 977 966 q 975 918 999 946 l 884 819 q 971 486 971 690 q 854 114 971 249 q 517 -20 737 -20 q 217 77 330 -20 l 135 -14 q 87 -21 110 -42 l 57 6 q 59 54 35 26 l 149 154 q 62 486 62 282 m 201 486 q 241 257 201 350 l 734 805 q 517 887 657 887 q 279 782 357 887 q 201 486 201 676 m 299 168 q 517 85 376 85 q 754 191 676 85 q 832 486 832 296 q 792 715 832 623 l 299 168 z "},"Ù":{"ha":951,"x_min":115,"x_max":836,"o":"m 115 371 l 115 935 q 149 972 115 972 l 212 972 q 245 935 245 972 l 245 391 q 299 143 245 201 q 475 85 353 85 q 651 143 597 85 q 705 391 705 201 l 705 935 q 739 972 705 972 l 802 972 q 836 935 836 972 l 836 371 q 737 68 836 156 q 475 -20 638 -20 q 214 68 313 -20 q 115 371 115 156 z "},"Ú":{"ha":951,"x_min":115,"x_max":836,"o":"m 115 371 l 115 935 q 149 972 115 972 l 212 972 q 245 935 245 972 l 245 391 q 299 143 245 201 q 475 85 353 85 q 651 143 597 85 q 705 391 705 201 l 705 935 q 739 972 705 972 l 802 972 q 836 935 836 972 l 836 371 q 737 68 836 156 q 475 -20 638 -20 q 214 68 313 -20 q 115 371 115 156 z "},"Û":{"ha":951,"x_min":115,"x_max":836,"o":"m 226 1072 q 243 1106 216 1093 l 408 1183 q 452 1195 435 1195 l 499 1195 q 543 1183 516 1195 l 707 1106 q 725 1072 735 1093 l 709 1038 q 671 1029 699 1016 l 476 1118 l 475 1118 l 279 1029 q 241 1038 252 1016 l 226 1072 m 115 371 l 115 935 q 149 972 115 972 l 212 972 q 245 935 245 972 l 245 391 q 299 143 245 201 q 475 85 353 85 q 651 143 597 85 q 705 391 705 201 l 705 935 q 739 972 705 972 l 802 972 q 836 935 836 972 l 836 371 q 737 68 836 156 q 475 -20 638 -20 q 214 68 313 -20 q 115 371 115 156 z "},"Ü":{"ha":951,"x_min":115,"x_max":836,"o":"m 282 1051 q 252 1082 252 1051 l 252 1144 q 282 1175 252 1175 l 345 1175 q 375 1144 375 1175 l 375 1082 q 345 1051 375 1051 l 282 1051 m 606 1051 q 576 1082 576 1051 l 576 1144 q 606 1175 576 1175 l 669 1175 q 699 1144 699 1175 l 699 1082 q 669 1051 699 1051 l 606 1051 m 115 371 l 115 935 q 149 972 115 972 l 212 972 q 245 935 245 972 l 245 391 q 299 143 245 201 q 475 85 353 85 q 651 143 597 85 q 705 391 705 201 l 705 935 q 739 972 705 972 l 802 972 q 836 935 836 972 l 836 371 q 737 68 836 156 q 475 -20 638 -20 q 214 68 313 -20 q 115 371 115 156 z "},"Ý":{"ha":883,"x_min":7,"x_max":876,"o":"m 37 928 q 55 972 7 972 l 131 972 q 180 939 161 972 l 352 643 q 401 558 380 594 q 440 481 421 522 l 443 481 q 482 558 462 522 q 531 643 503 594 l 703 939 q 752 972 722 972 l 828 972 q 846 928 876 972 l 507 400 l 507 37 q 473 0 507 0 l 410 0 q 376 37 376 0 l 376 400 l 37 928 z "},"Þ":{"ha":844,"x_min":115,"x_max":780,"o":"m 149 -5 q 115 32 115 -5 l 115 936 q 149 973 115 973 l 212 973 q 245 936 245 973 l 245 798 l 380 798 q 682 730 583 798 q 780 513 780 662 q 682 296 780 363 q 380 228 583 228 l 245 228 l 245 32 q 212 -5 245 -5 l 149 -5 m 245 339 l 392 339 q 577 375 514 339 q 641 513 641 411 q 577 650 641 614 q 392 686 514 686 l 245 686 l 245 339 z "},"ß":{"ha":825,"x_min":96,"x_max":757,"o":"m 127 0 q 96 31 96 0 l 96 772 q 184 961 96 909 q 397 1013 273 1013 q 603 949 531 1013 q 675 800 675 885 q 635 659 675 716 q 503 543 595 601 l 503 541 q 689 444 621 524 q 757 255 757 364 q 694 61 757 134 q 502 -12 631 -12 q 396 -2 437 -12 q 320 33 355 7 q 312 69 298 49 l 340 109 q 384 107 354 128 q 429 87 397 98 q 496 77 460 77 q 594 124 557 77 q 631 259 631 171 q 570 410 631 364 q 398 456 510 456 q 385 473 390 456 l 361 547 q 370 569 357 559 l 425 606 q 517 686 479 644 q 556 795 556 728 q 518 891 556 857 q 404 924 480 924 q 272 887 328 924 q 216 753 216 850 l 216 31 q 185 0 216 0 l 127 0 z "},"à":{"ha":724,"x_min":58,"x_max":627,"o":"m 58 190 q 171 367 58 311 q 508 433 283 423 l 508 479 q 479 589 508 543 q 365 635 450 635 q 278 625 311 635 q 219 597 245 614 q 168 553 192 580 q 133 551 149 532 l 98 591 q 108 632 83 608 q 178 683 144 666 q 262 712 212 700 q 365 724 313 724 q 567 651 507 724 q 627 451 627 578 l 627 31 q 597 0 627 0 l 536 0 q 509 31 509 0 l 509 64 l 508 64 q 403 5 454 22 q 289 -12 352 -12 q 118 42 178 -12 q 58 190 58 95 m 181 187 q 199 120 181 145 q 248 87 216 94 q 313 80 279 80 q 412 90 365 80 q 508 144 458 100 l 508 344 q 313 319 371 334 q 218 269 254 304 q 181 187 181 233 z "},"á":{"ha":724,"x_min":58,"x_max":627,"o":"m 58 190 q 171 367 58 311 q 508 433 283 423 l 508 479 q 479 589 508 543 q 365 635 450 635 q 278 625 311 635 q 219 597 245 614 q 168 553 192 580 q 133 551 149 532 l 98 591 q 108 632 83 608 q 178 683 144 666 q 262 712 212 700 q 365 724 313 724 q 567 651 507 724 q 627 451 627 578 l 627 31 q 597 0 627 0 l 536 0 q 509 31 509 0 l 509 64 l 508 64 q 403 5 454 22 q 289 -12 352 -12 q 118 42 178 -12 q 58 190 58 95 m 181 187 q 199 120 181 145 q 248 87 216 94 q 313 80 279 80 q 412 90 365 80 q 508 144 458 100 l 508 344 q 313 319 371 334 q 218 269 254 304 q 181 187 181 233 z "},"â":{"ha":724,"x_min":58,"x_max":627,"o":"m 58 190 q 171 367 58 311 q 508 433 283 423 l 508 479 q 479 589 508 543 q 365 635 450 635 q 278 625 311 635 q 219 597 245 614 q 168 553 192 580 q 133 551 149 532 l 98 591 q 108 632 83 608 q 178 683 144 666 q 262 712 212 700 q 365 724 313 724 q 567 651 507 724 q 627 451 627 578 l 627 31 q 597 0 627 0 l 536 0 q 509 31 509 0 l 509 64 l 508 64 q 403 5 454 22 q 289 -12 352 -12 q 118 42 178 -12 q 58 190 58 95 m 181 187 q 199 120 181 145 q 248 87 216 94 q 313 80 279 80 q 412 90 365 80 q 508 144 458 100 l 508 344 q 313 319 371 334 q 218 269 254 304 q 181 187 181 233 z "},"ã":{"ha":724,"x_min":58,"x_max":627,"o":"m 58 190 q 171 367 58 311 q 508 433 283 423 l 508 479 q 479 589 508 543 q 365 635 450 635 q 278 625 311 635 q 219 597 245 614 q 168 553 192 580 q 133 551 149 532 l 98 591 q 108 632 83 608 q 178 683 144 666 q 262 712 212 700 q 365 724 313 724 q 567 651 507 724 q 627 451 627 578 l 627 31 q 597 0 627 0 l 536 0 q 509 31 509 0 l 509 64 l 508 64 q 403 5 454 22 q 289 -12 352 -12 q 118 42 178 -12 q 58 190 58 95 m 181 187 q 199 120 181 145 q 248 87 216 94 q 313 80 279 80 q 412 90 365 80 q 508 144 458 100 l 508 344 q 313 319 371 334 q 218 269 254 304 q 181 187 181 233 z "},"ä":{"ha":724,"x_min":58,"x_max":627,"o":"m 58 190 q 171 367 58 311 q 508 433 283 423 l 508 479 q 479 589 508 543 q 365 635 450 635 q 278 625 311 635 q 219 597 245 614 q 168 553 192 580 q 133 551 149 532 l 98 591 q 108 632 83 608 q 178 683 144 666 q 262 712 212 700 q 365 724 313 724 q 567 651 507 724 q 627 451 627 578 l 627 31 q 597 0 627 0 l 536 0 q 509 31 509 0 l 509 64 l 508 64 q 403 5 454 22 q 289 -12 352 -12 q 118 42 178 -12 q 58 190 58 95 m 181 187 q 199 120 181 145 q 248 87 216 94 q 313 80 279 80 q 412 90 365 80 q 508 144 458 100 l 508 344 q 313 319 371 334 q 218 269 254 304 q 181 187 181 233 m 176 841 q 145 871 145 841 l 145 930 q 176 960 145 960 l 234 960 q 264 930 264 960 l 264 871 q 234 841 264 841 l 176 841 m 451 841 q 420 871 420 841 l 420 930 q 451 960 420 960 l 509 960 q 540 930 540 960 l 540 871 q 509 841 540 841 l 451 841 z "},"å":{"ha":724,"x_min":58,"x_max":627,"o":"m 58 190 q 171 367 58 311 q 508 433 283 423 l 508 479 q 479 589 508 543 q 365 635 450 635 q 278 625 311 635 q 219 597 245 614 q 168 553 192 580 q 133 551 149 532 l 98 591 q 108 632 83 608 q 178 683 144 666 q 262 712 212 700 q 365 724 313 724 q 567 651 507 724 q 627 451 627 578 l 627 31 q 597 0 627 0 l 536 0 q 509 31 509 0 l 509 64 l 508 64 q 403 5 454 22 q 289 -12 352 -12 q 118 42 178 -12 q 58 190 58 95 m 181 187 q 199 120 181 145 q 248 87 216 94 q 313 80 279 80 q 412 90 365 80 q 508 144 458 100 l 508 344 q 313 319 371 334 q 218 269 254 304 q 181 187 181 233 z "},"æ":{"ha":1173,"x_min":58,"x_max":1112,"o":"m 58 190 q 169 367 58 311 q 501 433 280 423 l 501 479 q 472 589 501 543 q 361 635 444 635 q 267 622 299 635 q 213 594 235 609 q 168 553 191 579 q 133 551 149 532 l 98 591 q 108 632 83 608 q 172 679 138 661 q 259 710 205 696 q 361 724 313 724 q 487 703 430 724 q 579 619 545 683 l 581 619 q 695 704 635 684 q 816 724 755 724 q 1027 632 942 724 q 1112 341 1112 541 q 1084 311 1112 311 l 623 311 q 691 129 634 180 q 821 77 749 77 q 938 104 897 77 q 998 156 979 130 q 1040 167 1020 184 l 1080 132 q 1080 95 1096 119 q 1007 32 1067 75 q 821 -12 947 -12 q 675 14 736 -12 q 565 106 614 40 l 564 106 q 420 15 487 41 q 286 -12 354 -12 q 118 42 178 -12 q 58 190 58 95 m 181 187 q 192 130 181 152 q 228 94 203 108 q 309 80 253 80 q 420 96 374 80 q 515 158 465 113 q 501 344 501 248 q 306 317 366 334 q 214 265 247 300 q 181 187 181 229 m 621 399 l 992 399 q 945 565 989 494 q 813 637 900 637 q 684 584 737 637 q 621 399 631 532 z "},"ç":{"ha":696,"x_min":58,"x_max":658,"o":"m 58 356 q 137 620 58 515 q 378 724 216 724 q 546 685 488 724 q 630 605 604 646 q 624 569 644 583 l 581 541 q 541 559 561 527 q 485 613 521 591 q 378 635 450 635 q 235 567 286 635 q 184 356 184 498 q 235 145 184 214 q 378 77 286 77 q 494 105 454 77 q 552 168 534 134 q 592 186 570 200 l 637 159 q 644 123 658 147 q 567 41 627 94 q 378 -12 507 -12 q 137 93 216 -12 q 58 356 58 197 m 250 -269 q 240 -245 235 -264 l 247 -218 q 273 -205 252 -198 q 330 -214 301 -214 q 380 -203 362 -214 q 398 -168 398 -191 q 378 -138 398 -148 q 324 -128 357 -128 l 305 -128 q 289 -111 289 -128 q 296 -74 289 -85 l 339 0 q 366 15 348 15 l 407 15 q 420 0 429 15 l 382 -65 l 382 -67 q 459 -103 435 -71 q 482 -170 482 -135 q 442 -252 482 -222 q 335 -282 401 -282 q 250 -269 298 -282 z "},"è":{"ha":745,"x_min":58,"x_max":684,"o":"m 58 356 q 142 624 58 524 q 382 724 226 724 q 598 632 513 724 q 684 341 684 541 q 656 311 684 311 l 184 311 q 254 129 195 180 q 388 77 313 77 q 509 104 467 77 q 570 156 551 130 q 612 167 592 184 l 652 132 q 652 95 668 119 q 579 32 640 75 q 388 -12 518 -12 q 138 88 218 -12 q 58 356 58 188 m 181 399 l 564 399 q 515 565 562 494 q 380 637 469 637 q 246 584 301 637 q 181 399 191 532 z "},"é":{"ha":745,"x_min":58,"x_max":684,"o":"m 58 356 q 142 624 58 524 q 382 724 226 724 q 598 632 513 724 q 684 341 684 541 q 656 311 684 311 l 184 311 q 254 129 195 180 q 388 77 313 77 q 509 104 467 77 q 570 156 551 130 q 612 167 592 184 l 652 132 q 652 95 668 119 q 579 32 640 75 q 388 -12 518 -12 q 138 88 218 -12 q 58 356 58 188 m 181 399 l 564 399 q 515 565 562 494 q 380 637 469 637 q 246 584 301 637 q 181 399 191 532 z "},"ê":{"ha":745,"x_min":58,"x_max":684,"o":"m 58 356 q 142 624 58 524 q 382 724 226 724 q 598 632 513 724 q 684 341 684 541 q 656 311 684 311 l 184 311 q 254 129 195 180 q 388 77 313 77 q 509 104 467 77 q 570 156 551 130 q 612 167 592 184 l 652 132 q 652 95 668 119 q 579 32 640 75 q 388 -12 518 -12 q 138 88 218 -12 q 58 356 58 188 m 181 399 l 564 399 q 515 565 562 494 q 380 637 469 637 q 246 584 301 637 q 181 399 191 532 z "},"ë":{"ha":745,"x_min":58,"x_max":684,"o":"m 205 841 q 175 871 175 841 l 175 930 q 205 960 175 960 l 264 960 q 294 930 294 960 l 294 871 q 264 841 294 841 l 205 841 m 481 841 q 450 871 450 841 l 450 930 q 481 960 450 960 l 539 960 q 570 930 570 960 l 570 871 q 539 841 570 841 l 481 841 m 58 356 q 142 624 58 524 q 382 724 226 724 q 598 632 513 724 q 684 341 684 541 q 656 311 684 311 l 184 311 q 254 129 195 180 q 388 77 313 77 q 509 104 467 77 q 570 156 551 130 q 612 167 592 184 l 652 132 q 652 95 668 119 q 579 32 640 75 q 388 -12 518 -12 q 138 88 218 -12 q 58 356 58 188 m 181 399 l 564 399 q 515 565 562 494 q 380 637 469 637 q 246 584 301 637 q 181 399 191 532 z "},"ì":{"ha":312,"x_min":-14,"x_max":277,"o":"m 127 0 q 96 31 96 0 l 96 682 q 127 712 96 712 l 185 712 q 216 682 216 712 l 216 31 q 185 0 216 0 l 127 0 z "},"í":{"ha":312,"x_min":35,"x_max":326,"o":"m 127 0 q 96 31 96 0 l 96 682 q 127 712 96 712 l 185 712 q 216 682 216 712 l 216 31 q 185 0 216 0 l 127 0 z "},"î":{"ha":312,"x_min":-62,"x_max":374,"o":"m 127 0 q 96 31 96 0 l 96 682 q 127 712 96 712 l 185 712 q 216 682 216 712 l 216 31 q 185 0 216 0 l 127 0 z "},"ï":{"ha":312,"x_min":-17,"x_max":329,"o":"m 127 0 q 96 31 96 0 l 96 682 q 127 712 96 712 l 185 712 q 216 682 216 712 l 216 31 q 185 0 216 0 l 127 0 m 14 841 q -17 871 -17 841 l -17 930 q 14 960 -17 960 l 72 960 q 102 930 102 960 l 102 871 q 72 841 102 841 l 14 841 m 240 841 q 210 871 210 841 l 210 930 q 240 960 210 960 l 298 960 q 329 930 329 960 l 329 871 q 298 841 329 841 l 240 841 z "},"ð":{"ha":782,"x_min":58,"x_max":722,"o":"m 58 351 q 139 606 58 500 q 360 712 220 712 q 485 690 432 712 q 569 636 538 669 l 575 636 q 497 764 549 705 q 417 846 444 823 l 293 783 q 255 791 264 768 l 243 822 q 259 857 234 844 l 347 902 q 288 932 325 916 q 272 967 258 946 l 292 1000 q 338 1006 304 1019 q 444 951 404 982 l 535 998 q 573 991 564 1013 l 585 960 q 569 924 594 937 l 513 895 q 652 699 583 836 q 722 397 722 562 q 642 106 722 224 q 389 -12 562 -12 q 142 95 227 -12 q 58 351 58 201 m 184 351 q 240 144 184 212 q 389 77 296 77 q 538 146 482 77 q 595 351 595 216 q 538 548 595 473 q 389 624 482 624 q 240 555 296 624 q 184 351 184 486 z "},"ñ":{"ha":765,"x_min":96,"x_max":670,"o":"m 127 0 q 96 31 96 0 l 96 682 q 127 712 96 712 l 184 712 q 214 682 214 712 l 214 627 l 217 627 q 312 700 261 676 q 439 724 363 724 q 616 654 562 724 q 670 464 670 585 l 670 31 q 640 0 670 0 l 581 0 q 551 31 551 0 l 551 431 q 507 600 551 564 q 395 635 463 635 q 261 583 307 635 q 216 403 216 530 l 216 31 q 185 0 216 0 l 127 0 z "},"ò":{"ha":779,"x_min":58,"x_max":721,"o":"m 58 356 q 142 620 58 515 q 389 724 227 724 q 636 620 552 724 q 721 356 721 515 q 636 93 721 197 q 389 -12 552 -12 q 142 93 227 -12 q 58 356 58 197 m 184 356 q 240 145 184 214 q 389 77 296 77 q 538 145 482 77 q 595 356 595 214 q 538 567 595 498 q 389 635 482 635 q 240 567 296 635 q 184 356 184 498 z "},"ó":{"ha":779,"x_min":58,"x_max":721,"o":"m 58 356 q 142 620 58 515 q 389 724 227 724 q 636 620 552 724 q 721 356 721 515 q 636 93 721 197 q 389 -12 552 -12 q 142 93 227 -12 q 58 356 58 197 m 184 356 q 240 145 184 214 q 389 77 296 77 q 538 145 482 77 q 595 356 595 214 q 538 567 595 498 q 389 635 482 635 q 240 567 296 635 q 184 356 184 498 m 302 780 q 294 816 269 780 l 389 948 q 444 973 406 973 l 519 973 q 528 938 559 973 l 408 800 q 353 780 391 780 l 302 780 z "},"ô":{"ha":779,"x_min":58,"x_max":721,"o":"m 58 356 q 142 620 58 515 q 389 724 227 724 q 636 620 552 724 q 721 356 721 515 q 636 93 721 197 q 389 -12 552 -12 q 142 93 227 -12 q 58 356 58 197 m 184 356 q 240 145 184 214 q 389 77 296 77 q 538 145 482 77 q 595 356 595 214 q 538 567 595 498 q 389 635 482 635 q 240 567 296 635 q 184 356 184 498 z "},"õ":{"ha":779,"x_min":58,"x_max":721,"o":"m 58 356 q 142 620 58 515 q 389 724 227 724 q 636 620 552 724 q 721 356 721 515 q 636 93 721 197 q 389 -12 552 -12 q 142 93 227 -12 q 58 356 58 197 m 184 356 q 240 145 184 214 q 389 77 296 77 q 538 145 482 77 q 595 356 595 214 q 538 567 595 498 q 389 635 482 635 q 240 567 296 635 q 184 356 184 498 z "},"ö":{"ha":779,"x_min":58,"x_max":721,"o":"m 58 356 q 142 620 58 515 q 389 724 227 724 q 636 620 552 724 q 721 356 721 515 q 636 93 721 197 q 389 -12 552 -12 q 142 93 227 -12 q 58 356 58 197 m 184 356 q 240 145 184 214 q 389 77 296 77 q 538 145 482 77 q 595 356 595 214 q 538 567 595 498 q 389 635 482 635 q 240 567 296 635 q 184 356 184 498 m 222 841 q 192 871 192 841 l 192 930 q 222 960 192 960 l 281 960 q 311 930 311 960 l 311 871 q 281 841 311 841 l 222 841 m 498 841 q 467 871 467 841 l 467 930 q 498 960 467 960 l 556 960 q 587 930 587 960 l 587 871 q 556 841 587 841 l 498 841 z "},"÷":{"ha":868,"x_min":54,"x_max":814,"o":"m 396 159 q 366 190 366 159 l 366 273 q 396 303 366 303 l 472 303 q 503 273 503 303 l 503 190 q 472 159 503 159 l 396 159 m 396 680 q 366 711 366 680 l 366 793 q 396 824 366 824 l 472 824 q 503 793 503 824 l 503 711 q 472 680 503 680 l 396 680 m 85 451 q 54 475 54 451 l 54 509 q 85 532 54 532 l 783 532 q 814 509 814 532 l 814 475 q 783 451 814 451 l 85 451 z "},"ø":{"ha":779,"x_min":35,"x_max":744,"o":"m 58 356 q 142 620 58 515 q 389 724 227 724 q 605 652 524 724 l 658 709 q 696 715 679 731 l 726 688 q 723 649 744 671 l 662 584 q 721 356 721 490 q 636 93 721 197 q 389 -12 552 -12 q 174 60 254 -12 l 121 3 q 82 -3 100 -19 l 52 24 q 56 63 35 41 l 117 128 q 58 356 58 223 m 184 356 q 201 220 184 276 l 532 574 q 389 635 477 635 q 240 567 296 635 q 184 356 184 498 m 246 138 q 389 77 301 77 q 538 145 482 77 q 595 356 595 214 q 577 492 595 435 l 246 138 z "},"ù":{"ha":760,"x_min":95,"x_max":663,"o":"m 95 248 l 95 682 q 125 712 95 712 l 184 712 q 214 682 214 712 l 214 281 q 258 112 214 148 q 368 77 302 77 q 498 129 453 77 q 544 309 544 182 l 544 682 q 574 712 544 712 l 633 712 q 663 682 663 712 l 663 31 q 633 0 663 0 l 576 0 q 545 31 545 0 l 545 85 l 543 85 q 448 12 498 36 q 323 -12 397 -12 q 150 58 205 -12 q 95 248 95 127 z "},"ú":{"ha":760,"x_min":95,"x_max":663,"o":"m 95 248 l 95 682 q 125 712 95 712 l 184 712 q 214 682 214 712 l 214 281 q 258 112 214 148 q 368 77 302 77 q 498 129 453 77 q 544 309 544 182 l 544 682 q 574 712 544 712 l 633 712 q 663 682 663 712 l 663 31 q 633 0 663 0 l 576 0 q 545 31 545 0 l 545 85 l 543 85 q 448 12 498 36 q 323 -12 397 -12 q 150 58 205 -12 q 95 248 95 127 z "},"û":{"ha":760,"x_min":95,"x_max":663,"o":"m 95 248 l 95 682 q 125 712 95 712 l 184 712 q 214 682 214 712 l 214 281 q 258 112 214 148 q 368 77 302 77 q 498 129 453 77 q 544 309 544 182 l 544 682 q 574 712 544 712 l 633 712 q 663 682 663 712 l 663 31 q 633 0 663 0 l 576 0 q 545 31 545 0 l 545 85 l 543 85 q 448 12 498 36 q 323 -12 397 -12 q 150 58 205 -12 q 95 248 95 127 z "},"ü":{"ha":760,"x_min":95,"x_max":663,"o":"m 95 248 l 95 682 q 125 712 95 712 l 184 712 q 214 682 214 712 l 214 281 q 258 112 214 148 q 368 77 302 77 q 498 129 453 77 q 544 309 544 182 l 544 682 q 574 712 544 712 l 633 712 q 663 682 663 712 l 663 31 q 633 0 663 0 l 576 0 q 545 31 545 0 l 545 85 l 543 85 q 448 12 498 36 q 323 -12 397 -12 q 150 58 205 -12 q 95 248 95 127 z "},"ý":{"ha":671,"x_min":22,"x_max":653,"o":"m 35 679 q 53 712 22 712 l 127 712 q 157 686 149 712 l 300 238 q 318 181 306 220 q 336 111 331 142 l 338 111 q 351 166 343 142 q 374 238 359 191 l 518 686 q 549 712 527 712 l 623 712 q 641 679 653 712 l 412 41 q 297 -211 348 -138 q 145 -283 246 -283 q 61 -267 92 -283 q 52 -246 47 -260 l 69 -191 q 87 -183 74 -177 q 141 -195 115 -195 q 218 -143 189 -195 q 266 -41 248 -92 l 279 -1 l 35 679 z "},"þ":{"ha":759,"x_min":96,"x_max":701,"o":"m 127 -271 q 96 -241 96 -271 l 96 970 q 127 1001 96 1001 l 185 1001 q 216 970 216 1001 l 216 669 q 214 627 216 648 l 216 627 q 300 698 253 672 q 425 724 347 724 q 631 613 560 724 q 701 356 701 502 q 631 99 701 210 q 425 -12 560 -12 q 300 14 347 -12 q 216 85 253 40 l 214 85 q 216 43 216 64 l 216 -241 q 185 -271 216 -271 l 127 -271 m 216 278 q 264 126 216 176 q 386 77 313 77 q 532 154 489 77 q 575 356 575 231 q 532 558 575 481 q 386 635 489 635 q 264 586 313 635 q 216 434 216 536 l 216 278 z "},"ÿ":{"ha":671,"x_min":22,"x_max":653,"o":"m 35 679 q 53 712 22 712 l 127 712 q 157 686 149 712 l 300 238 q 318 181 306 220 q 336 111 331 142 l 338 111 q 351 166 343 142 q 374 238 359 191 l 518 686 q 549 712 527 712 l 623 712 q 641 679 653 712 l 412 41 q 297 -211 348 -138 q 145 -283 246 -283 q 61 -267 92 -283 q 52 -246 47 -260 l 69 -191 q 87 -183 74 -177 q 141 -195 115 -195 q 218 -143 189 -195 q 266 -41 248 -92 l 279 -1 l 35 679 z "},"Ā":{"ha":922,"x_min":14,"x_max":908,"o":"m 50 0 q 31 45 14 0 l 369 931 q 414 972 385 972 l 509 972 q 553 931 538 972 l 891 45 q 873 0 908 0 l 804 0 q 755 33 768 0 l 670 258 l 252 258 l 168 33 q 119 0 155 0 l 50 0 m 295 369 l 627 369 l 524 640 q 495 724 509 678 q 463 855 481 770 l 460 855 q 427 724 441 770 q 399 640 413 678 l 295 369 z "},"ā":{"ha":724,"x_min":58,"x_max":627,"o":"m 58 190 q 171 367 58 311 q 508 433 283 423 l 508 479 q 479 589 508 543 q 365 635 450 635 q 278 625 311 635 q 219 597 245 614 q 168 553 192 580 q 133 551 149 532 l 98 591 q 108 632 83 608 q 178 683 144 666 q 262 712 212 700 q 365 724 313 724 q 567 651 507 724 q 627 451 627 578 l 627 31 q 597 0 627 0 l 536 0 q 509 31 509 0 l 509 64 l 508 64 q 403 5 454 22 q 289 -12 352 -12 q 118 42 178 -12 q 58 190 58 95 m 181 187 q 199 120 181 145 q 248 87 216 94 q 313 80 279 80 q 412 90 365 80 q 508 144 458 100 l 508 344 q 313 319 371 334 q 218 269 254 304 q 181 187 181 233 z "},"Ă":{"ha":922,"x_min":14,"x_max":908,"o":"m 221 1202 q 230 1243 208 1233 l 263 1258 q 300 1244 286 1267 q 360 1179 323 1206 q 461 1152 397 1152 q 562 1179 525 1152 q 623 1244 600 1206 q 659 1258 637 1267 l 692 1243 q 701 1202 715 1233 q 602 1087 667 1124 q 461 1050 537 1050 q 320 1087 385 1050 q 221 1202 255 1124 m 50 0 q 31 45 14 0 l 369 931 q 414 972 385 972 l 509 972 q 553 931 538 972 l 891 45 q 873 0 908 0 l 804 0 q 755 33 768 0 l 670 258 l 252 258 l 168 33 q 119 0 155 0 l 50 0 m 295 369 l 627 369 l 524 640 q 495 724 509 678 q 463 855 481 770 l 460 855 q 427 724 441 770 q 399 640 413 678 l 295 369 z "},"ă":{"ha":724,"x_min":58,"x_max":627,"o":"m 58 190 q 171 367 58 311 q 508 433 283 423 l 508 479 q 479 589 508 543 q 365 635 450 635 q 278 625 311 635 q 219 597 245 614 q 168 553 192 580 q 133 551 149 532 l 98 591 q 108 632 83 608 q 178 683 144 666 q 262 712 212 700 q 365 724 313 724 q 567 651 507 724 q 627 451 627 578 l 627 31 q 597 0 627 0 l 536 0 q 509 31 509 0 l 509 64 l 508 64 q 403 5 454 22 q 289 -12 352 -12 q 118 42 178 -12 q 58 190 58 95 m 181 187 q 199 120 181 145 q 248 87 216 94 q 313 80 279 80 q 412 90 365 80 q 508 144 458 100 l 508 344 q 313 319 371 334 q 218 269 254 304 q 181 187 181 233 z "},"Ą":{"ha":922,"x_min":14,"x_max":904,"o":"m 50 0 q 31 45 14 0 l 369 931 q 414 972 385 972 l 509 972 q 553 931 538 972 l 891 45 q 885 0 904 10 q 800 -62 846 -22 q 755 -143 755 -103 q 768 -182 755 -169 q 810 -195 782 -195 q 864 -190 844 -195 q 881 -203 878 -186 l 890 -256 q 878 -275 892 -273 q 794 -283 833 -283 q 681 -249 715 -283 q 646 -173 646 -214 q 662 -103 646 -131 q 697 -57 677 -75 q 753 -11 717 -39 q 755 33 768 0 l 670 258 l 252 258 l 168 33 q 119 0 155 0 l 50 0 m 295 369 l 627 369 l 524 640 q 495 724 509 678 q 463 855 481 770 l 460 855 q 427 724 441 770 q 399 640 413 678 l 295 369 z "},"ą":{"ha":724,"x_min":58,"x_max":629,"o":"m 58 190 q 171 367 58 311 q 508 433 283 423 l 508 479 q 479 589 508 543 q 365 635 450 635 q 278 625 311 635 q 219 597 245 614 q 168 553 192 580 q 133 551 149 532 l 98 591 q 108 632 83 608 q 178 683 144 666 q 262 712 212 700 q 365 724 313 724 q 567 651 507 724 q 627 451 627 578 l 627 31 q 616 0 627 10 q 521 -78 551 -47 q 491 -143 491 -109 q 507 -182 491 -170 q 546 -195 523 -195 q 600 -190 580 -195 q 617 -203 614 -186 l 626 -256 q 614 -275 629 -273 q 530 -283 570 -283 q 417 -249 452 -283 q 382 -173 382 -214 q 397 -107 382 -137 q 437 -54 412 -77 q 498 -4 462 -31 q 509 31 509 5 l 509 64 l 508 64 q 403 5 454 22 q 289 -12 352 -12 q 118 42 178 -12 q 58 190 58 95 m 181 187 q 199 120 181 145 q 248 87 216 94 q 313 80 279 80 q 412 90 365 80 q 508 144 458 100 l 508 344 q 313 319 371 334 q 218 269 254 304 q 181 187 181 233 z "},"Ć":{"ha":951,"x_min":62,"x_max":896,"o":"m 62 486 q 180 858 62 724 q 518 993 298 993 q 731 949 647 993 q 852 829 815 905 q 846 775 871 790 l 792 744 q 744 770 765 728 q 671 850 722 812 q 525 887 620 887 q 278 782 355 887 q 201 486 201 676 q 278 191 201 296 q 525 85 355 85 q 681 130 623 85 q 766 224 740 175 q 815 248 787 263 l 871 216 q 876 161 896 201 q 745 32 836 83 q 518 -20 655 -20 q 180 114 298 -20 q 62 486 62 249 z "},"ć":{"ha":696,"x_min":58,"x_max":658,"o":"m 58 356 q 137 620 58 515 q 378 724 216 724 q 546 685 488 724 q 630 605 604 646 q 624 569 644 583 l 581 541 q 541 559 561 527 q 485 613 521 591 q 378 635 450 635 q 235 567 286 635 q 184 356 184 498 q 235 145 184 214 q 378 77 286 77 q 494 105 454 77 q 552 168 534 134 q 592 186 570 200 l 637 159 q 644 123 658 147 q 567 41 627 94 q 378 -12 507 -12 q 137 93 216 -12 q 58 356 58 197 z "},"Ĉ":{"ha":951,"x_min":62,"x_max":896,"o":"m 269 1072 q 286 1106 258 1093 l 451 1183 q 494 1195 477 1195 l 542 1195 q 585 1183 559 1195 l 750 1106 q 768 1072 778 1093 l 752 1038 q 714 1029 742 1016 l 519 1118 l 517 1118 l 322 1029 q 284 1038 294 1016 l 269 1072 m 62 486 q 180 858 62 724 q 518 993 298 993 q 731 949 647 993 q 852 829 815 905 q 846 775 871 790 l 792 744 q 744 770 765 728 q 671 850 722 812 q 525 887 620 887 q 278 782 355 887 q 201 486 201 676 q 278 191 201 296 q 525 85 355 85 q 681 130 623 85 q 766 224 740 175 q 815 248 787 263 l 871 216 q 876 161 896 201 q 745 32 836 83 q 518 -20 655 -20 q 180 114 298 -20 q 62 486 62 249 z "},"ĉ":{"ha":696,"x_min":58,"x_max":658,"o":"m 58 356 q 137 620 58 515 q 378 724 216 724 q 546 685 488 724 q 630 605 604 646 q 624 569 644 583 l 581 541 q 541 559 561 527 q 485 613 521 591 q 378 635 450 635 q 235 567 286 635 q 184 356 184 498 q 235 145 184 214 q 378 77 286 77 q 494 105 454 77 q 552 168 534 134 q 592 186 570 200 l 637 159 q 644 123 658 147 q 567 41 627 94 q 378 -12 507 -12 q 137 93 216 -12 q 58 356 58 197 z "},"Ċ":{"ha":951,"x_min":62,"x_max":896,"o":"m 484 1048 q 453 1078 453 1048 l 453 1147 q 484 1178 453 1178 l 553 1178 q 583 1147 583 1178 l 583 1078 q 553 1048 583 1048 l 484 1048 m 62 486 q 180 858 62 724 q 518 993 298 993 q 731 949 647 993 q 852 829 815 905 q 846 775 871 790 l 792 744 q 744 770 765 728 q 671 850 722 812 q 525 887 620 887 q 278 782 355 887 q 201 486 201 676 q 278 191 201 296 q 525 85 355 85 q 681 130 623 85 q 766 224 740 175 q 815 248 787 263 l 871 216 q 876 161 896 201 q 745 32 836 83 q 518 -20 655 -20 q 180 114 298 -20 q 62 486 62 249 z "},"ċ":{"ha":696,"x_min":58,"x_max":658,"o":"m 58 356 q 137 620 58 515 q 378 724 216 724 q 546 685 488 724 q 630 605 604 646 q 624 569 644 583 l 581 541 q 541 559 561 527 q 485 613 521 591 q 378 635 450 635 q 235 567 286 635 q 184 356 184 498 q 235 145 184 214 q 378 77 286 77 q 494 105 454 77 q 552 168 534 134 q 592 186 570 200 l 637 159 q 644 123 658 147 q 567 41 627 94 q 378 -12 507 -12 q 137 93 216 -12 q 58 356 58 197 z "},"Č":{"ha":951,"x_min":62,"x_max":896,"o":"m 286 1113 q 269 1147 258 1126 l 284 1181 q 322 1190 294 1203 l 517 1101 l 519 1101 l 714 1190 q 752 1181 742 1203 l 768 1147 q 750 1113 778 1126 l 585 1036 q 542 1024 559 1024 l 494 1024 q 451 1036 477 1024 l 286 1113 m 62 486 q 180 858 62 724 q 518 993 298 993 q 731 949 647 993 q 852 829 815 905 q 846 775 871 790 l 792 744 q 744 770 765 728 q 671 850 722 812 q 525 887 620 887 q 278 782 355 887 q 201 486 201 676 q 278 191 201 296 q 525 85 355 85 q 681 130 623 85 q 766 224 740 175 q 815 248 787 263 l 871 216 q 876 161 896 201 q 745 32 836 83 q 518 -20 655 -20 q 180 114 298 -20 q 62 486 62 249 z "},"č":{"ha":696,"x_min":58,"x_max":658,"o":"m 58 356 q 137 620 58 515 q 378 724 216 724 q 546 685 488 724 q 630 605 604 646 q 624 569 644 583 l 581 541 q 541 559 561 527 q 485 613 521 591 q 378 635 450 635 q 235 567 286 635 q 184 356 184 498 q 235 145 184 214 q 378 77 286 77 q 494 105 454 77 q 552 168 534 134 q 592 186 570 200 l 637 159 q 644 123 658 147 q 567 41 627 94 q 378 -12 507 -12 q 137 93 216 -12 q 58 356 58 197 z "},"Ď":{"ha":974,"x_min":115,"x_max":911,"o":"m 251 1113 q 233 1147 223 1126 l 249 1181 q 287 1190 259 1203 l 482 1101 l 484 1101 l 679 1190 q 717 1181 707 1203 l 732 1147 q 715 1113 743 1126 l 550 1036 q 507 1024 524 1024 l 459 1024 q 416 1036 442 1024 l 251 1113 m 149 0 q 115 37 115 0 l 115 935 q 149 972 115 972 l 399 972 q 799 845 687 972 q 911 488 911 718 q 799 129 911 257 q 399 0 687 0 l 149 0 m 245 111 l 393 111 q 695 206 617 111 q 772 488 772 301 q 695 768 772 674 q 393 863 617 863 l 245 863 l 245 111 z "},"ď":{"ha":913,"x_min":58,"x_max":898,"o":"m 755 782 q 751 816 739 791 q 770 866 762 839 q 779 939 779 892 l 779 970 q 809 1001 779 1001 l 867 1001 q 898 970 898 1001 l 898 949 q 880 846 898 887 q 831 771 862 804 q 798 760 812 752 l 755 782 m 58 356 q 128 613 58 502 q 334 724 199 724 q 459 698 412 724 q 543 627 506 672 l 545 627 q 543 669 543 648 l 543 970 q 574 1001 543 1001 l 632 1001 q 663 970 663 1001 l 663 31 q 632 0 663 0 l 575 0 q 549 31 551 0 l 545 85 l 543 85 q 459 14 506 40 q 334 -12 412 -12 q 128 99 199 -12 q 58 356 58 210 m 184 356 q 227 154 184 231 q 373 77 270 77 q 495 126 446 77 q 543 278 543 176 l 543 434 q 495 586 543 536 q 373 635 446 635 q 227 558 270 635 q 184 356 184 481 z "},"Đ":{"ha":1008,"x_min":27,"x_max":945,"o":"m 64 444 q 27 474 27 444 l 27 524 q 64 555 27 555 l 149 555 l 149 935 q 183 972 149 972 l 433 972 q 833 845 721 972 q 945 488 945 718 q 833 129 945 257 q 433 0 721 0 l 183 0 q 149 37 149 0 l 149 444 l 64 444 m 279 111 l 427 111 q 729 206 651 111 q 806 488 806 301 q 729 768 806 674 q 427 863 651 863 l 279 863 l 279 555 l 490 555 q 528 524 528 555 l 528 474 q 490 444 528 444 l 279 444 l 279 111 z "},"đ":{"ha":784,"x_min":58,"x_max":770,"o":"m 58 356 q 128 613 58 502 q 334 724 199 724 q 459 698 412 724 q 543 627 506 672 l 545 627 q 543 669 543 648 l 543 819 l 334 819 q 304 843 304 819 l 304 885 q 334 909 304 909 l 543 909 l 543 970 q 574 1001 543 1001 l 632 1001 q 663 970 663 1001 l 663 909 l 740 909 q 770 885 770 909 l 770 843 q 740 819 770 819 l 663 819 l 663 31 q 632 0 663 0 l 575 0 q 549 31 551 0 l 545 85 l 543 85 q 459 14 506 40 q 334 -12 412 -12 q 128 99 199 -12 q 58 356 58 210 m 184 356 q 227 154 184 231 q 373 77 270 77 q 495 126 446 77 q 543 278 543 176 l 543 434 q 495 586 543 536 q 373 635 446 635 q 227 558 270 635 q 184 356 184 481 z "},"Ē":{"ha":861,"x_min":115,"x_max":800,"o":"m 149 0 q 115 37 115 0 l 115 935 q 149 972 115 972 l 743 972 q 780 942 780 972 l 780 892 q 743 861 780 861 l 245 861 l 245 560 l 702 560 q 739 530 739 560 l 739 479 q 702 449 739 449 l 245 449 l 245 111 l 763 111 q 800 81 800 111 l 800 31 q 763 0 800 0 l 149 0 z "},"ē":{"ha":745,"x_min":58,"x_max":684,"o":"m 58 356 q 142 624 58 524 q 382 724 226 724 q 598 632 513 724 q 684 341 684 541 q 656 311 684 311 l 184 311 q 254 129 195 180 q 388 77 313 77 q 509 104 467 77 q 570 156 551 130 q 612 167 592 184 l 652 132 q 652 95 668 119 q 579 32 640 75 q 388 -12 518 -12 q 138 88 218 -12 q 58 356 58 188 m 181 399 l 564 399 q 515 565 562 494 q 380 637 469 637 q 246 584 301 637 q 181 399 191 532 z "},"Ĕ":{"ha":861,"x_min":115,"x_max":800,"o":"m 218 1202 q 227 1243 204 1233 l 260 1258 q 296 1244 282 1267 q 357 1179 319 1206 q 458 1152 394 1152 q 559 1179 522 1152 q 619 1244 596 1206 q 656 1258 633 1267 l 689 1243 q 698 1202 711 1233 q 599 1087 664 1124 q 458 1050 534 1050 q 317 1087 382 1050 q 218 1202 252 1124 m 149 0 q 115 37 115 0 l 115 935 q 149 972 115 972 l 743 972 q 780 942 780 972 l 780 892 q 743 861 780 861 l 245 861 l 245 560 l 702 560 q 739 530 739 560 l 739 479 q 702 449 739 449 l 245 449 l 245 111 l 763 111 q 800 81 800 111 l 800 31 q 763 0 800 0 l 149 0 z "},"ĕ":{"ha":745,"x_min":58,"x_max":684,"o":"m 58 356 q 142 624 58 524 q 382 724 226 724 q 598 632 513 724 q 684 341 684 541 q 656 311 684 311 l 184 311 q 254 129 195 180 q 388 77 313 77 q 509 104 467 77 q 570 156 551 130 q 612 167 592 184 l 652 132 q 652 95 668 119 q 579 32 640 75 q 388 -12 518 -12 q 138 88 218 -12 q 58 356 58 188 m 181 399 l 564 399 q 515 565 562 494 q 380 637 469 637 q 246 584 301 637 q 181 399 191 532 z "},"Ė":{"ha":861,"x_min":115,"x_max":800,"o":"m 423 1048 q 393 1078 393 1048 l 393 1147 q 423 1178 393 1178 l 492 1178 q 523 1147 523 1178 l 523 1078 q 492 1048 523 1048 l 423 1048 m 149 0 q 115 37 115 0 l 115 935 q 149 972 115 972 l 743 972 q 780 942 780 972 l 780 892 q 743 861 780 861 l 245 861 l 245 560 l 702 560 q 739 530 739 560 l 739 479 q 702 449 739 449 l 245 449 l 245 111 l 763 111 q 800 81 800 111 l 800 31 q 763 0 800 0 l 149 0 z "},"ė":{"ha":745,"x_min":58,"x_max":684,"o":"m 58 356 q 142 624 58 524 q 382 724 226 724 q 598 632 513 724 q 684 341 684 541 q 656 311 684 311 l 184 311 q 254 129 195 180 q 388 77 313 77 q 509 104 467 77 q 570 156 551 130 q 612 167 592 184 l 652 132 q 652 95 668 119 q 579 32 640 75 q 388 -12 518 -12 q 138 88 218 -12 q 58 356 58 188 m 181 399 l 564 399 q 515 565 562 494 q 380 637 469 637 q 246 584 301 637 q 181 399 191 532 z "},"Ę":{"ha":861,"x_min":115,"x_max":800,"o":"m 149 0 q 115 37 115 0 l 115 935 q 149 972 115 972 l 743 972 q 780 942 780 972 l 780 892 q 743 861 780 861 l 245 861 l 245 560 l 702 560 q 739 530 739 560 l 739 479 q 702 449 739 449 l 245 449 l 245 111 l 763 111 q 800 81 800 111 l 800 31 q 763 0 800 0 l 758 0 q 682 -54 738 -7 q 627 -143 627 -100 q 643 -182 627 -170 q 682 -195 659 -195 q 736 -190 715 -195 q 753 -203 750 -186 l 762 -256 q 749 -275 764 -273 q 666 -283 705 -283 q 553 -249 587 -283 q 518 -173 518 -214 q 533 -107 518 -137 q 573 -52 547 -77 q 636 -1 600 -28 l 636 1 q 582 0 609 0 l 149 0 z "},"ę":{"ha":745,"x_min":58,"x_max":684,"o":"m 58 356 q 142 624 58 524 q 382 724 226 724 q 598 632 513 724 q 684 341 684 541 q 656 311 684 311 l 184 311 q 254 129 195 180 q 388 77 313 77 q 509 104 467 77 q 570 156 551 130 q 612 167 592 184 l 652 132 q 652 95 671 117 q 610 54 631 70 q 560 20 589 38 q 472 -61 522 -16 q 422 -143 422 -105 q 438 -182 422 -170 q 477 -195 454 -195 q 532 -190 511 -195 q 549 -203 546 -186 l 557 -256 q 545 -275 560 -273 q 462 -283 501 -283 q 349 -249 383 -283 q 314 -173 314 -214 q 329 -107 314 -137 q 363 -58 343 -77 q 420 -12 384 -39 l 420 -10 q 388 -12 404 -12 q 138 88 218 -12 q 58 356 58 188 m 181 399 l 564 399 q 515 565 562 494 q 380 637 469 637 q 246 584 301 637 q 181 399 191 532 z "},"Ě":{"ha":861,"x_min":115,"x_max":800,"o":"m 226 1113 q 208 1147 198 1126 l 224 1181 q 262 1190 234 1203 l 457 1101 l 458 1101 l 654 1190 q 692 1181 682 1203 l 707 1147 q 690 1113 718 1126 l 525 1036 q 481 1024 498 1024 l 434 1024 q 391 1036 417 1024 l 226 1113 m 149 0 q 115 37 115 0 l 115 935 q 149 972 115 972 l 743 972 q 780 942 780 972 l 780 892 q 743 861 780 861 l 245 861 l 245 560 l 702 560 q 739 530 739 560 l 739 479 q 702 449 739 449 l 245 449 l 245 111 l 763 111 q 800 81 800 111 l 800 31 q 763 0 800 0 l 149 0 z "},"ě":{"ha":745,"x_min":58,"x_max":684,"o":"m 58 356 q 142 624 58 524 q 382 724 226 724 q 598 632 513 724 q 684 341 684 541 q 656 311 684 311 l 184 311 q 254 129 195 180 q 388 77 313 77 q 509 104 467 77 q 570 156 551 130 q 612 167 592 184 l 652 132 q 652 95 668 119 q 579 32 640 75 q 388 -12 518 -12 q 138 88 218 -12 q 58 356 58 188 m 181 399 l 564 399 q 515 565 562 494 q 380 637 469 637 q 246 584 301 637 q 181 399 191 532 z "},"Ĝ":{"ha":997,"x_min":62,"x_max":916,"o":"m 277 1072 q 294 1106 267 1093 l 459 1183 q 503 1195 486 1195 l 550 1195 q 593 1183 567 1195 l 758 1106 q 776 1072 786 1093 l 760 1038 q 722 1029 750 1016 l 527 1118 l 526 1118 l 330 1029 q 292 1038 302 1016 l 277 1072 m 62 486 q 185 858 62 724 q 526 993 308 993 q 740 948 657 993 q 861 842 823 903 q 861 787 885 804 l 810 751 q 760 772 785 734 q 683 845 739 803 q 533 887 627 887 q 284 782 367 887 q 201 486 201 676 q 282 191 201 296 q 540 85 363 85 q 693 107 628 85 q 785 166 759 128 l 785 346 l 584 346 q 547 376 547 346 l 547 427 q 584 457 547 457 l 878 457 q 916 427 916 457 l 916 106 q 750 13 833 46 q 533 -20 667 -20 q 186 114 309 -20 q 62 486 62 249 z "},"ĝ":{"ha":759,"x_min":58,"x_max":663,"o":"m 58 356 q 128 613 58 502 q 334 724 199 724 q 459 698 412 724 q 543 627 506 672 l 545 627 l 549 682 q 575 712 551 712 l 632 712 q 663 682 663 712 l 663 -5 q 603 -209 663 -136 q 366 -283 543 -283 q 188 -256 247 -283 q 104 -199 129 -229 q 102 -161 85 -177 l 139 -125 q 182 -134 155 -110 q 252 -181 218 -167 q 366 -195 285 -195 q 501 -155 458 -195 q 543 7 543 -116 l 543 48 q 545 90 543 69 l 543 90 q 460 16 508 43 q 334 -12 412 -12 q 128 99 199 -12 q 58 356 58 210 m 184 356 q 227 154 184 231 q 373 77 270 77 q 495 126 446 77 q 543 278 543 176 l 543 434 q 495 586 543 536 q 373 635 446 635 q 227 558 270 635 q 184 356 184 481 z "},"Ğ":{"ha":997,"x_min":62,"x_max":916,"o":"m 286 1202 q 295 1243 273 1233 l 328 1258 q 365 1244 351 1267 q 425 1179 388 1206 q 526 1152 463 1152 q 627 1179 590 1152 q 688 1244 665 1206 q 724 1258 702 1267 l 758 1243 q 766 1202 780 1233 q 667 1087 732 1124 q 526 1050 602 1050 q 385 1087 450 1050 q 286 1202 320 1124 m 62 486 q 185 858 62 724 q 526 993 308 993 q 740 948 657 993 q 861 842 823 903 q 861 787 885 804 l 810 751 q 760 772 785 734 q 683 845 739 803 q 533 887 627 887 q 284 782 367 887 q 201 486 201 676 q 282 191 201 296 q 540 85 363 85 q 693 107 628 85 q 785 166 759 128 l 785 346 l 584 346 q 547 376 547 346 l 547 427 q 584 457 547 457 l 878 457 q 916 427 916 457 l 916 106 q 750 13 833 46 q 533 -20 667 -20 q 186 114 309 -20 q 62 486 62 249 z "},"ğ":{"ha":759,"x_min":58,"x_max":663,"o":"m 58 356 q 128 613 58 502 q 334 724 199 724 q 459 698 412 724 q 543 627 506 672 l 545 627 l 549 682 q 575 712 551 712 l 632 712 q 663 682 663 712 l 663 -5 q 603 -209 663 -136 q 366 -283 543 -283 q 188 -256 247 -283 q 104 -199 129 -229 q 102 -161 85 -177 l 139 -125 q 182 -134 155 -110 q 252 -181 218 -167 q 366 -195 285 -195 q 501 -155 458 -195 q 543 7 543 -116 l 543 48 q 545 90 543 69 l 543 90 q 460 16 508 43 q 334 -12 412 -12 q 128 99 199 -12 q 58 356 58 210 m 184 356 q 227 154 184 231 q 373 77 270 77 q 495 126 446 77 q 543 278 543 176 l 543 434 q 495 586 543 536 q 373 635 446 635 q 227 558 270 635 q 184 356 184 481 z "},"Ġ":{"ha":997,"x_min":62,"x_max":916,"o":"m 492 1048 q 461 1078 461 1048 l 461 1147 q 492 1178 461 1178 l 561 1178 q 591 1147 591 1178 l 591 1078 q 561 1048 591 1048 l 492 1048 m 62 486 q 185 858 62 724 q 526 993 308 993 q 740 948 657 993 q 861 842 823 903 q 861 787 885 804 l 810 751 q 760 772 785 734 q 683 845 739 803 q 533 887 627 887 q 284 782 367 887 q 201 486 201 676 q 282 191 201 296 q 540 85 363 85 q 693 107 628 85 q 785 166 759 128 l 785 346 l 584 346 q 547 376 547 346 l 547 427 q 584 457 547 457 l 878 457 q 916 427 916 457 l 916 106 q 750 13 833 46 q 533 -20 667 -20 q 186 114 309 -20 q 62 486 62 249 z "},"ġ":{"ha":759,"x_min":58,"x_max":663,"o":"m 58 356 q 128 613 58 502 q 334 724 199 724 q 459 698 412 724 q 543 627 506 672 l 545 627 l 549 682 q 575 712 551 712 l 632 712 q 663 682 663 712 l 663 -5 q 603 -209 663 -136 q 366 -283 543 -283 q 188 -256 247 -283 q 104 -199 129 -229 q 102 -161 85 -177 l 139 -125 q 182 -134 155 -110 q 252 -181 218 -167 q 366 -195 285 -195 q 501 -155 458 -195 q 543 7 543 -116 l 543 48 q 545 90 543 69 l 543 90 q 460 16 508 43 q 334 -12 412 -12 q 128 99 199 -12 q 58 356 58 210 m 184 356 q 227 154 184 231 q 373 77 270 77 q 495 126 446 77 q 543 278 543 176 l 543 434 q 495 586 543 536 q 373 635 446 635 q 227 558 270 635 q 184 356 184 481 z "},"Ĥ":{"ha":964,"x_min":115,"x_max":849,"o":"m 233 1072 q 250 1106 222 1093 l 415 1183 q 458 1195 441 1195 l 506 1195 q 549 1183 523 1195 l 714 1106 q 732 1072 742 1093 l 716 1038 q 678 1029 706 1016 l 483 1118 l 481 1118 l 286 1029 q 248 1038 258 1016 l 233 1072 m 149 0 q 115 37 115 0 l 115 935 q 149 972 115 972 l 212 972 q 245 935 245 972 l 245 562 l 719 562 l 719 935 q 753 972 719 972 l 815 972 q 849 935 849 972 l 849 37 q 815 0 849 0 l 753 0 q 719 37 719 0 l 719 450 l 245 450 l 245 37 q 212 0 245 0 l 149 0 z "},"ĥ":{"ha":765,"x_min":96,"x_max":670,"o":"m 127 0 q 96 31 96 0 l 96 970 q 127 1001 96 1001 l 185 1001 q 216 970 216 1001 l 216 668 q 214 627 216 648 l 217 627 q 312 700 261 676 q 439 724 363 724 q 616 654 562 724 q 670 464 670 585 l 670 31 q 640 0 670 0 l 581 0 q 551 31 551 0 l 551 431 q 507 600 551 564 q 395 635 463 635 q 261 583 307 635 q 216 403 216 530 l 216 31 q 185 0 216 0 l 127 0 z "},"ħ":{"ha":812,"x_min":20,"x_max":718,"o":"m 51 819 q 20 843 20 819 l 20 885 q 51 909 20 909 l 144 909 l 144 970 q 174 1001 144 1001 l 233 1001 q 263 970 263 1001 l 263 909 l 509 909 q 540 885 540 909 l 540 843 q 509 819 540 819 l 263 819 l 263 668 q 262 627 263 648 l 264 627 q 359 700 309 676 q 486 724 410 724 q 664 654 610 724 q 718 464 718 585 l 718 31 q 687 0 718 0 l 629 0 q 598 31 598 0 l 598 431 q 554 600 598 564 q 442 635 510 635 q 309 583 354 635 q 263 403 263 530 l 263 31 q 233 0 263 0 l 174 0 q 144 31 144 0 l 144 819 l 51 819 z "},"Ĩ":{"ha":361,"x_min":-79,"x_max":440,"o":"m -64 1068 q -70 1099 -79 1077 q -12 1172 -51 1143 q 87 1201 27 1201 q 195 1168 138 1201 q 282 1135 252 1135 q 337 1153 315 1135 q 370 1188 359 1171 q 396 1200 383 1208 l 425 1183 q 431 1153 440 1175 q 373 1080 412 1109 q 273 1050 334 1050 q 165 1084 222 1050 q 79 1117 109 1117 q 24 1099 46 1117 q -9 1063 1 1080 q -35 1051 -22 1044 l -64 1068 m 149 0 q 115 37 115 0 l 115 935 q 149 972 115 972 l 212 972 q 245 935 245 972 l 245 37 q 212 0 245 0 l 149 0 z "},"ĩ":{"ha":312,"x_min":-67,"x_max":379,"o":"m 127 0 q 96 31 96 0 l 96 682 q 127 712 96 712 l 185 712 q 216 682 216 712 l 216 31 q 185 0 216 0 l 127 0 z "},"Ī":{"ha":361,"x_min":-67,"x_max":428,"o":"m 149 0 q 115 37 115 0 l 115 935 q 149 972 115 972 l 212 972 q 245 935 245 972 l 245 37 q 212 0 245 0 l 149 0 z "},"ī":{"ha":312,"x_min":-54,"x_max":366,"o":"m 127 0 q 96 31 96 0 l 96 682 q 127 712 96 712 l 185 712 q 216 682 216 712 l 216 31 q 185 0 216 0 l 127 0 z "},"Ĭ":{"ha":361,"x_min":-73,"x_max":434,"o":"m -60 1202 q -51 1243 -73 1233 l -18 1258 q 19 1244 5 1267 q 79 1179 42 1206 q 180 1152 117 1152 q 281 1179 244 1152 q 342 1244 319 1206 q 378 1258 356 1267 l 412 1243 q 420 1202 434 1233 q 321 1087 387 1124 q 180 1050 256 1050 q 39 1087 104 1050 q -60 1202 -26 1124 m 149 0 q 115 37 115 0 l 115 935 q 149 972 115 972 l 212 972 q 245 935 245 972 l 245 37 q 212 0 245 0 l 149 0 z "},"ĭ":{"ha":312,"x_min":-68,"x_max":380,"o":"m 127 0 q 96 31 96 0 l 96 682 q 127 712 96 712 l 185 712 q 216 682 216 712 l 216 31 q 185 0 216 0 l 127 0 z "},"İ":{"ha":361,"x_min":115,"x_max":245,"o":"m 146 1048 q 115 1078 115 1048 l 115 1147 q 146 1178 115 1178 l 215 1178 q 245 1147 245 1178 l 245 1078 q 215 1048 245 1048 l 146 1048 m 149 0 q 115 37 115 0 l 115 935 q 149 972 115 972 l 212 972 q 245 935 245 972 l 245 37 q 212 0 245 0 l 149 0 z "},"ı":{"ha":312,"x_min":96,"x_max":216,"o":"m 127 0 q 96 31 96 0 l 96 682 q 127 712 96 712 l 185 712 q 216 682 216 712 l 216 31 q 185 0 216 0 l 127 0 z "},"Ĵ":{"ha":559,"x_min":14,"x_max":638,"o":"m 129 1072 q 146 1106 119 1093 l 311 1183 q 355 1195 338 1195 l 402 1195 q 446 1183 419 1195 l 610 1106 q 628 1072 638 1093 l 612 1038 q 574 1029 602 1016 l 379 1118 l 378 1118 l 182 1029 q 144 1038 155 1016 l 129 1072 m 45 20 q 26 64 14 37 l 49 112 q 98 121 64 144 q 208 85 153 85 q 294 130 274 85 q 313 256 313 174 l 313 935 q 347 972 313 972 l 410 972 q 444 935 444 972 l 444 272 q 401 59 444 138 q 205 -20 359 -20 q 45 20 120 -20 z "},"ĵ":{"ha":316,"x_min":-72,"x_max":378,"o":"m -57 -269 q -69 -248 -72 -262 l -58 -193 q -41 -182 -54 -176 q 24 -195 -14 -195 q 82 -155 64 -195 q 100 4 100 -116 l 100 682 q 131 712 100 712 l 189 712 q 220 682 220 712 l 220 -63 q 170 -239 220 -195 q 46 -283 120 -283 q -57 -269 -26 -283 z "},"Ĺ":{"ha":770,"x_min":115,"x_max":732,"o":"m 149 0 q 115 37 115 0 l 115 935 q 149 972 115 972 l 212 972 q 245 935 245 972 l 245 111 l 695 111 q 732 81 732 111 l 732 31 q 695 0 732 0 l 149 0 z "},"ĺ":{"ha":312,"x_min":35,"x_max":326,"o":"m 127 0 q 96 31 96 0 l 96 877 q 103 903 96 890 l 151 989 q 172 1013 163 1013 l 195 1013 q 216 989 216 1013 l 216 31 q 185 0 216 0 l 127 0 z "},"Ľ":{"ha":770,"x_min":115,"x_max":732,"o":"m 444 782 q 439 816 427 791 q 459 866 451 839 q 467 939 467 892 l 467 970 q 498 1001 467 1001 l 556 1001 q 587 970 587 1001 l 587 949 q 569 846 587 887 q 519 771 551 804 q 486 760 501 752 l 444 782 m 149 0 q 115 37 115 0 l 115 935 q 149 972 115 972 l 212 972 q 245 935 245 972 l 245 111 l 695 111 q 732 81 732 111 l 732 31 q 695 0 732 0 l 149 0 z "},"ľ":{"ha":464,"x_min":96,"x_max":451,"o":"m 309 782 q 304 816 292 791 q 323 866 315 839 q 332 939 332 892 l 332 970 q 362 1001 332 1001 l 420 1001 q 451 970 451 1001 l 451 949 q 433 846 451 887 q 384 771 415 804 q 351 760 366 752 l 309 782 m 127 0 q 96 31 96 0 l 96 877 q 103 903 96 890 l 151 989 q 172 1013 163 1013 l 195 1013 q 216 989 216 1013 l 216 31 q 185 0 216 0 l 127 0 z "},"Ł":{"ha":842,"x_min":41,"x_max":804,"o":"m 78 304 q 41 314 41 279 l 41 391 q 64 434 41 418 l 186 516 l 186 935 q 220 972 186 972 l 283 972 q 317 935 317 972 l 317 660 q 315 606 317 633 l 318 606 l 500 728 q 537 718 537 753 l 537 641 q 513 598 537 614 l 317 466 l 317 111 l 766 111 q 804 81 804 111 l 804 31 q 766 0 804 0 l 220 0 q 186 37 186 0 l 186 322 q 188 376 186 349 l 185 376 l 78 304 z "},"ł":{"ha":448,"x_min":27,"x_max":420,"o":"m 58 349 q 27 356 27 326 l 27 422 q 50 464 27 448 l 164 547 l 164 877 q 171 903 164 890 l 218 989 q 239 1013 231 1013 l 263 1013 q 283 989 283 1011 l 283 680 q 282 639 283 659 l 283 639 l 390 717 q 420 709 420 739 l 420 642 q 398 602 420 618 l 283 518 l 283 31 q 253 0 283 0 l 195 0 q 164 31 164 0 l 164 386 q 165 427 164 406 l 164 427 l 58 349 z "},"Ń":{"ha":975,"x_min":115,"x_max":860,"o":"m 149 0 q 115 37 115 0 l 115 935 q 149 972 115 972 l 236 972 q 304 939 283 972 l 728 227 l 731 227 q 730 281 730 254 l 730 935 q 764 972 730 972 l 826 972 q 860 935 860 972 l 860 37 q 826 0 860 0 l 766 0 q 699 34 719 0 l 247 789 l 244 789 q 245 734 245 762 l 245 37 q 212 0 245 0 l 149 0 z "},"ń":{"ha":765,"x_min":96,"x_max":670,"o":"m 127 0 q 96 31 96 0 l 96 682 q 127 712 96 712 l 184 712 q 214 682 214 712 l 214 627 l 217 627 q 312 700 261 676 q 439 724 363 724 q 616 654 562 724 q 670 464 670 585 l 670 31 q 640 0 670 0 l 581 0 q 551 31 551 0 l 551 431 q 507 600 551 564 q 395 635 463 635 q 261 583 307 635 q 216 403 216 530 l 216 31 q 185 0 216 0 l 127 0 z "},"Ň":{"ha":975,"x_min":115,"x_max":860,"o":"m 256 1113 q 238 1147 228 1126 l 254 1181 q 292 1190 264 1203 l 487 1101 l 488 1101 l 684 1190 q 722 1181 711 1203 l 737 1147 q 720 1113 747 1126 l 555 1036 q 511 1024 528 1024 l 464 1024 q 420 1036 447 1024 l 256 1113 m 149 0 q 115 37 115 0 l 115 935 q 149 972 115 972 l 236 972 q 304 939 283 972 l 728 227 l 731 227 q 730 281 730 254 l 730 935 q 764 972 730 972 l 826 972 q 860 935 860 972 l 860 37 q 826 0 860 0 l 766 0 q 699 34 719 0 l 247 789 l 244 789 q 245 734 245 762 l 245 37 q 212 0 245 0 l 149 0 z "},"ň":{"ha":765,"x_min":96,"x_max":670,"o":"m 127 0 q 96 31 96 0 l 96 682 q 127 712 96 712 l 184 712 q 214 682 214 712 l 214 627 l 217 627 q 312 700 261 676 q 439 724 363 724 q 616 654 562 724 q 670 464 670 585 l 670 31 q 640 0 670 0 l 581 0 q 551 31 551 0 l 551 431 q 507 600 551 564 q 395 635 463 635 q 261 583 307 635 q 216 403 216 530 l 216 31 q 185 0 216 0 l 127 0 z "},"Ŋ":{"ha":964,"x_min":115,"x_max":849,"o":"m 149 0 q 115 37 115 0 l 115 935 q 149 972 115 972 l 205 972 q 239 935 237 972 l 244 847 l 247 847 q 382 958 298 922 q 551 993 467 993 q 773 917 697 993 q 849 700 849 841 l 849 -5 q 791 -221 849 -160 q 618 -283 732 -283 q 494 -259 555 -283 q 475 -220 467 -248 l 490 -172 q 536 -157 499 -140 q 614 -177 578 -177 q 693 -142 667 -177 q 719 26 719 -107 l 719 640 q 672 830 719 773 q 494 887 625 887 q 328 824 410 887 q 245 593 245 761 l 245 37 q 212 0 245 0 l 149 0 z "},"ŋ":{"ha":765,"x_min":96,"x_max":670,"o":"m 127 0 q 96 31 96 0 l 96 682 q 127 712 96 712 l 184 712 q 214 682 214 712 l 214 627 l 217 627 q 312 700 261 676 q 439 724 363 724 q 616 654 562 724 q 670 464 670 585 l 670 -63 q 620 -239 670 -195 q 496 -283 570 -283 q 393 -269 425 -283 q 381 -248 378 -262 l 393 -193 q 410 -182 396 -176 q 475 -195 436 -195 q 533 -155 515 -195 q 551 4 551 -116 l 551 431 q 507 600 551 564 q 395 635 463 635 q 261 583 307 635 q 216 403 216 530 l 216 31 q 185 0 216 0 l 127 0 z "},"Ō":{"ha":1034,"x_min":62,"x_max":971,"o":"m 62 486 q 179 858 62 724 q 517 993 296 993 q 854 858 737 993 q 971 486 971 724 q 854 114 971 249 q 517 -20 737 -20 q 179 114 296 -20 q 62 486 62 249 m 201 486 q 279 191 201 296 q 517 85 357 85 q 754 191 676 85 q 832 486 832 296 q 754 782 832 676 q 517 887 676 887 q 279 782 357 887 q 201 486 201 676 z "},"ō":{"ha":779,"x_min":58,"x_max":721,"o":"m 58 356 q 142 620 58 515 q 389 724 227 724 q 636 620 552 724 q 721 356 721 515 q 636 93 721 197 q 389 -12 552 -12 q 142 93 227 -12 q 58 356 58 197 m 184 356 q 240 145 184 214 q 389 77 296 77 q 538 145 482 77 q 595 356 595 214 q 538 567 595 498 q 389 635 482 635 q 240 567 296 635 q 184 356 184 498 z "},"Ŏ":{"ha":1034,"x_min":62,"x_max":971,"o":"m 277 1202 q 286 1243 263 1233 l 319 1258 q 355 1244 341 1267 q 416 1179 378 1206 q 517 1152 453 1152 q 618 1179 581 1152 q 678 1244 655 1206 q 715 1258 692 1267 l 748 1243 q 757 1202 770 1233 q 658 1087 723 1124 q 517 1050 593 1050 q 376 1087 441 1050 q 277 1202 311 1124 m 62 486 q 179 858 62 724 q 517 993 296 993 q 854 858 737 993 q 971 486 971 724 q 854 114 971 249 q 517 -20 737 -20 q 179 114 296 -20 q 62 486 62 249 m 201 486 q 279 191 201 296 q 517 85 357 85 q 754 191 676 85 q 832 486 832 296 q 754 782 832 676 q 517 887 676 887 q 279 782 357 887 q 201 486 201 676 z "},"ŏ":{"ha":779,"x_min":58,"x_max":721,"o":"m 58 356 q 142 620 58 515 q 389 724 227 724 q 636 620 552 724 q 721 356 721 515 q 636 93 721 197 q 389 -12 552 -12 q 142 93 227 -12 q 58 356 58 197 m 184 356 q 240 145 184 214 q 389 77 296 77 q 538 145 482 77 q 595 356 595 214 q 538 567 595 498 q 389 635 482 635 q 240 567 296 635 q 184 356 184 498 z "},"Ő":{"ha":1034,"x_min":62,"x_max":971,"o":"m 338 1044 q 330 1080 301 1044 l 416 1185 q 471 1211 437 1211 l 552 1211 q 562 1175 602 1211 l 435 1064 q 382 1044 412 1044 l 338 1044 m 589 1044 q 581 1080 552 1044 l 667 1185 q 722 1211 688 1211 l 803 1211 q 812 1175 852 1211 l 686 1064 q 633 1044 663 1044 l 589 1044 m 62 486 q 179 858 62 724 q 517 993 296 993 q 854 858 737 993 q 971 486 971 724 q 854 114 971 249 q 517 -20 737 -20 q 179 114 296 -20 q 62 486 62 249 m 201 486 q 279 191 201 296 q 517 85 357 85 q 754 191 676 85 q 832 486 832 296 q 754 782 832 676 q 517 887 676 887 q 279 782 357 887 q 201 486 201 676 z "},"ő":{"ha":779,"x_min":58,"x_max":721,"o":"m 58 356 q 142 620 58 515 q 389 724 227 724 q 636 620 552 724 q 721 356 721 515 q 636 93 721 197 q 389 -12 552 -12 q 142 93 227 -12 q 58 356 58 197 m 184 356 q 240 145 184 214 q 389 77 296 77 q 538 145 482 77 q 595 356 595 214 q 538 567 595 498 q 389 635 482 635 q 240 567 296 635 q 184 356 184 498 m 237 780 q 229 816 211 780 l 296 948 q 351 973 309 973 l 417 973 q 427 938 454 973 l 318 800 q 266 780 302 780 l 237 780 m 441 780 q 433 816 414 780 l 500 948 q 555 973 513 973 l 621 973 q 630 938 658 973 l 522 800 q 469 780 506 780 l 441 780 z "},"Œ":{"ha":1365,"x_min":62,"x_max":1304,"o":"m 62 488 q 176 859 62 725 q 488 993 290 993 q 605 983 546 993 q 721 972 663 972 l 1246 972 q 1284 942 1284 972 l 1284 892 q 1246 861 1284 861 l 777 861 l 777 560 l 1206 560 q 1243 530 1243 560 l 1243 479 q 1206 449 1243 449 l 777 449 l 777 111 l 1267 111 q 1304 81 1304 111 l 1304 31 q 1267 0 1304 0 l 721 0 q 605 -10 663 0 q 488 -20 546 -20 q 176 115 290 -20 q 62 488 62 250 m 201 486 q 273 191 201 296 q 488 85 345 85 q 646 111 570 85 l 646 861 q 488 887 570 887 q 273 782 345 887 q 201 486 201 676 z "},"œ":{"ha":1282,"x_min":58,"x_max":1221,"o":"m 58 356 q 142 620 58 515 q 389 724 227 724 q 554 687 488 724 q 656 593 621 650 l 656 593 q 755 687 690 650 q 920 724 819 724 q 1136 632 1050 724 q 1221 341 1221 541 q 1194 311 1221 311 l 721 311 q 791 129 732 180 q 925 77 850 77 q 1046 104 1004 77 q 1107 156 1088 130 q 1149 167 1129 184 l 1190 132 q 1190 95 1205 119 q 1116 32 1177 75 q 925 -12 1055 -12 q 757 23 825 -12 q 655 117 689 57 l 654 117 q 553 24 618 60 q 389 -12 488 -12 q 142 93 227 -12 q 58 356 58 197 m 184 356 q 240 145 184 214 q 389 77 296 77 q 538 145 482 77 q 595 356 595 214 q 538 567 595 498 q 389 635 482 635 q 240 567 296 635 q 184 356 184 498 m 718 399 l 1101 399 q 1053 565 1099 494 q 917 637 1006 637 q 783 584 838 637 q 718 399 728 532 z "},"Ŕ":{"ha":945,"x_min":115,"x_max":899,"o":"m 149 0 q 115 37 115 0 l 115 935 q 149 972 115 972 l 477 972 q 761 899 673 972 q 848 706 848 826 q 778 528 848 600 q 576 446 707 456 l 576 444 q 667 366 645 393 q 718 294 690 339 l 871 45 q 859 0 899 0 l 781 0 q 734 26 749 0 l 593 269 q 505 371 562 321 q 363 421 448 421 l 245 421 l 245 37 q 212 0 245 0 l 149 0 m 245 532 l 441 532 q 645 567 574 532 q 716 714 716 602 q 651 830 716 800 q 474 861 586 861 l 245 861 l 245 532 z "},"ŕ":{"ha":490,"x_min":96,"x_max":480,"o":"m 127 0 q 96 31 96 0 l 96 682 q 127 712 96 712 l 184 712 q 214 682 214 712 l 214 600 l 217 600 q 294 692 250 661 q 404 724 338 724 q 465 716 447 724 q 476 696 480 710 l 460 640 q 443 631 457 628 q 398 635 419 635 q 267 564 319 635 q 216 369 216 492 l 216 31 q 185 0 216 0 l 127 0 z "},"Ř":{"ha":945,"x_min":115,"x_max":899,"o":"m 208 1113 q 191 1147 180 1126 l 206 1181 q 244 1190 216 1203 l 439 1101 l 441 1101 l 636 1190 q 674 1181 664 1203 l 690 1147 q 672 1113 700 1126 l 507 1036 q 464 1024 481 1024 l 416 1024 q 373 1036 399 1024 l 208 1113 m 149 0 q 115 37 115 0 l 115 935 q 149 972 115 972 l 477 972 q 761 899 673 972 q 848 706 848 826 q 778 528 848 600 q 576 446 707 456 l 576 444 q 667 366 645 393 q 718 294 690 339 l 871 45 q 859 0 899 0 l 781 0 q 734 26 749 0 l 593 269 q 505 371 562 321 q 363 421 448 421 l 245 421 l 245 37 q 212 0 245 0 l 149 0 m 245 532 l 441 532 q 645 567 574 532 q 716 714 716 602 q 651 830 716 800 q 474 861 586 861 l 245 861 l 245 532 z "},"ř":{"ha":490,"x_min":76,"x_max":513,"o":"m 127 0 q 96 31 96 0 l 96 682 q 127 712 96 712 l 184 712 q 214 682 214 712 l 214 600 l 217 600 q 294 692 250 661 q 404 724 338 724 q 465 716 447 724 q 476 696 480 710 l 460 640 q 443 631 457 628 q 398 635 419 635 q 267 564 319 635 q 216 369 216 492 l 216 31 q 185 0 216 0 l 127 0 z "},"Ś":{"ha":830,"x_min":60,"x_max":757,"o":"m 96 73 q 77 130 60 106 l 112 181 q 171 177 130 208 q 282 111 224 137 q 423 85 340 85 q 526 104 484 85 q 594 156 568 122 q 619 239 619 191 q 609 305 619 275 q 575 355 598 335 q 527 387 552 376 q 403 431 486 406 q 259 486 321 456 q 162 556 198 515 q 114 641 125 597 q 102 741 102 685 q 152 890 102 827 q 275 972 202 952 q 423 993 348 993 q 573 970 509 993 q 687 912 637 948 q 703 859 722 887 l 669 810 q 608 819 653 787 q 523 865 573 844 q 425 886 473 886 q 321 872 362 886 q 256 823 279 857 q 232 743 232 788 q 237 690 232 714 q 265 641 243 666 q 319 602 288 616 q 452 559 362 584 q 609 498 542 534 q 699 429 671 465 q 742 350 726 393 q 757 255 757 308 q 707 94 757 159 q 590 5 658 30 q 420 -20 522 -20 q 216 8 297 -20 q 96 73 136 37 z "},"ś":{"ha":640,"x_min":35,"x_max":589,"o":"m 56 66 q 47 103 35 86 l 78 146 q 122 144 93 166 q 211 95 162 113 q 323 77 260 77 q 390 86 361 77 q 441 120 419 95 q 463 187 463 145 q 453 233 463 212 q 420 268 442 255 q 377 289 398 281 q 308 310 342 302 q 218 336 274 319 q 148 369 181 348 q 90 427 115 391 q 65 528 65 464 q 105 642 65 594 q 205 706 145 689 q 323 724 266 724 q 458 704 407 724 q 547 659 509 685 q 553 623 568 643 l 522 582 q 478 583 508 562 q 407 616 453 601 q 326 632 361 632 q 253 623 283 632 q 203 590 222 613 q 184 536 184 567 q 192 493 184 512 q 220 459 199 475 q 277 434 240 444 q 381 407 334 419 q 466 377 428 395 q 542 326 515 354 q 579 266 569 298 q 589 195 589 234 q 546 72 589 122 q 450 5 503 22 q 323 -12 397 -12 q 150 17 222 -12 q 56 66 77 46 z "},"Ŝ":{"ha":830,"x_min":60,"x_max":757,"o":"m 174 1072 q 191 1106 163 1093 l 356 1183 q 399 1195 382 1195 l 447 1195 q 490 1183 464 1195 l 655 1106 q 673 1072 683 1093 l 657 1038 q 619 1029 647 1016 l 424 1118 l 422 1118 l 227 1029 q 189 1038 199 1016 l 174 1072 m 96 73 q 77 130 60 106 l 112 181 q 171 177 130 208 q 282 111 224 137 q 423 85 340 85 q 526 104 484 85 q 594 156 568 122 q 619 239 619 191 q 609 305 619 275 q 575 355 598 335 q 527 387 552 376 q 403 431 486 406 q 259 486 321 456 q 162 556 198 515 q 114 641 125 597 q 102 741 102 685 q 152 890 102 827 q 275 972 202 952 q 423 993 348 993 q 573 970 509 993 q 687 912 637 948 q 703 859 722 887 l 669 810 q 608 819 653 787 q 523 865 573 844 q 425 886 473 886 q 321 872 362 886 q 256 823 279 857 q 232 743 232 788 q 237 690 232 714 q 265 641 243 666 q 319 602 288 616 q 452 559 362 584 q 609 498 542 534 q 699 429 671 465 q 742 350 726 393 q 757 255 757 308 q 707 94 757 159 q 590 5 658 30 q 420 -20 522 -20 q 216 8 297 -20 q 96 73 136 37 z "},"ŝ":{"ha":640,"x_min":35,"x_max":589,"o":"m 56 66 q 47 103 35 86 l 78 146 q 122 144 93 166 q 211 95 162 113 q 323 77 260 77 q 390 86 361 77 q 441 120 419 95 q 463 187 463 145 q 453 233 463 212 q 420 268 442 255 q 377 289 398 281 q 308 310 342 302 q 218 336 274 319 q 148 369 181 348 q 90 427 115 391 q 65 528 65 464 q 105 642 65 594 q 205 706 145 689 q 323 724 266 724 q 458 704 407 724 q 547 659 509 685 q 553 623 568 643 l 522 582 q 478 583 508 562 q 407 616 453 601 q 326 632 361 632 q 253 623 283 632 q 203 590 222 613 q 184 536 184 567 q 192 493 184 512 q 220 459 199 475 q 277 434 240 444 q 381 407 334 419 q 466 377 428 395 q 542 326 515 354 q 579 266 569 298 q 589 195 589 234 q 546 72 589 122 q 450 5 503 22 q 323 -12 397 -12 q 150 17 222 -12 q 56 66 77 46 z "},"Š":{"ha":830,"x_min":60,"x_max":757,"o":"m 191 1113 q 174 1147 163 1126 l 189 1181 q 227 1190 199 1203 l 422 1101 l 424 1101 l 619 1190 q 657 1181 647 1203 l 673 1147 q 655 1113 683 1126 l 490 1036 q 447 1024 464 1024 l 399 1024 q 356 1036 382 1024 l 191 1113 m 96 73 q 77 130 60 106 l 112 181 q 171 177 130 208 q 282 111 224 137 q 423 85 340 85 q 526 104 484 85 q 594 156 568 122 q 619 239 619 191 q 609 305 619 275 q 575 355 598 335 q 527 387 552 376 q 403 431 486 406 q 259 486 321 456 q 162 556 198 515 q 114 641 125 597 q 102 741 102 685 q 152 890 102 827 q 275 972 202 952 q 423 993 348 993 q 573 970 509 993 q 687 912 637 948 q 703 859 722 887 l 669 810 q 608 819 653 787 q 523 865 573 844 q 425 886 473 886 q 321 872 362 886 q 256 823 279 857 q 232 743 232 788 q 237 690 232 714 q 265 641 243 666 q 319 602 288 616 q 452 559 362 584 q 609 498 542 534 q 699 429 671 465 q 742 350 726 393 q 757 255 757 308 q 707 94 757 159 q 590 5 658 30 q 420 -20 522 -20 q 216 8 297 -20 q 96 73 136 37 z "},"š":{"ha":640,"x_min":35,"x_max":589,"o":"m 56 66 q 47 103 35 86 l 78 146 q 122 144 93 166 q 211 95 162 113 q 323 77 260 77 q 390 86 361 77 q 441 120 419 95 q 463 187 463 145 q 453 233 463 212 q 420 268 442 255 q 377 289 398 281 q 308 310 342 302 q 218 336 274 319 q 148 369 181 348 q 90 427 115 391 q 65 528 65 464 q 105 642 65 594 q 205 706 145 689 q 323 724 266 724 q 458 704 407 724 q 547 659 509 685 q 553 623 568 643 l 522 582 q 478 583 508 562 q 407 616 453 601 q 326 632 361 632 q 253 623 283 632 q 203 590 222 613 q 184 536 184 567 q 192 493 184 512 q 220 459 199 475 q 277 434 240 444 q 381 407 334 419 q 466 377 428 395 q 542 326 515 354 q 579 266 569 298 q 589 195 589 234 q 546 72 589 122 q 450 5 503 22 q 323 -12 397 -12 q 150 17 222 -12 q 56 66 77 46 z "},"Ť":{"ha":841,"x_min":24,"x_max":817,"o":"m 189 1113 q 171 1147 161 1126 l 186 1181 q 224 1190 197 1203 l 420 1101 l 421 1101 l 616 1190 q 654 1181 644 1203 l 670 1147 q 652 1113 680 1126 l 488 1036 q 444 1024 461 1024 l 397 1024 q 353 1036 380 1024 l 189 1113 m 62 856 q 24 886 24 856 l 24 942 q 62 972 24 972 l 779 972 q 817 942 817 972 l 817 886 q 779 856 817 856 l 486 856 l 486 37 q 452 0 486 0 l 389 0 q 355 37 355 0 l 355 856 l 62 856 z "},"ť":{"ha":513,"x_min":31,"x_max":480,"o":"m 335 782 q 330 816 318 791 q 350 866 342 839 q 358 939 358 892 l 358 970 q 389 1001 358 1001 l 447 1001 q 477 970 477 1001 l 477 949 q 459 846 477 887 q 410 771 441 804 q 377 760 392 752 l 335 782 m 62 623 q 31 646 31 623 l 31 688 q 62 712 31 712 l 142 712 l 142 773 q 149 799 142 787 l 196 885 q 217 909 209 909 l 241 909 q 261 885 261 909 l 261 712 l 406 712 q 436 688 436 712 l 436 646 q 406 623 436 623 l 261 623 l 261 191 q 282 98 261 119 q 334 77 304 77 q 389 90 357 77 q 433 113 421 104 q 452 107 446 123 l 475 55 q 467 33 480 41 q 389 3 440 18 q 288 -12 338 -12 q 179 39 217 -12 q 142 183 142 90 l 142 623 l 62 623 z "},"Ũ":{"ha":951,"x_min":115,"x_max":836,"o":"m 231 1068 q 225 1099 216 1077 q 283 1172 244 1143 q 382 1201 322 1201 q 490 1168 433 1201 q 577 1135 547 1135 q 632 1153 610 1135 q 665 1188 654 1171 q 691 1200 678 1208 l 720 1183 q 726 1153 735 1175 q 668 1080 707 1109 q 568 1050 629 1050 q 460 1084 517 1050 q 374 1117 404 1117 q 319 1099 341 1117 q 286 1063 296 1080 q 260 1051 273 1044 l 231 1068 m 115 371 l 115 935 q 149 972 115 972 l 212 972 q 245 935 245 972 l 245 391 q 299 143 245 201 q 475 85 353 85 q 651 143 597 85 q 705 391 705 201 l 705 935 q 739 972 705 972 l 802 972 q 836 935 836 972 l 836 371 q 737 68 836 156 q 475 -20 638 -20 q 214 68 313 -20 q 115 371 115 156 z "},"ũ":{"ha":760,"x_min":95,"x_max":663,"o":"m 95 248 l 95 682 q 125 712 95 712 l 184 712 q 214 682 214 712 l 214 281 q 258 112 214 148 q 368 77 302 77 q 498 129 453 77 q 544 309 544 182 l 544 682 q 574 712 544 712 l 633 712 q 663 682 663 712 l 663 31 q 633 0 663 0 l 576 0 q 545 31 545 0 l 545 85 l 543 85 q 448 12 498 36 q 323 -12 397 -12 q 150 58 205 -12 q 95 248 95 127 z "},"Ū":{"ha":951,"x_min":115,"x_max":836,"o":"m 115 371 l 115 935 q 149 972 115 972 l 212 972 q 245 935 245 972 l 245 391 q 299 143 245 201 q 475 85 353 85 q 651 143 597 85 q 705 391 705 201 l 705 935 q 739 972 705 972 l 802 972 q 836 935 836 972 l 836 371 q 737 68 836 156 q 475 -20 638 -20 q 214 68 313 -20 q 115 371 115 156 z "},"ū":{"ha":760,"x_min":95,"x_max":663,"o":"m 95 248 l 95 682 q 125 712 95 712 l 184 712 q 214 682 214 712 l 214 281 q 258 112 214 148 q 368 77 302 77 q 498 129 453 77 q 544 309 544 182 l 544 682 q 574 712 544 712 l 633 712 q 663 682 663 712 l 663 31 q 633 0 663 0 l 576 0 q 545 31 545 0 l 545 85 l 543 85 q 448 12 498 36 q 323 -12 397 -12 q 150 58 205 -12 q 95 248 95 127 z "},"Ŭ":{"ha":951,"x_min":115,"x_max":836,"o":"m 235 1202 q 244 1243 222 1233 l 277 1258 q 314 1244 300 1267 q 374 1179 337 1206 q 475 1152 412 1152 q 576 1179 539 1152 q 637 1244 614 1206 q 673 1258 651 1267 l 707 1243 q 715 1202 729 1233 q 616 1087 682 1124 q 475 1050 551 1050 q 334 1087 399 1050 q 235 1202 269 1124 m 115 371 l 115 935 q 149 972 115 972 l 212 972 q 245 935 245 972 l 245 391 q 299 143 245 201 q 475 85 353 85 q 651 143 597 85 q 705 391 705 201 l 705 935 q 739 972 705 972 l 802 972 q 836 935 836 972 l 836 371 q 737 68 836 156 q 475 -20 638 -20 q 214 68 313 -20 q 115 371 115 156 z "},"ŭ":{"ha":760,"x_min":95,"x_max":663,"o":"m 95 248 l 95 682 q 125 712 95 712 l 184 712 q 214 682 214 712 l 214 281 q 258 112 214 148 q 368 77 302 77 q 498 129 453 77 q 544 309 544 182 l 544 682 q 574 712 544 712 l 633 712 q 663 682 663 712 l 663 31 q 633 0 663 0 l 576 0 q 545 31 545 0 l 545 85 l 543 85 q 448 12 498 36 q 323 -12 397 -12 q 150 58 205 -12 q 95 248 95 127 z "},"Ů":{"ha":951,"x_min":115,"x_max":836,"o":"m 352 1158 q 387 1242 352 1208 q 475 1275 422 1275 q 564 1241 528 1275 q 599 1158 599 1207 q 564 1074 599 1108 q 475 1040 528 1040 q 387 1074 422 1040 q 352 1158 352 1107 m 405 1158 q 425 1110 405 1129 q 475 1090 444 1090 q 526 1110 507 1090 q 546 1158 546 1129 q 526 1205 546 1186 q 475 1225 507 1225 q 425 1205 444 1225 q 405 1158 405 1186 m 115 371 l 115 935 q 149 972 115 972 l 212 972 q 245 935 245 972 l 245 391 q 299 143 245 201 q 475 85 353 85 q 651 143 597 85 q 705 391 705 201 l 705 935 q 739 972 705 972 l 802 972 q 836 935 836 972 l 836 371 q 737 68 836 156 q 475 -20 638 -20 q 214 68 313 -20 q 115 371 115 156 z "},"ů":{"ha":760,"x_min":95,"x_max":663,"o":"m 95 248 l 95 682 q 125 712 95 712 l 184 712 q 214 682 214 712 l 214 281 q 258 112 214 148 q 368 77 302 77 q 498 129 453 77 q 544 309 544 182 l 544 682 q 574 712 544 712 l 633 712 q 663 682 663 712 l 663 31 q 633 0 663 0 l 576 0 q 545 31 545 0 l 545 85 l 543 85 q 448 12 498 36 q 323 -12 397 -12 q 150 58 205 -12 q 95 248 95 127 z "},"Ű":{"ha":951,"x_min":115,"x_max":836,"o":"m 297 1044 q 289 1080 260 1044 l 375 1185 q 430 1211 395 1211 l 511 1211 q 520 1175 560 1211 l 393 1064 q 341 1044 371 1044 l 297 1044 m 548 1044 q 540 1080 511 1044 l 626 1185 q 681 1211 646 1211 l 762 1211 q 771 1175 811 1211 l 644 1064 q 592 1044 622 1044 l 548 1044 m 115 371 l 115 935 q 149 972 115 972 l 212 972 q 245 935 245 972 l 245 391 q 299 143 245 201 q 475 85 353 85 q 651 143 597 85 q 705 391 705 201 l 705 935 q 739 972 705 972 l 802 972 q 836 935 836 972 l 836 371 q 737 68 836 156 q 475 -20 638 -20 q 214 68 313 -20 q 115 371 115 156 z "},"ű":{"ha":760,"x_min":95,"x_max":663,"o":"m 95 248 l 95 682 q 125 712 95 712 l 184 712 q 214 682 214 712 l 214 281 q 258 112 214 148 q 368 77 302 77 q 498 129 453 77 q 544 309 544 182 l 544 682 q 574 712 544 712 l 633 712 q 663 682 663 712 l 663 31 q 633 0 663 0 l 576 0 q 545 31 545 0 l 545 85 l 543 85 q 448 12 498 36 q 323 -12 397 -12 q 150 58 205 -12 q 95 248 95 127 z "},"Ŵ":{"ha":1280,"x_min":22,"x_max":1259,"o":"m 391 1072 q 408 1106 380 1093 l 573 1183 q 616 1195 600 1195 l 664 1195 q 707 1183 681 1195 l 872 1106 q 890 1072 900 1093 l 874 1038 q 836 1029 864 1016 l 641 1118 l 640 1118 l 444 1029 q 406 1038 416 1016 l 391 1072 m 33 932 q 50 972 22 972 l 133 972 q 162 941 155 972 l 313 290 q 335 204 323 250 q 355 117 347 158 l 359 117 q 375 197 366 157 q 395 289 384 236 l 550 936 q 593 972 559 972 l 687 972 q 730 936 722 972 l 885 289 q 906 197 897 236 q 922 117 915 157 l 925 117 q 946 204 934 158 q 967 290 958 250 l 1118 941 q 1147 972 1126 972 l 1230 972 q 1248 932 1259 972 l 1015 52 q 964 0 1001 0 l 880 0 q 831 57 846 0 l 668 707 q 650 788 656 757 q 641 854 645 820 l 640 854 q 630 788 635 820 q 612 707 625 757 l 449 57 q 401 0 435 0 l 316 0 q 266 52 279 0 l 33 932 z "},"ŵ":{"ha":979,"x_min":22,"x_max":958,"o":"m 31 679 q 49 712 22 712 l 120 712 q 151 686 144 712 l 250 238 q 265 176 255 218 q 279 115 275 134 l 281 115 q 293 172 285 134 q 309 238 302 210 l 429 686 q 459 712 435 712 l 520 712 q 551 686 544 712 l 670 238 q 686 172 677 210 q 698 115 694 134 l 701 115 q 714 176 705 134 q 729 238 724 218 l 829 686 q 859 712 835 712 l 930 712 q 949 679 958 712 l 781 41 q 744 0 770 0 l 663 0 q 626 41 637 0 l 511 490 q 495 556 498 537 q 490 592 492 575 l 489 592 q 484 556 487 575 q 469 490 481 537 l 353 41 q 317 0 342 0 l 235 0 q 199 41 210 0 l 31 679 z "},"Ŷ":{"ha":883,"x_min":7,"x_max":876,"o":"m 191 1072 q 209 1106 181 1093 l 374 1183 q 417 1195 400 1195 l 465 1195 q 508 1183 481 1195 l 673 1106 q 690 1072 701 1093 l 675 1038 q 637 1029 665 1016 l 441 1118 l 440 1118 l 245 1029 q 207 1038 217 1016 l 191 1072 m 37 928 q 55 972 7 972 l 131 972 q 180 939 161 972 l 352 643 q 401 558 380 594 q 440 481 421 522 l 443 481 q 482 558 462 522 q 531 643 503 594 l 703 939 q 752 972 722 972 l 828 972 q 846 928 876 972 l 507 400 l 507 37 q 473 0 507 0 l 410 0 q 376 37 376 0 l 376 400 l 37 928 z "},"ŷ":{"ha":671,"x_min":22,"x_max":653,"o":"m 35 679 q 53 712 22 712 l 127 712 q 157 686 149 712 l 300 238 q 318 181 306 220 q 336 111 331 142 l 338 111 q 351 166 343 142 q 374 238 359 191 l 518 686 q 549 712 527 712 l 623 712 q 641 679 653 712 l 412 41 q 297 -211 348 -138 q 145 -283 246 -283 q 61 -267 92 -283 q 52 -246 47 -260 l 69 -191 q 87 -183 74 -177 q 141 -195 115 -195 q 218 -143 189 -195 q 266 -41 248 -92 l 279 -1 l 35 679 z "},"Ÿ":{"ha":883,"x_min":7,"x_max":876,"o":"m 248 1051 q 217 1082 217 1051 l 217 1144 q 248 1175 217 1175 l 310 1175 q 340 1144 340 1175 l 340 1082 q 310 1051 340 1051 l 248 1051 m 572 1051 q 541 1082 541 1051 l 541 1144 q 572 1175 541 1175 l 634 1175 q 665 1144 665 1175 l 665 1082 q 634 1051 665 1051 l 572 1051 m 37 928 q 55 972 7 972 l 131 972 q 180 939 161 972 l 352 643 q 401 558 380 594 q 440 481 421 522 l 443 481 q 482 558 462 522 q 531 643 503 594 l 703 939 q 752 972 722 972 l 828 972 q 846 928 876 972 l 507 400 l 507 37 q 473 0 507 0 l 410 0 q 376 37 376 0 l 376 400 l 37 928 z "},"Ź":{"ha":825,"x_min":44,"x_max":781,"o":"m 81 0 q 44 31 44 0 l 44 63 q 64 123 44 96 l 597 860 l 597 863 q 543 861 570 861 l 103 861 q 66 892 66 861 l 66 942 q 103 972 66 972 l 728 972 q 766 942 766 972 l 766 921 q 752 880 766 899 l 212 113 l 212 110 q 267 111 231 111 l 743 111 q 781 81 781 111 l 781 31 q 743 0 781 0 l 81 0 z "},"ź":{"ha":644,"x_min":37,"x_max":607,"o":"m 68 0 q 37 24 37 0 l 37 58 q 61 113 37 81 l 453 623 l 453 624 q 412 623 433 623 l 84 623 q 54 646 54 623 l 54 688 q 84 712 54 712 l 560 712 q 591 688 591 712 l 591 656 q 566 604 591 636 l 171 90 l 171 88 q 212 90 191 90 l 576 90 q 607 66 607 90 l 607 24 q 576 0 607 0 l 68 0 z "},"Ż":{"ha":825,"x_min":44,"x_max":781,"o":"m 378 1048 q 347 1078 347 1048 l 347 1147 q 378 1178 347 1178 l 447 1178 q 477 1147 477 1178 l 477 1078 q 447 1048 477 1048 l 378 1048 m 81 0 q 44 31 44 0 l 44 63 q 64 123 44 96 l 597 860 l 597 863 q 543 861 570 861 l 103 861 q 66 892 66 861 l 66 942 q 103 972 66 972 l 728 972 q 766 942 766 972 l 766 921 q 752 880 766 899 l 212 113 l 212 110 q 267 111 231 111 l 743 111 q 781 81 781 111 l 781 31 q 743 0 781 0 l 81 0 z "},"ż":{"ha":644,"x_min":37,"x_max":607,"o":"m 68 0 q 37 24 37 0 l 37 58 q 61 113 37 81 l 453 623 l 453 624 q 412 623 433 623 l 84 623 q 54 646 54 623 l 54 688 q 84 712 54 712 l 560 712 q 591 688 591 712 l 591 656 q 566 604 591 636 l 171 90 l 171 88 q 212 90 191 90 l 576 90 q 607 66 607 90 l 607 24 q 576 0 607 0 l 68 0 z "},"Ž":{"ha":825,"x_min":44,"x_max":781,"o":"m 180 1113 q 163 1147 153 1126 l 178 1181 q 216 1190 189 1203 l 412 1101 l 413 1101 l 608 1190 q 646 1181 636 1203 l 662 1147 q 644 1113 672 1126 l 479 1036 q 436 1024 453 1024 l 389 1024 q 345 1036 372 1024 l 180 1113 m 81 0 q 44 31 44 0 l 44 63 q 64 123 44 96 l 597 860 l 597 863 q 543 861 570 861 l 103 861 q 66 892 66 861 l 66 942 q 103 972 66 972 l 728 972 q 766 942 766 972 l 766 921 q 752 880 766 899 l 212 113 l 212 110 q 267 111 231 111 l 743 111 q 781 81 781 111 l 781 31 q 743 0 781 0 l 81 0 z "},"ž":{"ha":644,"x_min":37,"x_max":607,"o":"m 68 0 q 37 24 37 0 l 37 58 q 61 113 37 81 l 453 623 l 453 624 q 412 623 433 623 l 84 623 q 54 646 54 623 l 54 688 q 84 712 54 712 l 560 712 q 591 688 591 712 l 591 656 q 566 604 591 636 l 171 90 l 171 88 q 212 90 191 90 l 576 90 q 607 66 607 90 l 607 24 q 576 0 607 0 l 68 0 z "},"ſ":{"ha":393,"x_min":96,"x_max":444,"o":"m 127 0 q 96 31 96 0 l 96 813 q 160 969 96 926 q 307 1013 223 1013 q 372 1007 347 1013 q 429 985 397 1001 q 438 963 444 977 l 416 913 q 392 903 407 893 q 362 918 380 912 q 318 924 345 924 q 246 897 276 924 q 216 793 216 870 l 216 31 q 185 0 216 0 l 127 0 z "},"ƀ":{"ha":806,"x_min":20,"x_max":749,"o":"m 51 819 q 20 843 20 819 l 20 885 q 51 909 20 909 l 144 909 l 144 970 q 174 1001 144 1001 l 233 1001 q 263 970 263 1001 l 263 909 l 509 909 q 540 885 540 909 l 540 843 q 509 819 540 819 l 263 819 l 263 669 q 262 627 263 648 l 263 627 q 347 698 300 672 q 472 724 394 724 q 678 613 608 724 q 749 356 749 502 q 678 99 749 210 q 472 -12 608 -12 q 347 14 394 -12 q 263 85 300 40 l 262 85 l 258 31 q 231 0 256 0 l 174 0 q 144 31 144 0 l 144 819 l 51 819 m 263 278 q 312 126 263 176 q 433 77 360 77 q 579 154 536 77 q 623 356 623 231 q 579 558 623 481 q 433 635 536 635 q 312 586 360 635 q 263 434 263 536 l 263 278 z "},"Ɔ":{"ha":951,"x_min":55,"x_max":888,"o":"m 75 811 q 205 941 115 889 q 433 993 296 993 q 771 858 653 993 q 888 486 888 724 q 771 114 888 249 q 433 -20 653 -20 q 220 23 304 -20 q 99 143 136 67 q 105 197 80 182 l 159 229 q 207 203 186 244 q 280 123 229 160 q 426 85 331 85 q 672 191 595 85 q 749 486 749 296 q 672 782 749 676 q 426 887 595 887 q 270 842 328 887 q 184 749 211 798 q 136 725 163 709 l 79 757 q 75 811 55 771 z "},"Ɖ":{"ha":1008,"x_min":27,"x_max":945,"o":"m 64 444 q 27 474 27 444 l 27 524 q 64 555 27 555 l 149 555 l 149 935 q 183 972 149 972 l 433 972 q 833 845 721 972 q 945 488 945 718 q 833 129 945 257 q 433 0 721 0 l 183 0 q 149 37 149 0 l 149 444 l 64 444 m 279 111 l 427 111 q 729 206 651 111 q 806 488 806 301 q 729 768 806 674 q 427 863 651 863 l 279 863 l 279 555 l 490 555 q 528 524 528 555 l 528 474 q 490 444 528 444 l 279 444 l 279 111 z "},"Ǝ":{"ha":861,"x_min":61,"x_max":746,"o":"m 61 31 l 61 81 q 98 111 61 111 l 616 111 l 616 449 l 159 449 q 122 479 122 449 l 122 530 q 159 560 122 560 l 616 560 l 616 861 l 119 861 q 81 892 81 861 l 81 942 q 119 972 81 972 l 712 972 q 746 935 746 972 l 746 37 q 712 0 746 0 l 98 0 q 61 31 61 0 z "},"Ə":{"ha":1000,"x_min":62,"x_max":937,"o":"m 62 512 q 99 556 62 556 l 795 556 q 716 788 790 690 q 484 887 642 887 q 330 863 393 887 q 222 801 267 838 q 170 793 190 774 l 129 834 q 144 886 109 854 q 279 962 194 932 q 479 993 365 993 q 820 858 703 993 q 937 486 937 724 q 819 114 937 249 q 492 -20 701 -20 q 168 114 273 -20 q 62 512 62 248 m 202 445 q 269 189 202 293 q 492 85 336 85 q 714 185 635 85 q 798 445 792 285 l 202 445 z "},"Ɛ":{"ha":810,"x_min":75,"x_max":753,"o":"m 75 269 q 141 440 75 371 q 286 517 208 509 l 286 520 q 161 603 212 542 q 111 741 111 664 q 190 914 111 836 q 420 993 269 993 q 567 968 492 993 q 696 901 643 944 q 711 845 734 870 l 669 798 q 621 808 651 778 q 535 864 588 840 q 422 887 481 887 q 296 850 350 887 q 243 733 243 814 q 288 614 243 664 q 429 565 334 565 l 500 565 q 532 534 532 565 l 532 487 q 500 458 532 458 l 424 458 q 283 413 352 458 q 214 281 214 368 q 270 132 214 178 q 425 85 327 85 q 547 117 488 85 q 636 181 605 149 q 691 193 670 216 l 734 146 q 723 96 753 125 q 608 17 681 54 q 429 -20 535 -20 q 174 54 273 -20 q 75 269 75 128 z "},"Ƒ":{"ha":791,"x_min":-136,"x_max":739,"o":"m -109 -259 q -128 -220 -136 -248 l -114 -172 q -68 -157 -104 -140 q 11 -177 -26 -177 q 90 -142 64 -177 q 115 26 115 -107 l 115 935 q 149 972 115 972 l 702 972 q 739 942 739 972 l 739 892 q 702 861 739 861 l 245 861 l 245 540 l 644 540 q 681 509 681 540 l 681 459 q 644 429 681 429 l 245 429 l 245 -6 q 187 -221 245 -160 q 15 -283 129 -283 q -109 -259 -48 -283 z "},"ƒ":{"ha":442,"x_min":-39,"x_max":493,"o":"m -24 -269 q -36 -248 -39 -262 l -24 -193 q -7 -182 -21 -176 q 58 -195 19 -195 q 116 -155 98 -195 q 134 4 134 -116 l 134 623 l 61 623 q 31 646 31 623 l 31 688 q 61 712 31 712 l 134 712 l 134 813 q 195 969 134 926 q 334 1013 256 1013 q 410 1008 381 1013 q 478 987 439 1003 q 487 965 493 981 l 466 911 q 442 906 460 898 q 406 919 427 913 q 359 924 384 924 q 278 897 302 924 q 253 793 253 870 l 253 712 l 377 712 q 408 688 408 712 l 408 646 q 377 623 408 623 l 253 623 l 253 -63 q 203 -239 253 -195 q 79 -283 153 -283 q -24 -269 7 -283 z "},"Ɣ":{"ha":869,"x_min":11,"x_max":859,"o":"m 37 928 q 55 972 11 972 l 131 972 q 180 939 162 972 l 352 609 q 396 522 378 559 q 433 445 414 486 l 436 445 q 473 522 455 486 q 517 609 492 559 l 690 939 q 739 972 707 972 l 814 972 q 833 928 859 972 l 506 366 q 594 243 564 298 q 624 151 624 189 q 574 23 624 66 q 433 -20 524 -20 q 293 23 343 -20 q 243 151 243 66 q 274 243 243 189 q 363 366 305 298 l 37 928 m 373 151 q 388 103 373 121 q 433 85 403 85 q 479 103 464 85 q 494 151 494 121 q 489 189 494 165 q 435 288 485 213 l 432 288 q 377 189 382 213 q 373 151 373 165 z "},"ƕ":{"ha":1149,"x_min":96,"x_max":1091,"o":"m 127 0 q 96 31 96 0 l 96 970 q 127 1001 96 1001 l 185 1001 q 216 970 216 1001 l 216 668 q 214 627 216 648 l 217 627 q 312 700 261 676 q 439 724 363 724 q 616 654 562 724 q 670 464 670 585 l 670 250 q 707 109 670 141 q 802 77 743 77 q 921 142 876 77 q 965 357 965 208 q 933 542 965 467 q 879 663 901 618 q 885 699 865 692 l 951 722 q 990 703 974 729 q 1058 560 1025 646 q 1091 386 1091 473 q 1017 86 1091 183 q 787 -12 943 -12 q 618 48 686 -12 q 551 264 551 109 l 551 431 q 507 600 551 564 q 395 635 463 635 q 261 583 307 635 q 216 403 216 530 l 216 31 q 185 0 216 0 l 127 0 z "},"Ɩ":{"ha":553,"x_min":115,"x_max":528,"o":"m 115 243 l 115 935 q 149 972 115 972 l 212 972 q 245 935 245 972 l 245 232 q 270 119 245 153 q 344 85 295 85 q 395 95 368 85 q 445 119 422 104 q 494 109 479 140 l 514 71 q 503 26 528 44 q 426 -8 475 5 q 344 -20 377 -20 q 170 41 224 -20 q 115 243 115 102 z "},"Ɨ":{"ha":476,"x_min":34,"x_max":442,"o":"m 207 0 q 173 37 173 0 l 173 437 l 71 437 q 34 467 34 437 l 34 517 q 71 548 34 548 l 173 548 l 173 935 q 207 972 173 972 l 269 972 q 303 935 303 972 l 303 548 l 405 548 q 442 517 442 548 l 442 467 q 405 437 442 437 l 303 437 l 303 37 q 269 0 303 0 l 207 0 z "},"Ɲ":{"ha":991,"x_min":-120,"x_max":876,"o":"m -93 -259 q -112 -220 -120 -248 l -98 -172 q -52 -157 -88 -140 q 27 -177 -9 -177 q 106 -142 80 -177 q 132 26 132 -107 l 132 935 q 165 972 132 972 l 252 972 q 320 939 300 972 l 745 227 l 747 227 q 746 281 746 254 l 746 935 q 780 972 746 972 l 842 972 q 876 935 876 972 l 876 37 q 842 0 876 0 l 783 0 q 715 34 735 0 l 263 789 l 260 789 q 262 734 262 762 l 262 -5 q 203 -221 262 -160 q 31 -283 145 -283 q -93 -259 -32 -283 z "},"ƞ":{"ha":766,"x_min":96,"x_max":670,"o":"m 127 0 q 96 31 96 0 l 96 682 q 127 712 96 712 l 184 712 q 214 682 214 712 l 214 627 l 217 627 q 312 700 261 676 q 439 724 363 724 q 616 654 562 724 q 670 464 670 585 l 670 -241 q 640 -271 670 -271 l 581 -271 q 551 -241 551 -271 l 551 431 q 507 600 551 564 q 395 635 463 635 q 261 583 307 635 q 216 403 216 530 l 216 31 q 185 0 216 0 l 127 0 z "},"Ɵ":{"ha":1034,"x_min":62,"x_max":971,"o":"m 62 488 q 179 859 62 725 q 517 993 296 993 q 854 858 737 993 q 971 486 971 724 q 854 114 971 249 q 517 -20 737 -20 q 179 115 296 -20 q 62 488 62 250 m 202 450 q 283 186 209 286 q 517 85 357 85 q 750 186 676 85 q 831 450 825 286 l 202 450 m 205 562 l 829 562 q 746 792 816 698 q 517 887 676 887 q 288 792 357 887 q 205 562 218 698 z "},"Ƨ":{"ha":830,"x_min":73,"x_max":770,"o":"m 73 255 q 89 350 73 308 q 131 429 104 393 q 221 498 159 465 q 378 559 288 534 q 511 602 468 584 q 565 641 543 616 q 593 690 587 666 q 598 743 598 714 q 574 823 598 788 q 509 872 551 857 q 406 886 468 886 q 307 865 357 886 q 222 819 257 844 q 161 810 177 787 l 127 859 q 143 912 108 887 q 257 970 193 948 q 407 993 321 993 q 555 972 482 993 q 678 890 628 952 q 728 741 728 827 q 716 641 728 685 q 668 556 705 597 q 571 486 632 515 q 427 431 509 456 q 303 387 345 406 q 255 355 278 376 q 221 305 232 335 q 211 239 211 275 q 236 156 211 191 q 304 104 262 122 q 407 85 346 85 q 548 111 490 85 q 659 177 606 137 q 718 181 700 208 l 753 130 q 734 73 770 106 q 614 8 694 37 q 410 -20 533 -20 q 240 5 308 -20 q 123 94 172 30 q 73 255 73 159 z "},"ƨ":{"ha":640,"x_min":51,"x_max":605,"o":"m 51 195 q 61 266 51 234 q 98 326 71 298 q 174 377 125 354 q 259 407 212 395 q 363 434 307 419 q 420 459 400 444 q 448 493 441 475 q 456 536 456 512 q 437 590 456 567 q 387 623 418 613 q 314 632 357 632 q 233 616 279 632 q 162 583 187 601 q 118 582 132 562 l 87 623 q 94 659 72 643 q 182 704 131 685 q 317 724 233 724 q 435 706 374 724 q 535 642 495 689 q 575 528 575 594 q 550 427 575 464 q 492 369 526 391 q 422 336 459 348 q 332 310 366 319 q 263 289 298 302 q 220 268 242 281 q 188 233 198 255 q 177 187 177 212 q 199 120 177 145 q 250 86 221 95 q 317 77 279 77 q 429 95 380 77 q 518 144 478 113 q 562 146 547 166 l 593 103 q 584 66 605 86 q 491 17 563 46 q 317 -12 418 -12 q 190 5 243 -12 q 94 72 137 22 q 51 195 51 122 z "},"Ʃ":{"ha":819,"x_min":50,"x_max":770,"o":"m 87 0 q 50 31 50 0 l 50 63 q 71 123 50 95 l 335 490 q 335 538 353 514 l 81 881 q 68 922 68 899 l 68 942 q 105 972 68 972 l 714 972 q 751 942 751 972 l 751 892 q 714 861 751 861 l 300 861 q 246 863 273 861 l 246 860 l 488 533 q 488 488 504 511 l 217 113 l 217 110 q 271 111 235 111 l 733 111 q 770 81 770 111 l 770 31 q 733 0 770 0 l 87 0 z "},"Ʋ":{"ha":909,"x_min":115,"x_max":847,"o":"m 115 371 l 115 935 q 149 972 115 972 l 212 972 q 245 935 245 972 l 245 391 q 305 143 245 201 q 470 85 364 85 q 647 182 586 85 q 708 479 708 279 q 661 726 708 629 q 558 878 614 824 q 555 934 526 909 l 609 981 q 665 970 635 1004 q 801 751 754 873 q 847 508 847 629 q 761 120 847 260 q 465 -20 675 -20 q 210 68 305 -20 q 115 371 115 156 z "},"Ʒ":{"ha":852,"x_min":57,"x_max":777,"o":"m 83 109 q 80 161 57 138 l 123 204 q 178 190 145 226 q 268 119 212 153 q 418 85 324 85 q 573 138 507 85 q 640 276 640 191 q 582 413 640 370 q 411 455 524 455 l 332 455 q 295 484 295 455 l 295 532 q 312 581 295 562 l 559 860 l 559 863 q 505 861 532 861 l 117 861 q 80 892 80 861 l 80 942 q 117 972 80 972 l 705 972 q 742 942 742 972 l 742 918 q 728 877 742 892 l 454 568 l 454 565 q 693 480 609 565 q 777 279 777 395 q 684 60 777 140 q 414 -20 591 -20 q 194 25 271 -20 q 83 109 117 71 z "},"Ǎ":{"ha":922,"x_min":14,"x_max":908,"o":"m 229 1113 q 212 1147 201 1126 l 227 1181 q 265 1190 237 1203 l 460 1101 l 462 1101 l 657 1190 q 695 1181 685 1203 l 711 1147 q 693 1113 721 1126 l 528 1036 q 485 1024 502 1024 l 437 1024 q 394 1036 420 1024 l 229 1113 m 50 0 q 31 45 14 0 l 369 931 q 414 972 385 972 l 509 972 q 553 931 538 972 l 891 45 q 873 0 908 0 l 804 0 q 755 33 768 0 l 670 258 l 252 258 l 168 33 q 119 0 155 0 l 50 0 m 295 369 l 627 369 l 524 640 q 495 724 509 678 q 463 855 481 770 l 460 855 q 427 724 441 770 q 399 640 413 678 l 295 369 z "},"ǎ":{"ha":724,"x_min":58,"x_max":627,"o":"m 58 190 q 171 367 58 311 q 508 433 283 423 l 508 479 q 479 589 508 543 q 365 635 450 635 q 278 625 311 635 q 219 597 245 614 q 168 553 192 580 q 133 551 149 532 l 98 591 q 108 632 83 608 q 178 683 144 666 q 262 712 212 700 q 365 724 313 724 q 567 651 507 724 q 627 451 627 578 l 627 31 q 597 0 627 0 l 536 0 q 509 31 509 0 l 509 64 l 508 64 q 403 5 454 22 q 289 -12 352 -12 q 118 42 178 -12 q 58 190 58 95 m 181 187 q 199 120 181 145 q 248 87 216 94 q 313 80 279 80 q 412 90 365 80 q 508 144 458 100 l 508 344 q 313 319 371 334 q 218 269 254 304 q 181 187 181 233 z "},"Ǐ":{"ha":361,"x_min":-79,"x_max":440,"o":"m -52 1113 q -69 1147 -79 1126 l -54 1181 q -16 1190 -43 1203 l 180 1101 l 181 1101 l 376 1190 q 414 1181 404 1203 l 430 1147 q 412 1113 440 1126 l 248 1036 q 204 1024 221 1024 l 157 1024 q 113 1036 140 1024 l -52 1113 m 149 0 q 115 37 115 0 l 115 935 q 149 972 115 972 l 212 972 q 245 935 245 972 l 245 37 q 212 0 245 0 l 149 0 z "},"ǐ":{"ha":312,"x_min":-62,"x_max":374,"o":"m 127 0 q 96 31 96 0 l 96 682 q 127 712 96 712 l 185 712 q 216 682 216 712 l 216 31 q 185 0 216 0 l 127 0 z "},"Ǒ":{"ha":1034,"x_min":62,"x_max":971,"o":"m 285 1113 q 267 1147 257 1126 l 283 1181 q 321 1190 293 1203 l 516 1101 l 517 1101 l 713 1190 q 751 1181 741 1203 l 766 1147 q 749 1113 777 1126 l 584 1036 q 541 1024 557 1024 l 493 1024 q 450 1036 476 1024 l 285 1113 m 62 486 q 179 858 62 724 q 517 993 296 993 q 854 858 737 993 q 971 486 971 724 q 854 114 971 249 q 517 -20 737 -20 q 179 114 296 -20 q 62 486 62 249 m 201 486 q 279 191 201 296 q 517 85 357 85 q 754 191 676 85 q 832 486 832 296 q 754 782 832 676 q 517 887 676 887 q 279 782 357 887 q 201 486 201 676 z "},"ǒ":{"ha":779,"x_min":58,"x_max":721,"o":"m 58 356 q 142 620 58 515 q 389 724 227 724 q 636 620 552 724 q 721 356 721 515 q 636 93 721 197 q 389 -12 552 -12 q 142 93 227 -12 q 58 356 58 197 m 184 356 q 240 145 184 214 q 389 77 296 77 q 538 145 482 77 q 595 356 595 214 q 538 567 595 498 q 389 635 482 635 q 240 567 296 635 q 184 356 184 498 z "},"Ǔ":{"ha":951,"x_min":115,"x_max":836,"o":"m 243 1113 q 226 1147 216 1126 l 241 1181 q 279 1190 252 1203 l 475 1101 l 476 1101 l 671 1190 q 709 1181 699 1203 l 725 1147 q 707 1113 735 1126 l 543 1036 q 499 1024 516 1024 l 452 1024 q 408 1036 435 1024 l 243 1113 m 115 371 l 115 935 q 149 972 115 972 l 212 972 q 245 935 245 972 l 245 391 q 299 143 245 201 q 475 85 353 85 q 651 143 597 85 q 705 391 705 201 l 705 935 q 739 972 705 972 l 802 972 q 836 935 836 972 l 836 371 q 737 68 836 156 q 475 -20 638 -20 q 214 68 313 -20 q 115 371 115 156 z "},"ǔ":{"ha":760,"x_min":95,"x_max":663,"o":"m 95 248 l 95 682 q 125 712 95 712 l 184 712 q 214 682 214 712 l 214 281 q 258 112 214 148 q 368 77 302 77 q 498 129 453 77 q 544 309 544 182 l 544 682 q 574 712 544 712 l 633 712 q 663 682 663 712 l 663 31 q 633 0 663 0 l 576 0 q 545 31 545 0 l 545 85 l 543 85 q 448 12 498 36 q 323 -12 397 -12 q 150 58 205 -12 q 95 248 95 127 z "},"ǝ":{"ha":745,"x_min":60,"x_max":687,"o":"m 60 371 q 88 401 60 401 l 561 401 q 490 584 549 532 q 357 635 431 635 q 236 608 278 635 q 174 556 194 582 q 132 545 153 528 l 92 580 q 92 617 77 593 q 166 680 105 637 q 357 724 227 724 q 607 624 526 724 q 687 356 687 524 q 603 88 687 188 q 362 -12 519 -12 q 146 80 232 -12 q 60 371 60 171 m 180 313 q 229 147 183 218 q 365 75 275 75 q 498 128 444 75 q 564 313 553 180 l 180 313 z "},"Ǣ":{"ha":1327,"x_min":9,"x_max":1266,"o":"m 50 0 q 31 45 9 0 l 468 937 q 514 972 485 972 l 1208 972 q 1246 942 1246 972 l 1246 892 q 1208 861 1246 861 l 739 861 l 739 560 l 1168 560 q 1205 530 1205 560 l 1205 479 q 1168 449 1205 449 l 739 449 l 739 111 l 1229 111 q 1266 81 1266 111 l 1266 31 q 1229 0 1266 0 l 642 0 q 608 37 608 0 l 608 258 l 277 258 l 168 33 q 122 0 152 0 l 50 0 m 332 369 l 608 369 l 608 861 l 561 861 q 535 789 549 821 q 500 714 522 757 l 332 369 z "},"ǣ":{"ha":1173,"x_min":58,"x_max":1112,"o":"m 58 190 q 169 367 58 311 q 501 433 280 423 l 501 479 q 472 589 501 543 q 361 635 444 635 q 267 622 299 635 q 213 594 235 609 q 168 553 191 579 q 133 551 149 532 l 98 591 q 108 632 83 608 q 172 679 138 661 q 259 710 205 696 q 361 724 313 724 q 487 703 430 724 q 579 619 545 683 l 581 619 q 695 704 635 684 q 816 724 755 724 q 1027 632 942 724 q 1112 341 1112 541 q 1084 311 1112 311 l 623 311 q 691 129 634 180 q 821 77 749 77 q 938 104 897 77 q 998 156 979 130 q 1040 167 1020 184 l 1080 132 q 1080 95 1096 119 q 1007 32 1067 75 q 821 -12 947 -12 q 675 14 736 -12 q 565 106 614 40 l 564 106 q 420 15 487 41 q 286 -12 354 -12 q 118 42 178 -12 q 58 190 58 95 m 181 187 q 192 130 181 152 q 228 94 203 108 q 309 80 253 80 q 420 96 374 80 q 515 158 465 113 q 501 344 501 248 q 306 317 366 334 q 214 265 247 300 q 181 187 181 229 m 621 399 l 992 399 q 945 565 989 494 q 813 637 900 637 q 684 584 737 637 q 621 399 631 532 z "},"Ǧ":{"ha":997,"x_min":62,"x_max":916,"o":"m 294 1113 q 277 1147 267 1126 l 292 1181 q 330 1190 302 1203 l 526 1101 l 527 1101 l 722 1190 q 760 1181 750 1203 l 776 1147 q 758 1113 786 1126 l 593 1036 q 550 1024 567 1024 l 503 1024 q 459 1036 486 1024 l 294 1113 m 62 486 q 185 858 62 724 q 526 993 308 993 q 740 948 657 993 q 861 842 823 903 q 861 787 885 804 l 810 751 q 760 772 785 734 q 683 845 739 803 q 533 887 627 887 q 284 782 367 887 q 201 486 201 676 q 282 191 201 296 q 540 85 363 85 q 693 107 628 85 q 785 166 759 128 l 785 346 l 584 346 q 547 376 547 346 l 547 427 q 584 457 547 457 l 878 457 q 916 427 916 457 l 916 106 q 750 13 833 46 q 533 -20 667 -20 q 186 114 309 -20 q 62 486 62 249 z "},"ǧ":{"ha":759,"x_min":58,"x_max":663,"o":"m 58 356 q 128 613 58 502 q 334 724 199 724 q 459 698 412 724 q 543 627 506 672 l 545 627 l 549 682 q 575 712 551 712 l 632 712 q 663 682 663 712 l 663 -5 q 603 -209 663 -136 q 366 -283 543 -283 q 188 -256 247 -283 q 104 -199 129 -229 q 102 -161 85 -177 l 139 -125 q 182 -134 155 -110 q 252 -181 218 -167 q 366 -195 285 -195 q 501 -155 458 -195 q 543 7 543 -116 l 543 48 q 545 90 543 69 l 543 90 q 460 16 508 43 q 334 -12 412 -12 q 128 99 199 -12 q 58 356 58 210 m 184 356 q 227 154 184 231 q 373 77 270 77 q 495 126 446 77 q 543 278 543 176 l 543 434 q 495 586 543 536 q 373 635 446 635 q 227 558 270 635 q 184 356 184 481 z "},"Ǩ":{"ha":901,"x_min":115,"x_max":890,"o":"m 262 1113 q 244 1147 234 1126 l 260 1181 q 298 1190 270 1203 l 493 1101 l 494 1101 l 690 1190 q 728 1181 718 1203 l 743 1147 q 726 1113 753 1126 l 561 1036 q 517 1024 534 1024 l 470 1024 q 427 1036 453 1024 l 262 1113 m 149 0 q 115 37 115 0 l 115 935 q 149 972 115 972 l 212 972 q 245 935 245 972 l 245 536 q 244 482 245 509 l 247 482 l 700 946 q 747 972 726 972 l 829 972 q 842 928 886 972 l 497 576 l 860 45 q 848 0 890 0 l 765 0 q 718 26 735 0 l 408 484 l 245 319 l 245 37 q 212 0 245 0 l 149 0 z "},"ǩ":{"ha":680,"x_min":96,"x_max":662,"o":"m 127 0 q 96 31 96 0 l 96 970 q 127 1001 96 1001 l 185 1001 q 216 970 216 1001 l 216 406 q 214 366 216 386 l 216 366 l 490 694 q 526 712 505 712 l 588 712 q 606 672 640 712 l 393 418 l 636 40 q 618 0 662 0 l 552 0 q 513 25 530 0 l 318 330 l 216 208 l 216 31 q 185 0 216 0 l 127 0 z "},"Ǯ":{"ha":852,"x_min":57,"x_max":777,"o":"m 191 1113 q 174 1147 163 1126 l 189 1181 q 227 1190 199 1203 l 422 1101 l 424 1101 l 619 1190 q 657 1181 647 1203 l 673 1147 q 655 1113 683 1126 l 490 1036 q 447 1024 464 1024 l 399 1024 q 356 1036 382 1024 l 191 1113 m 83 109 q 80 161 57 138 l 123 204 q 178 190 145 226 q 268 119 212 153 q 418 85 324 85 q 573 138 507 85 q 640 276 640 191 q 582 413 640 370 q 411 455 524 455 l 332 455 q 295 484 295 455 l 295 532 q 312 581 295 562 l 559 860 l 559 863 q 505 861 532 861 l 117 861 q 80 892 80 861 l 80 942 q 117 972 80 972 l 705 972 q 742 942 742 972 l 742 918 q 728 877 742 892 l 454 568 l 454 565 q 693 480 609 565 q 777 279 777 395 q 684 60 777 140 q 414 -20 591 -20 q 194 25 271 -20 q 83 109 117 71 z "},"ǯ":{"ha":666,"x_min":38,"x_max":598,"o":"m 52 -184 q 54 -146 38 -159 l 94 -113 q 136 -126 115 -96 q 181 -163 140 -132 q 298 -195 222 -195 q 435 -144 399 -195 q 472 9 472 -94 q 429 157 472 106 q 268 208 387 208 l 217 208 q 186 231 186 208 l 186 266 q 210 320 186 290 l 453 623 l 453 624 q 412 623 433 623 l 84 623 q 54 646 54 623 l 54 688 q 84 712 54 712 l 560 712 q 591 688 591 712 l 591 656 q 566 604 591 635 l 320 297 l 320 294 q 522 221 446 294 q 598 15 598 149 q 526 -211 598 -138 q 305 -283 454 -283 q 122 -238 187 -283 q 52 -184 58 -193 z "},"ǰ":{"ha":316,"x_min":-72,"x_max":378,"o":"m -57 -269 q -69 -248 -72 -262 l -58 -193 q -41 -182 -54 -176 q 24 -195 -14 -195 q 82 -155 64 -195 q 100 4 100 -116 l 100 682 q 131 712 100 712 l 189 712 q 220 682 220 712 l 220 -63 q 170 -239 220 -195 q 46 -283 120 -283 q -57 -269 -26 -283 z "},"Ǵ":{"ha":997,"x_min":62,"x_max":916,"o":"m 62 486 q 185 858 62 724 q 526 993 308 993 q 740 948 657 993 q 861 842 823 903 q 861 787 885 804 l 810 751 q 760 772 785 734 q 683 845 739 803 q 533 887 627 887 q 284 782 367 887 q 201 486 201 676 q 282 191 201 296 q 540 85 363 85 q 693 107 628 85 q 785 166 759 128 l 785 346 l 584 346 q 547 376 547 346 l 547 427 q 584 457 547 457 l 878 457 q 916 427 916 457 l 916 106 q 750 13 833 46 q 533 -20 667 -20 q 186 114 309 -20 q 62 486 62 249 z "},"ǵ":{"ha":759,"x_min":58,"x_max":663,"o":"m 58 356 q 128 613 58 502 q 334 724 199 724 q 459 698 412 724 q 543 627 506 672 l 545 627 l 549 682 q 575 712 551 712 l 632 712 q 663 682 663 712 l 663 -5 q 603 -209 663 -136 q 366 -283 543 -283 q 188 -256 247 -283 q 104 -199 129 -229 q 102 -161 85 -177 l 139 -125 q 182 -134 155 -110 q 252 -181 218 -167 q 366 -195 285 -195 q 501 -155 458 -195 q 543 7 543 -116 l 543 48 q 545 90 543 69 l 543 90 q 460 16 508 43 q 334 -12 412 -12 q 128 99 199 -12 q 58 356 58 210 m 184 356 q 227 154 184 231 q 373 77 270 77 q 495 126 446 77 q 543 278 543 176 l 543 434 q 495 586 543 536 q 373 635 446 635 q 227 558 270 635 q 184 356 184 481 z "},"Ǹ":{"ha":975,"x_min":115,"x_max":860,"o":"m 149 0 q 115 37 115 0 l 115 935 q 149 972 115 972 l 236 972 q 304 939 283 972 l 728 227 l 731 227 q 730 281 730 254 l 730 935 q 764 972 730 972 l 826 972 q 860 935 860 972 l 860 37 q 826 0 860 0 l 766 0 q 699 34 719 0 l 247 789 l 244 789 q 245 734 245 762 l 245 37 q 212 0 245 0 l 149 0 z "},"ǹ":{"ha":765,"x_min":96,"x_max":670,"o":"m 127 0 q 96 31 96 0 l 96 682 q 127 712 96 712 l 184 712 q 214 682 214 712 l 214 627 l 217 627 q 312 700 261 676 q 439 724 363 724 q 616 654 562 724 q 670 464 670 585 l 670 31 q 640 0 670 0 l 581 0 q 551 31 551 0 l 551 431 q 507 600 551 564 q 395 635 463 635 q 261 583 307 635 q 216 403 216 530 l 216 31 q 185 0 216 0 l 127 0 z "},"Ǽ":{"ha":1327,"x_min":9,"x_max":1266,"o":"m 50 0 q 31 45 9 0 l 468 937 q 514 972 485 972 l 1208 972 q 1246 942 1246 972 l 1246 892 q 1208 861 1246 861 l 739 861 l 739 560 l 1168 560 q 1205 530 1205 560 l 1205 479 q 1168 449 1205 449 l 739 449 l 739 111 l 1229 111 q 1266 81 1266 111 l 1266 31 q 1229 0 1266 0 l 642 0 q 608 37 608 0 l 608 258 l 277 258 l 168 33 q 122 0 152 0 l 50 0 m 332 369 l 608 369 l 608 861 l 561 861 q 535 789 549 821 q 500 714 522 757 l 332 369 z "},"ǽ":{"ha":1173,"x_min":58,"x_max":1112,"o":"m 58 190 q 169 367 58 311 q 501 433 280 423 l 501 479 q 472 589 501 543 q 361 635 444 635 q 267 622 299 635 q 213 594 235 609 q 168 553 191 579 q 133 551 149 532 l 98 591 q 108 632 83 608 q 172 679 138 661 q 259 710 205 696 q 361 724 313 724 q 487 703 430 724 q 579 619 545 683 l 581 619 q 695 704 635 684 q 816 724 755 724 q 1027 632 942 724 q 1112 341 1112 541 q 1084 311 1112 311 l 623 311 q 691 129 634 180 q 821 77 749 77 q 938 104 897 77 q 998 156 979 130 q 1040 167 1020 184 l 1080 132 q 1080 95 1096 119 q 1007 32 1067 75 q 821 -12 947 -12 q 675 14 736 -12 q 565 106 614 40 l 564 106 q 420 15 487 41 q 286 -12 354 -12 q 118 42 178 -12 q 58 190 58 95 m 181 187 q 192 130 181 152 q 228 94 203 108 q 309 80 253 80 q 420 96 374 80 q 515 158 465 113 q 501 344 501 248 q 306 317 366 334 q 214 265 247 300 q 181 187 181 229 m 621 399 l 992 399 q 945 565 989 494 q 813 637 900 637 q 684 584 737 637 q 621 399 631 532 z "},"Ǿ":{"ha":1034,"x_min":35,"x_max":999,"o":"m 62 486 q 179 858 62 724 q 517 993 296 993 q 817 896 704 993 l 899 987 q 946 994 924 1015 l 977 966 q 975 918 999 946 l 884 819 q 971 486 971 690 q 854 114 971 249 q 517 -20 737 -20 q 217 77 330 -20 l 135 -14 q 87 -21 110 -42 l 57 6 q 59 54 35 26 l 149 154 q 62 486 62 282 m 201 486 q 241 257 201 350 l 734 805 q 517 887 657 887 q 279 782 357 887 q 201 486 201 676 m 299 168 q 517 85 376 85 q 754 191 676 85 q 832 486 832 296 q 792 715 832 623 l 299 168 z "},"ǿ":{"ha":779,"x_min":35,"x_max":744,"o":"m 58 356 q 142 620 58 515 q 389 724 227 724 q 605 652 524 724 l 658 709 q 696 715 679 731 l 726 688 q 723 649 744 671 l 662 584 q 721 356 721 490 q 636 93 721 197 q 389 -12 552 -12 q 174 60 254 -12 l 121 3 q 82 -3 100 -19 l 52 24 q 56 63 35 41 l 117 128 q 58 356 58 223 m 184 356 q 201 220 184 276 l 532 574 q 389 635 477 635 q 240 567 296 635 q 184 356 184 498 m 246 138 q 389 77 301 77 q 538 145 482 77 q 595 356 595 214 q 577 492 595 435 l 246 138 z "},"Ȁ":{"ha":922,"x_min":14,"x_max":908,"o":"m 50 0 q 31 45 14 0 l 369 931 q 414 972 385 972 l 509 972 q 553 931 538 972 l 891 45 q 873 0 908 0 l 804 0 q 755 33 768 0 l 670 258 l 252 258 l 168 33 q 119 0 155 0 l 50 0 m 295 369 l 627 369 l 524 640 q 495 724 509 678 q 463 855 481 770 l 460 855 q 427 724 441 770 q 399 640 413 678 l 295 369 z "},"ȁ":{"ha":724,"x_min":58,"x_max":627,"o":"m 58 190 q 171 367 58 311 q 508 433 283 423 l 508 479 q 479 589 508 543 q 365 635 450 635 q 278 625 311 635 q 219 597 245 614 q 168 553 192 580 q 133 551 149 532 l 98 591 q 108 632 83 608 q 178 683 144 666 q 262 712 212 700 q 365 724 313 724 q 567 651 507 724 q 627 451 627 578 l 627 31 q 597 0 627 0 l 536 0 q 509 31 509 0 l 509 64 l 508 64 q 403 5 454 22 q 289 -12 352 -12 q 118 42 178 -12 q 58 190 58 95 m 181 187 q 199 120 181 145 q 248 87 216 94 q 313 80 279 80 q 412 90 365 80 q 508 144 458 100 l 508 344 q 313 319 371 334 q 218 269 254 304 q 181 187 181 233 z "},"Ȃ":{"ha":922,"x_min":14,"x_max":908,"o":"m 50 0 q 31 45 14 0 l 369 931 q 414 972 385 972 l 509 972 q 553 931 538 972 l 891 45 q 873 0 908 0 l 804 0 q 755 33 768 0 l 670 258 l 252 258 l 168 33 q 119 0 155 0 l 50 0 m 295 369 l 627 369 l 524 640 q 495 724 509 678 q 463 855 481 770 l 460 855 q 427 724 441 770 q 399 640 413 678 l 295 369 z "},"ȃ":{"ha":724,"x_min":58,"x_max":627,"o":"m 58 190 q 171 367 58 311 q 508 433 283 423 l 508 479 q 479 589 508 543 q 365 635 450 635 q 278 625 311 635 q 219 597 245 614 q 168 553 192 580 q 133 551 149 532 l 98 591 q 108 632 83 608 q 178 683 144 666 q 262 712 212 700 q 365 724 313 724 q 567 651 507 724 q 627 451 627 578 l 627 31 q 597 0 627 0 l 536 0 q 509 31 509 0 l 509 64 l 508 64 q 403 5 454 22 q 289 -12 352 -12 q 118 42 178 -12 q 58 190 58 95 m 181 187 q 199 120 181 145 q 248 87 216 94 q 313 80 279 80 q 412 90 365 80 q 508 144 458 100 l 508 344 q 313 319 371 334 q 218 269 254 304 q 181 187 181 233 z "},"Ȅ":{"ha":861,"x_min":115,"x_max":800,"o":"m 149 0 q 115 37 115 0 l 115 935 q 149 972 115 972 l 743 972 q 780 942 780 972 l 780 892 q 743 861 780 861 l 245 861 l 245 560 l 702 560 q 739 530 739 560 l 739 479 q 702 449 739 449 l 245 449 l 245 111 l 763 111 q 800 81 800 111 l 800 31 q 763 0 800 0 l 149 0 z "},"ȅ":{"ha":745,"x_min":58,"x_max":684,"o":"m 58 356 q 142 624 58 524 q 382 724 226 724 q 598 632 513 724 q 684 341 684 541 q 656 311 684 311 l 184 311 q 254 129 195 180 q 388 77 313 77 q 509 104 467 77 q 570 156 551 130 q 612 167 592 184 l 652 132 q 652 95 668 119 q 579 32 640 75 q 388 -12 518 -12 q 138 88 218 -12 q 58 356 58 188 m 181 399 l 564 399 q 515 565 562 494 q 380 637 469 637 q 246 584 301 637 q 181 399 191 532 z "},"Ȇ":{"ha":861,"x_min":115,"x_max":800,"o":"m 149 0 q 115 37 115 0 l 115 935 q 149 972 115 972 l 743 972 q 780 942 780 972 l 780 892 q 743 861 780 861 l 245 861 l 245 560 l 702 560 q 739 530 739 560 l 739 479 q 702 449 739 449 l 245 449 l 245 111 l 763 111 q 800 81 800 111 l 800 31 q 763 0 800 0 l 149 0 z "},"ȇ":{"ha":745,"x_min":58,"x_max":684,"o":"m 58 356 q 142 624 58 524 q 382 724 226 724 q 598 632 513 724 q 684 341 684 541 q 656 311 684 311 l 184 311 q 254 129 195 180 q 388 77 313 77 q 509 104 467 77 q 570 156 551 130 q 612 167 592 184 l 652 132 q 652 95 668 119 q 579 32 640 75 q 388 -12 518 -12 q 138 88 218 -12 q 58 356 58 188 m 181 399 l 564 399 q 515 565 562 494 q 380 637 469 637 q 246 584 301 637 q 181 399 191 532 z "},"Ȉ":{"ha":361,"x_min":-155,"x_max":396,"o":"m 149 0 q 115 37 115 0 l 115 935 q 149 972 115 972 l 212 972 q 245 935 245 972 l 245 37 q 212 0 245 0 l 149 0 z "},"ȉ":{"ha":312,"x_min":-113,"x_max":334,"o":"m 127 0 q 96 31 96 0 l 96 682 q 127 712 96 712 l 185 712 q 216 682 216 712 l 216 31 q 185 0 216 0 l 127 0 z "},"Ȋ":{"ha":361,"x_min":-73,"x_max":434,"o":"m 149 0 q 115 37 115 0 l 115 935 q 149 972 115 972 l 212 972 q 245 935 245 972 l 245 37 q 212 0 245 0 l 149 0 z "},"ȋ":{"ha":312,"x_min":-68,"x_max":380,"o":"m 127 0 q 96 31 96 0 l 96 682 q 127 712 96 712 l 185 712 q 216 682 216 712 l 216 31 q 185 0 216 0 l 127 0 z "},"Ȍ":{"ha":1034,"x_min":62,"x_max":971,"o":"m 62 486 q 179 858 62 724 q 517 993 296 993 q 854 858 737 993 q 971 486 971 724 q 854 114 971 249 q 517 -20 737 -20 q 179 114 296 -20 q 62 486 62 249 m 201 486 q 279 191 201 296 q 517 85 357 85 q 754 191 676 85 q 832 486 832 296 q 754 782 832 676 q 517 887 676 887 q 279 782 357 887 q 201 486 201 676 z "},"ȍ":{"ha":779,"x_min":58,"x_max":721,"o":"m 58 356 q 142 620 58 515 q 389 724 227 724 q 636 620 552 724 q 721 356 721 515 q 636 93 721 197 q 389 -12 552 -12 q 142 93 227 -12 q 58 356 58 197 m 184 356 q 240 145 184 214 q 389 77 296 77 q 538 145 482 77 q 595 356 595 214 q 538 567 595 498 q 389 635 482 635 q 240 567 296 635 q 184 356 184 498 z "},"Ȏ":{"ha":1034,"x_min":62,"x_max":971,"o":"m 62 486 q 179 858 62 724 q 517 993 296 993 q 854 858 737 993 q 971 486 971 724 q 854 114 971 249 q 517 -20 737 -20 q 179 114 296 -20 q 62 486 62 249 m 201 486 q 279 191 201 296 q 517 85 357 85 q 754 191 676 85 q 832 486 832 296 q 754 782 832 676 q 517 887 676 887 q 279 782 357 887 q 201 486 201 676 z "},"ȏ":{"ha":779,"x_min":58,"x_max":721,"o":"m 58 356 q 142 620 58 515 q 389 724 227 724 q 636 620 552 724 q 721 356 721 515 q 636 93 721 197 q 389 -12 552 -12 q 142 93 227 -12 q 58 356 58 197 m 184 356 q 240 145 184 214 q 389 77 296 77 q 538 145 482 77 q 595 356 595 214 q 538 567 595 498 q 389 635 482 635 q 240 567 296 635 q 184 356 184 498 z "},"Ȑ":{"ha":945,"x_min":104,"x_max":899,"o":"m 149 0 q 115 37 115 0 l 115 935 q 149 972 115 972 l 477 972 q 761 899 673 972 q 848 706 848 826 q 778 528 848 600 q 576 446 707 456 l 576 444 q 667 366 645 393 q 718 294 690 339 l 871 45 q 859 0 899 0 l 781 0 q 734 26 749 0 l 593 269 q 505 371 562 321 q 363 421 448 421 l 245 421 l 245 37 q 212 0 245 0 l 149 0 m 245 532 l 441 532 q 645 567 574 532 q 716 714 716 602 q 651 830 716 800 q 474 861 586 861 l 245 861 l 245 532 z "},"ȑ":{"ha":490,"x_min":26,"x_max":480,"o":"m 127 0 q 96 31 96 0 l 96 682 q 127 712 96 712 l 184 712 q 214 682 214 712 l 214 600 l 217 600 q 294 692 250 661 q 404 724 338 724 q 465 716 447 724 q 476 696 480 710 l 460 640 q 443 631 457 628 q 398 635 419 635 q 267 564 319 635 q 216 369 216 492 l 216 31 q 185 0 216 0 l 127 0 z "},"Ȓ":{"ha":945,"x_min":115,"x_max":899,"o":"m 149 0 q 115 37 115 0 l 115 935 q 149 972 115 972 l 477 972 q 761 899 673 972 q 848 706 848 826 q 778 528 848 600 q 576 446 707 456 l 576 444 q 667 366 645 393 q 718 294 690 339 l 871 45 q 859 0 899 0 l 781 0 q 734 26 749 0 l 593 269 q 505 371 562 321 q 363 421 448 421 l 245 421 l 245 37 q 212 0 245 0 l 149 0 m 245 532 l 441 532 q 645 567 574 532 q 716 714 716 602 q 651 830 716 800 q 474 861 586 861 l 245 861 l 245 532 z "},"ȓ":{"ha":490,"x_min":70,"x_max":518,"o":"m 127 0 q 96 31 96 0 l 96 682 q 127 712 96 712 l 184 712 q 214 682 214 712 l 214 600 l 217 600 q 294 692 250 661 q 404 724 338 724 q 465 716 447 724 q 476 696 480 710 l 460 640 q 443 631 457 628 q 398 635 419 635 q 267 564 319 635 q 216 369 216 492 l 216 31 q 185 0 216 0 l 127 0 z "},"Ȕ":{"ha":951,"x_min":115,"x_max":836,"o":"m 115 371 l 115 935 q 149 972 115 972 l 212 972 q 245 935 245 972 l 245 391 q 299 143 245 201 q 475 85 353 85 q 651 143 597 85 q 705 391 705 201 l 705 935 q 739 972 705 972 l 802 972 q 836 935 836 972 l 836 371 q 737 68 836 156 q 475 -20 638 -20 q 214 68 313 -20 q 115 371 115 156 z "},"ȕ":{"ha":760,"x_min":95,"x_max":663,"o":"m 95 248 l 95 682 q 125 712 95 712 l 184 712 q 214 682 214 712 l 214 281 q 258 112 214 148 q 368 77 302 77 q 498 129 453 77 q 544 309 544 182 l 544 682 q 574 712 544 712 l 633 712 q 663 682 663 712 l 663 31 q 633 0 663 0 l 576 0 q 545 31 545 0 l 545 85 l 543 85 q 448 12 498 36 q 323 -12 397 -12 q 150 58 205 -12 q 95 248 95 127 z "},"Ȗ":{"ha":951,"x_min":115,"x_max":836,"o":"m 115 371 l 115 935 q 149 972 115 972 l 212 972 q 245 935 245 972 l 245 391 q 299 143 245 201 q 475 85 353 85 q 651 143 597 85 q 705 391 705 201 l 705 935 q 739 972 705 972 l 802 972 q 836 935 836 972 l 836 371 q 737 68 836 156 q 475 -20 638 -20 q 214 68 313 -20 q 115 371 115 156 z "},"ȗ":{"ha":760,"x_min":95,"x_max":663,"o":"m 95 248 l 95 682 q 125 712 95 712 l 184 712 q 214 682 214 712 l 214 281 q 258 112 214 148 q 368 77 302 77 q 498 129 453 77 q 544 309 544 182 l 544 682 q 574 712 544 712 l 633 712 q 663 682 663 712 l 663 31 q 633 0 663 0 l 576 0 q 545 31 545 0 l 545 85 l 543 85 q 448 12 498 36 q 323 -12 397 -12 q 150 58 205 -12 q 95 248 95 127 z "},"Ȟ":{"ha":964,"x_min":115,"x_max":849,"o":"m 250 1113 q 233 1147 222 1126 l 248 1181 q 286 1190 258 1203 l 481 1101 l 483 1101 l 678 1190 q 716 1181 706 1203 l 732 1147 q 714 1113 742 1126 l 549 1036 q 506 1024 523 1024 l 458 1024 q 415 1036 441 1024 l 250 1113 m 149 0 q 115 37 115 0 l 115 935 q 149 972 115 972 l 212 972 q 245 935 245 972 l 245 562 l 719 562 l 719 935 q 753 972 719 972 l 815 972 q 849 935 849 972 l 849 37 q 815 0 849 0 l 753 0 q 719 37 719 0 l 719 450 l 245 450 l 245 37 q 212 0 245 0 l 149 0 z "},"ȟ":{"ha":765,"x_min":96,"x_max":670,"o":"m 127 0 q 96 31 96 0 l 96 970 q 127 1001 96 1001 l 185 1001 q 216 970 216 1001 l 216 668 q 214 627 216 648 l 217 627 q 312 700 261 676 q 439 724 363 724 q 616 654 562 724 q 670 464 670 585 l 670 31 q 640 0 670 0 l 581 0 q 551 31 551 0 l 551 431 q 507 600 551 564 q 395 635 463 635 q 261 583 307 635 q 216 403 216 530 l 216 31 q 185 0 216 0 l 127 0 z "},"Ƞ":{"ha":964,"x_min":115,"x_max":849,"o":"m 149 0 q 115 37 115 0 l 115 935 q 149 972 115 972 l 205 972 q 239 935 237 972 l 244 847 l 247 847 q 382 958 298 922 q 551 993 467 993 q 773 917 697 993 q 849 700 849 841 l 849 -234 q 815 -271 849 -271 l 753 -271 q 719 -234 719 -271 l 719 640 q 672 830 719 773 q 494 887 625 887 q 328 824 410 887 q 245 593 245 761 l 245 37 q 212 0 245 0 l 149 0 z "},"Ȧ":{"ha":922,"x_min":14,"x_max":908,"o":"m 427 1048 q 396 1078 396 1048 l 396 1147 q 427 1178 396 1178 l 496 1178 q 526 1147 526 1178 l 526 1078 q 496 1048 526 1048 l 427 1048 m 50 0 q 31 45 14 0 l 369 931 q 414 972 385 972 l 509 972 q 553 931 538 972 l 891 45 q 873 0 908 0 l 804 0 q 755 33 768 0 l 670 258 l 252 258 l 168 33 q 119 0 155 0 l 50 0 m 295 369 l 627 369 l 524 640 q 495 724 509 678 q 463 855 481 770 l 460 855 q 427 724 441 770 q 399 640 413 678 l 295 369 z "},"ȧ":{"ha":724,"x_min":58,"x_max":627,"o":"m 58 190 q 171 367 58 311 q 508 433 283 423 l 508 479 q 479 589 508 543 q 365 635 450 635 q 278 625 311 635 q 219 597 245 614 q 168 553 192 580 q 133 551 149 532 l 98 591 q 108 632 83 608 q 178 683 144 666 q 262 712 212 700 q 365 724 313 724 q 567 651 507 724 q 627 451 627 578 l 627 31 q 597 0 627 0 l 536 0 q 509 31 509 0 l 509 64 l 508 64 q 403 5 454 22 q 289 -12 352 -12 q 118 42 178 -12 q 58 190 58 95 m 181 187 q 199 120 181 145 q 248 87 216 94 q 313 80 279 80 q 412 90 365 80 q 508 144 458 100 l 508 344 q 313 319 371 334 q 218 269 254 304 q 181 187 181 233 z "},"Ȯ":{"ha":1034,"x_min":62,"x_max":971,"o":"m 482 1048 q 452 1078 452 1048 l 452 1147 q 482 1178 452 1178 l 551 1178 q 582 1147 582 1178 l 582 1078 q 551 1048 582 1048 l 482 1048 m 62 486 q 179 858 62 724 q 517 993 296 993 q 854 858 737 993 q 971 486 971 724 q 854 114 971 249 q 517 -20 737 -20 q 179 114 296 -20 q 62 486 62 249 m 201 486 q 279 191 201 296 q 517 85 357 85 q 754 191 676 85 q 832 486 832 296 q 754 782 832 676 q 517 887 676 887 q 279 782 357 887 q 201 486 201 676 z "},"ȯ":{"ha":779,"x_min":58,"x_max":721,"o":"m 58 356 q 142 620 58 515 q 389 724 227 724 q 636 620 552 724 q 721 356 721 515 q 636 93 721 197 q 389 -12 552 -12 q 142 93 227 -12 q 58 356 58 197 m 184 356 q 240 145 184 214 q 389 77 296 77 q 538 145 482 77 q 595 356 595 214 q 538 567 595 498 q 389 635 482 635 q 240 567 296 635 q 184 356 184 498 z "},"Ȳ":{"ha":883,"x_min":7,"x_max":876,"o":"m 37 928 q 55 972 7 972 l 131 972 q 180 939 161 972 l 352 643 q 401 558 380 594 q 440 481 421 522 l 443 481 q 482 558 462 522 q 531 643 503 594 l 703 939 q 752 972 722 972 l 828 972 q 846 928 876 972 l 507 400 l 507 37 q 473 0 507 0 l 410 0 q 376 37 376 0 l 376 400 l 37 928 z "},"ȳ":{"ha":671,"x_min":22,"x_max":653,"o":"m 35 679 q 53 712 22 712 l 127 712 q 157 686 149 712 l 300 238 q 318 181 306 220 q 336 111 331 142 l 338 111 q 351 166 343 142 q 374 238 359 191 l 518 686 q 549 712 527 712 l 623 712 q 641 679 653 712 l 412 41 q 297 -211 348 -138 q 145 -283 246 -283 q 61 -267 92 -283 q 52 -246 47 -260 l 69 -191 q 87 -183 74 -177 q 141 -195 115 -195 q 218 -143 189 -195 q 266 -41 248 -92 l 279 -1 l 35 679 z "},"ȷ":{"ha":316,"x_min":-72,"x_max":220,"o":"m -57 -269 q -69 -248 -72 -262 l -58 -193 q -41 -182 -54 -176 q 24 -195 -14 -195 q 82 -155 64 -195 q 100 4 100 -116 l 100 682 q 131 712 100 712 l 189 712 q 220 682 220 712 l 220 -63 q 170 -239 220 -195 q 46 -283 120 -283 q -57 -269 -26 -283 z "},"ȸ":{"ha":1206,"x_min":58,"x_max":1148,"o":"m 58 356 q 128 613 58 502 q 334 724 199 724 q 459 698 412 724 q 543 627 506 672 l 545 627 q 543 669 543 648 l 543 970 q 574 1001 543 1001 l 632 1001 q 663 970 663 1001 l 663 669 q 661 627 663 648 l 663 627 q 747 698 700 672 q 871 724 793 724 q 1078 613 1007 724 q 1148 356 1148 502 q 1078 99 1148 210 q 871 -12 1007 -12 q 747 14 793 -12 q 663 85 700 40 l 661 85 l 657 31 q 631 0 655 0 l 575 0 q 549 31 551 0 l 545 85 l 543 85 q 459 14 506 40 q 334 -12 412 -12 q 128 99 199 -12 q 58 356 58 210 m 184 356 q 227 154 184 231 q 373 77 270 77 q 495 126 446 77 q 543 278 543 176 l 543 434 q 495 586 543 536 q 373 635 446 635 q 227 558 270 635 q 184 356 184 481 m 663 278 q 711 126 663 176 q 833 77 760 77 q 979 154 936 77 q 1022 356 1022 231 q 979 558 1022 481 q 833 635 936 635 q 711 586 760 635 q 663 434 663 536 l 663 278 z "},"ȹ":{"ha":1206,"x_min":58,"x_max":1148,"o":"m 58 356 q 128 613 58 502 q 334 724 199 724 q 459 698 412 724 q 543 627 506 672 l 545 627 l 549 682 q 575 712 551 712 l 631 712 q 657 682 655 712 l 661 627 l 663 627 q 747 698 700 672 q 871 724 793 724 q 1078 613 1007 724 q 1148 356 1148 502 q 1078 99 1148 210 q 871 -12 1007 -12 q 747 14 793 -12 q 663 85 700 40 l 661 85 q 663 43 663 64 l 663 -241 q 632 -271 663 -271 l 574 -271 q 543 -241 543 -271 l 543 43 q 545 85 543 64 l 543 85 q 459 14 506 40 q 334 -12 412 -12 q 128 99 199 -12 q 58 356 58 210 m 184 356 q 227 154 184 231 q 373 77 270 77 q 495 126 446 77 q 543 278 543 176 l 543 434 q 495 586 543 536 q 373 635 446 635 q 227 558 270 635 q 184 356 184 481 m 663 278 q 711 126 663 176 q 833 77 760 77 q 979 154 936 77 q 1022 356 1022 231 q 979 558 1022 481 q 833 635 936 635 q 711 586 760 635 q 663 434 663 536 l 663 278 z "},"Ɂ":{"ha":699,"x_min":54,"x_max":628,"o":"m 75 798 q 74 854 54 811 q 160 942 92 891 q 339 993 228 993 q 546 922 464 993 q 628 725 628 850 q 521 483 628 606 q 414 241 414 360 l 414 37 q 380 0 414 0 l 317 0 q 283 37 283 0 l 283 260 q 388 515 283 399 q 493 729 493 631 q 448 846 493 804 q 338 888 404 888 q 234 864 277 888 q 171 793 191 840 q 124 767 153 749 l 75 798 z "},"Ƀ":{"ha":948,"x_min":27,"x_max":873,"o":"m 64 234 q 27 264 27 234 l 27 311 q 64 341 27 341 l 142 341 l 142 935 q 176 972 142 972 l 441 972 q 751 898 671 972 q 831 718 831 823 q 765 577 831 635 q 636 509 699 519 l 636 507 q 789 438 705 500 q 873 270 873 376 q 788 77 873 155 q 475 0 703 0 l 176 0 q 142 37 142 0 l 142 234 l 64 234 m 273 111 l 453 111 q 667 147 599 111 q 734 274 734 183 q 666 404 734 358 q 453 450 597 450 l 273 450 l 273 341 l 468 341 q 505 311 505 341 l 505 264 q 468 234 505 234 l 273 234 l 273 111 m 273 548 l 443 548 q 628 596 556 548 q 699 718 699 645 q 646 825 699 788 q 443 861 592 861 l 273 861 l 273 548 z "},"Ʉ":{"ha":1066,"x_min":34,"x_max":1032,"o":"m 71 437 q 34 467 34 437 l 34 517 q 71 548 34 548 l 173 548 l 173 935 q 207 972 173 972 l 269 972 q 303 935 303 972 l 303 548 l 763 548 l 763 935 q 797 972 763 972 l 859 972 q 893 935 893 972 l 893 548 l 995 548 q 1032 517 1032 548 l 1032 467 q 995 437 1032 437 l 893 437 l 893 371 q 794 68 893 156 q 533 -20 696 -20 q 272 68 370 -20 q 173 371 173 156 l 173 437 l 71 437 m 303 391 q 357 143 303 201 q 533 85 411 85 q 709 143 655 85 q 763 391 763 201 l 763 437 l 303 437 l 303 391 z "},"Ʌ":{"ha":907,"x_min":14,"x_max":893,"o":"m 50 0 q 31 45 14 0 l 361 931 q 406 972 377 972 l 501 972 q 546 931 530 972 l 876 45 q 858 0 893 0 l 789 0 q 740 33 752 0 l 519 640 q 484 748 505 680 q 455 855 463 815 l 452 855 q 424 748 445 815 q 388 640 402 680 l 168 33 q 119 0 155 0 l 50 0 z "},"Ɉ":{"ha":604,"x_min":14,"x_max":570,"o":"m 45 20 q 26 64 14 37 l 49 112 q 98 121 64 144 q 214 85 153 85 q 294 130 274 85 q 313 256 313 174 l 313 437 l 191 437 q 154 467 154 437 l 154 517 q 191 548 154 548 l 313 548 l 313 935 q 347 972 313 972 l 410 972 q 444 935 444 972 l 444 548 l 532 548 q 570 517 570 548 l 570 467 q 532 437 570 437 l 444 437 l 444 272 q 401 59 444 138 q 205 -20 359 -20 q 45 20 120 -20 z "},"ɉ":{"ha":434,"x_min":-16,"x_max":400,"o":"m 188 841 q 157 871 157 841 l 157 930 q 188 960 157 960 l 246 960 q 277 930 277 960 l 277 871 q 246 841 277 841 l 188 841 m 0 -269 q -12 -248 -16 -262 l -1 -193 q 16 -182 3 -176 q 81 -195 43 -195 q 139 -155 121 -195 q 157 4 157 -116 l 157 327 l 64 327 q 34 351 34 327 l 34 393 q 64 416 34 416 l 157 416 l 157 682 q 188 712 157 712 l 246 712 q 277 682 277 712 l 277 416 l 370 416 q 400 393 400 416 l 400 351 q 370 327 400 327 l 277 327 l 277 -63 q 227 -239 277 -195 q 103 -283 177 -283 q 0 -269 31 -283 z "},"ɐ":{"ha":724,"x_min":97,"x_max":667,"o":"m 97 261 l 97 682 q 127 712 97 712 l 189 712 q 215 682 215 712 l 215 648 l 216 648 q 321 707 270 690 q 435 724 372 724 q 607 670 547 724 q 667 522 667 617 q 554 345 667 401 q 216 279 441 289 l 216 233 q 245 123 216 170 q 359 77 274 77 q 446 87 414 77 q 506 115 479 98 q 557 159 532 132 q 591 161 575 180 l 627 121 q 616 80 642 104 q 547 29 581 46 q 462 0 513 12 q 359 -12 412 -12 q 157 61 218 -12 q 97 261 97 134 m 216 368 q 412 393 353 378 q 507 443 470 408 q 543 525 543 479 q 526 592 543 567 q 477 625 508 618 q 412 632 446 632 q 313 622 359 632 q 216 568 266 612 l 216 368 z "},"ɑ":{"ha":748,"x_min":58,"x_max":652,"o":"m 58 356 q 128 613 58 502 q 329 724 199 724 q 448 698 401 724 q 532 627 495 672 l 534 627 l 538 682 q 564 712 540 712 l 621 712 q 652 682 652 712 l 652 31 q 621 0 652 0 l 564 0 q 538 31 540 0 l 534 85 l 532 85 q 448 14 495 40 q 329 -12 401 -12 q 128 99 199 -12 q 58 356 58 210 m 184 356 q 227 154 184 231 q 368 77 269 77 q 484 126 435 77 q 532 278 532 176 l 532 434 q 484 586 532 536 q 368 635 435 635 q 227 558 269 635 q 184 356 184 481 z "},"ɒ":{"ha":748,"x_min":97,"x_max":691,"o":"m 97 31 l 97 682 q 127 712 97 712 l 184 712 q 211 682 209 712 l 215 627 l 216 627 q 300 698 254 672 q 420 724 347 724 q 621 613 550 724 q 691 356 691 502 q 621 99 691 210 q 420 -12 550 -12 q 300 14 347 -12 q 216 85 254 40 l 215 85 l 211 31 q 184 0 209 0 l 127 0 q 97 31 97 0 m 216 278 q 265 126 216 176 q 381 77 313 77 q 522 154 479 77 q 565 356 565 231 q 522 558 565 481 q 381 635 479 635 q 265 586 313 635 q 216 434 216 536 l 216 278 z "},"ɓ":{"ha":759,"x_min":96,"x_max":701,"o":"m 127 0 q 96 31 96 0 l 96 713 q 165 933 96 854 q 380 1013 234 1013 q 544 986 484 1013 q 628 929 603 959 q 630 891 646 907 l 593 854 q 559 857 578 840 q 482 908 519 891 q 379 924 445 924 q 257 878 299 924 q 216 695 216 832 l 216 669 q 214 627 216 648 l 216 627 q 300 698 253 672 q 425 724 347 724 q 631 613 560 724 q 701 356 701 502 q 631 99 701 210 q 425 -12 560 -12 q 300 14 347 -12 q 216 85 253 40 l 214 85 l 210 31 q 184 0 208 0 l 127 0 m 216 278 q 264 126 216 176 q 386 77 313 77 q 532 154 489 77 q 575 356 575 231 q 532 558 575 481 q 386 635 489 635 q 264 586 313 635 q 216 434 216 536 l 216 278 z "},"ɔ":{"ha":696,"x_min":38,"x_max":638,"o":"m 52 589 q 129 671 69 618 q 317 724 189 724 q 559 620 480 724 q 638 356 638 515 q 559 93 638 197 q 317 -12 480 -12 q 150 27 208 -12 q 66 107 92 66 q 72 143 52 130 l 115 171 q 155 153 135 185 q 211 99 175 121 q 317 77 246 77 q 461 145 410 77 q 512 356 512 214 q 461 567 512 498 q 317 635 410 635 q 202 607 242 635 q 144 544 162 578 q 104 526 126 512 l 58 553 q 52 589 38 565 z "},"ɕ":{"ha":696,"x_min":58,"x_max":644,"o":"m 58 356 q 137 620 58 515 q 378 724 216 724 q 546 685 488 724 q 630 605 604 646 q 624 569 644 583 l 581 541 q 541 559 561 527 q 485 613 521 591 q 378 635 450 635 q 235 567 286 635 q 184 356 184 498 q 209 191 184 241 q 258 120 233 140 q 333 238 277 182 q 476 294 388 294 q 595 260 546 294 q 644 158 644 225 q 578 42 644 95 q 378 -12 513 -12 q 313 -7 347 -12 q 274 -153 284 -97 q 241 -174 269 -181 l 190 -161 q 176 -124 170 -157 q 218 23 190 -46 q 112 127 165 43 q 58 356 58 210 m 342 79 q 378 77 359 77 q 503 107 465 77 q 540 160 540 137 q 522 196 540 186 q 475 206 505 206 q 401 174 438 206 q 342 79 363 141 z "},"ɖ":{"ha":764,"x_min":58,"x_max":835,"o":"m 58 356 q 128 613 58 502 q 334 724 199 724 q 459 698 412 724 q 543 627 506 672 l 545 627 q 543 669 543 648 l 543 970 q 574 1001 543 1001 l 632 1001 q 663 970 663 1001 l 663 4 q 681 -155 663 -116 q 739 -195 699 -195 q 804 -182 777 -195 q 821 -193 817 -176 l 832 -248 q 820 -269 835 -262 q 717 -283 789 -283 q 593 -239 643 -283 q 543 -63 543 -195 l 543 43 q 545 85 543 64 l 543 85 q 459 14 506 40 q 334 -12 412 -12 q 128 99 199 -12 q 58 356 58 210 m 184 356 q 227 154 184 231 q 373 77 270 77 q 495 126 446 77 q 543 278 543 176 l 543 434 q 495 586 543 536 q 373 635 446 635 q 227 558 270 635 q 184 356 184 481 z "},"ɗ":{"ha":835,"x_min":58,"x_max":886,"o":"m 58 356 q 128 613 58 502 q 334 724 199 724 q 459 698 412 724 q 543 627 506 672 l 545 627 q 543 669 543 649 l 543 813 q 607 969 543 926 q 750 1013 670 1013 q 813 1007 787 1013 q 871 985 838 1001 q 880 963 886 977 l 856 913 q 832 903 846 893 q 803 918 820 912 q 762 924 785 924 q 693 897 723 924 q 663 793 663 870 l 663 31 q 632 0 663 0 l 575 0 q 549 31 551 0 l 545 85 l 543 85 q 459 14 506 40 q 334 -12 412 -12 q 128 99 199 -12 q 58 356 58 210 m 184 356 q 227 154 184 231 q 373 77 270 77 q 495 126 446 77 q 543 278 543 176 l 543 434 q 495 586 543 536 q 373 635 446 635 q 227 558 270 635 q 184 356 184 481 z "},"ɘ":{"ha":745,"x_min":60,"x_max":687,"o":"m 60 341 q 146 632 60 541 q 362 724 232 724 q 603 624 519 724 q 687 356 687 524 q 607 88 687 188 q 357 -12 526 -12 q 166 32 227 -12 q 92 95 105 75 q 92 132 77 119 l 132 167 q 174 156 153 184 q 236 104 194 130 q 357 77 278 77 q 490 129 431 77 q 561 311 549 180 l 88 311 q 60 341 60 311 m 180 399 l 564 399 q 498 584 553 532 q 365 637 444 637 q 229 565 275 637 q 180 399 183 494 z "},"ə":{"ha":745,"x_min":60,"x_max":687,"o":"m 60 371 q 88 401 60 401 l 561 401 q 490 584 549 532 q 357 635 431 635 q 236 608 278 635 q 174 556 194 582 q 132 545 153 528 l 92 580 q 92 617 77 593 q 166 680 105 637 q 357 724 227 724 q 607 624 526 724 q 687 356 687 524 q 603 88 687 188 q 362 -12 519 -12 q 146 80 232 -12 q 60 371 60 171 m 180 313 q 229 147 183 218 q 365 75 275 75 q 498 128 444 75 q 564 313 553 180 l 180 313 z "},"ɚ":{"ha":1048,"x_min":69,"x_max":1068,"o":"m 192 233 q 261 108 217 141 q 365 75 305 75 q 504 133 444 75 q 564 376 564 190 l 192 233 m 69 268 q 97 298 69 288 l 551 473 q 471 599 518 564 q 351 635 423 635 q 236 608 278 635 q 174 556 194 582 q 132 545 153 528 l 92 580 q 92 617 77 593 q 166 680 105 637 q 357 724 227 724 q 585 651 526 724 q 663 518 644 578 l 892 622 q 920 617 912 631 l 933 596 q 932 563 945 576 q 893 505 906 536 q 880 453 880 474 q 895 396 880 415 q 945 378 910 378 q 1023 395 983 378 q 1047 387 1040 403 l 1061 355 q 1058 332 1068 340 q 1002 303 1034 314 q 929 293 970 293 q 828 331 865 293 q 791 420 791 368 q 797 456 791 438 q 814 492 803 475 l 814 494 l 682 431 q 687 356 687 395 q 603 88 687 188 q 362 -12 519 -12 q 148 76 227 -12 q 69 268 69 163 z "},"ɛ":{"ha":623,"x_min":68,"x_max":587,"o":"m 68 209 q 104 312 68 263 q 193 377 140 361 l 193 379 q 126 431 153 397 q 100 537 100 465 q 165 665 100 606 q 340 724 230 724 q 463 708 416 724 q 549 658 509 692 q 558 614 578 634 l 522 578 q 476 591 509 565 q 419 621 458 606 q 345 635 380 635 q 255 612 290 635 q 219 528 219 589 q 251 442 219 468 q 345 416 283 416 l 395 416 q 422 392 422 416 l 422 351 q 395 328 422 328 l 339 328 q 233 295 273 328 q 194 203 194 263 q 227 114 194 152 q 343 77 259 77 q 439 102 399 77 q 488 136 480 127 q 532 146 514 163 l 569 109 q 567 72 587 92 q 487 17 541 46 q 336 -12 433 -12 q 144 40 220 -12 q 68 209 68 91 z "},"ɜ":{"ha":623,"x_min":36,"x_max":555,"o":"m 54 109 l 91 146 q 134 136 109 163 q 183 102 142 127 q 279 77 224 77 q 396 114 363 77 q 429 203 429 152 q 389 295 429 263 q 283 328 350 328 l 228 328 q 201 351 201 328 l 201 392 q 228 416 201 416 l 277 416 q 371 442 339 416 q 404 528 404 468 q 368 612 404 589 q 278 635 332 635 q 203 621 243 635 q 146 591 164 606 q 100 578 114 565 l 64 614 q 73 658 44 634 q 160 708 114 692 q 282 724 206 724 q 458 665 393 724 q 523 537 523 606 q 496 431 523 465 q 429 379 469 397 l 429 377 q 519 312 483 361 q 555 209 555 263 q 479 40 555 91 q 287 -12 403 -12 q 136 17 190 -12 q 56 72 81 46 q 54 109 36 92 z "},"ɝ":{"ha":623,"x_min":36,"x_max":876,"o":"m 54 109 l 91 146 q 134 136 109 163 q 183 102 142 127 q 279 77 224 77 q 396 114 363 77 q 429 203 429 152 q 389 295 429 263 q 283 328 350 328 l 228 328 q 201 351 201 328 l 201 392 q 228 416 201 416 l 277 416 q 371 442 339 416 q 404 528 404 468 q 368 612 404 589 q 278 635 332 635 q 203 621 243 635 q 146 591 164 606 q 100 578 114 565 l 64 614 q 73 658 44 634 q 160 708 114 692 q 282 724 206 724 q 451 671 393 724 q 520 566 509 618 l 701 622 q 728 617 722 629 l 741 596 q 740 563 753 576 q 701 505 714 536 q 688 453 688 474 q 703 396 688 415 q 753 378 718 378 q 831 395 791 378 q 855 387 848 403 l 869 355 q 866 332 876 340 q 810 303 842 314 q 737 293 779 293 q 636 331 673 293 q 600 420 600 368 q 605 459 600 438 q 622 498 611 481 l 622 500 l 513 465 q 488 421 507 445 q 429 379 469 397 l 429 377 q 519 312 483 361 q 555 209 555 263 q 479 40 555 91 q 287 -12 403 -12 q 136 17 190 -12 q 56 72 81 46 q 54 109 36 92 z "},"ɞ":{"ha":753,"x_min":58,"x_max":686,"o":"m 58 356 q 143 620 58 515 q 390 724 227 724 q 588 665 521 724 q 654 537 654 606 q 628 431 654 465 q 561 379 601 397 l 561 377 q 650 312 614 361 q 686 209 686 263 q 608 40 686 91 q 390 -12 530 -12 q 143 93 227 -12 q 58 356 58 197 m 184 356 q 241 145 184 214 q 390 77 297 77 q 526 114 492 77 q 560 203 560 152 q 521 295 560 263 q 415 328 481 328 l 359 328 q 332 351 332 328 l 332 392 q 359 416 332 416 l 409 416 q 503 442 471 416 q 535 528 535 468 q 497 612 535 589 q 390 635 460 635 q 241 567 297 635 q 184 356 184 498 z "},"ɟ":{"ha":434,"x_min":-16,"x_max":400,"o":"m 0 -269 q -12 -248 -16 -262 l -1 -193 q 16 -182 3 -176 q 81 -195 43 -195 q 139 -155 121 -195 q 157 4 157 -116 l 157 327 l 64 327 q 34 351 34 327 l 34 393 q 64 416 34 416 l 157 416 l 157 682 q 188 712 157 712 l 246 712 q 277 682 277 712 l 277 416 l 370 416 q 400 393 400 416 l 400 351 q 370 327 400 327 l 277 327 l 277 -63 q 227 -239 277 -195 q 103 -283 177 -283 q 0 -269 31 -283 z "},"ɠ":{"ha":835,"x_min":58,"x_max":886,"o":"m 58 356 q 128 613 58 502 q 334 724 199 724 q 459 698 412 724 q 543 627 506 672 l 545 627 q 543 669 543 649 l 543 813 q 607 969 543 926 q 750 1013 670 1013 q 813 1007 787 1013 q 871 985 838 1001 q 880 963 886 977 l 856 913 q 832 903 846 893 q 803 918 820 912 q 762 924 785 924 q 693 897 723 924 q 663 793 663 870 l 663 -5 q 603 -209 663 -136 q 366 -283 543 -283 q 188 -256 247 -283 q 104 -199 129 -229 q 102 -161 85 -177 l 139 -125 q 182 -134 155 -110 q 252 -181 218 -167 q 366 -195 285 -195 q 501 -155 458 -195 q 543 7 543 -116 l 543 48 q 545 90 543 69 l 543 90 q 460 16 508 43 q 334 -12 412 -12 q 128 99 199 -12 q 58 356 58 210 m 184 356 q 227 154 184 231 q 373 77 270 77 q 495 126 446 77 q 543 278 543 176 l 543 434 q 495 586 543 536 q 373 635 446 635 q 227 558 270 635 q 184 356 184 481 z "},"ɡ":{"ha":759,"x_min":58,"x_max":663,"o":"m 58 356 q 128 613 58 502 q 334 724 199 724 q 459 698 412 724 q 543 627 506 672 l 545 627 l 549 682 q 575 712 551 712 l 632 712 q 663 682 663 712 l 663 -5 q 603 -209 663 -136 q 366 -283 543 -283 q 188 -256 247 -283 q 104 -199 129 -229 q 102 -161 85 -177 l 139 -125 q 182 -134 155 -110 q 252 -181 218 -167 q 366 -195 285 -195 q 501 -155 458 -195 q 543 7 543 -116 l 543 48 q 545 90 543 69 l 543 90 q 460 16 508 43 q 334 -12 412 -12 q 128 99 199 -12 q 58 356 58 210 m 184 356 q 227 154 184 231 q 373 77 270 77 q 495 126 446 77 q 543 278 543 176 l 543 434 q 495 586 543 536 q 373 635 446 635 q 227 558 270 635 q 184 356 184 481 z "},"ɢ":{"ha":753,"x_min":58,"x_max":679,"o":"m 58 356 q 137 620 58 515 q 385 724 216 724 q 553 689 495 724 q 641 616 612 654 q 637 579 657 594 l 597 548 q 555 562 578 532 q 495 614 533 592 q 385 635 456 635 q 234 567 283 635 q 184 356 184 498 q 234 145 184 214 q 385 77 283 77 q 493 93 454 77 q 559 136 532 109 l 559 252 l 416 252 q 385 276 385 252 l 385 318 q 416 342 385 342 l 648 342 q 679 318 679 342 l 679 98 q 553 15 610 42 q 385 -12 495 -12 q 137 93 216 -12 q 58 356 58 197 z "},"ɣ":{"ha":685,"x_min":16,"x_max":669,"o":"m 31 679 q 49 712 16 712 l 123 712 q 153 686 142 712 l 318 283 q 332 245 327 262 q 341 211 338 229 l 344 211 q 353 245 347 229 q 367 283 358 262 l 532 686 q 562 712 543 712 l 636 712 q 654 679 669 712 l 414 138 q 506 -20 482 29 q 530 -117 530 -70 q 491 -239 530 -195 q 342 -282 451 -282 q 194 -239 234 -282 q 155 -117 155 -195 q 179 -20 155 -70 q 271 138 203 29 l 31 679 m 274 -115 q 288 -173 274 -153 q 342 -194 302 -194 q 397 -173 383 -194 q 411 -115 411 -153 q 394 -51 411 -92 q 343 54 377 -10 l 342 54 q 291 -51 308 -10 q 274 -115 274 -92 z "},"ɤ":{"ha":685,"x_min":6,"x_max":679,"o":"m 31 679 q 49 712 6 712 l 134 712 q 164 686 145 712 l 315 479 q 332 450 327 461 q 341 420 338 439 l 344 420 q 353 450 347 439 q 370 479 358 461 l 521 686 q 551 712 540 712 l 636 712 q 654 679 679 712 l 420 363 q 507 234 488 283 q 526 151 526 185 q 475 33 526 77 q 342 -12 425 -12 q 210 33 260 -12 q 159 151 159 77 q 178 234 159 185 q 265 363 197 283 l 31 679 m 278 151 q 292 95 278 114 q 342 77 307 77 q 393 95 378 77 q 407 151 407 114 q 399 204 407 174 q 343 302 392 235 l 342 302 q 286 204 293 235 q 278 151 278 174 z "},"ɥ":{"ha":760,"x_min":95,"x_max":663,"o":"m 95 248 l 95 682 q 125 712 95 712 l 184 712 q 214 682 214 712 l 214 281 q 258 112 214 148 q 368 77 302 77 q 498 129 453 77 q 544 309 544 182 l 544 682 q 574 712 544 712 l 633 712 q 663 682 663 712 l 663 -241 q 633 -271 663 -271 l 574 -271 q 544 -241 544 -271 l 544 44 q 545 85 544 64 l 543 85 q 448 12 498 36 q 323 -12 397 -12 q 150 58 205 -12 q 95 248 95 127 z "},"ɦ":{"ha":765,"x_min":96,"x_max":670,"o":"m 127 0 q 96 31 96 0 l 96 713 q 165 933 96 854 q 380 1013 234 1013 q 544 986 484 1013 q 628 929 603 959 q 630 891 646 907 l 593 854 q 559 857 578 840 q 482 908 519 891 q 379 924 445 924 q 257 878 299 924 q 216 695 216 832 l 216 656 q 214 616 216 636 l 217 616 q 312 688 261 665 q 439 712 363 712 q 616 643 562 712 q 670 452 670 573 l 670 31 q 640 0 670 0 l 581 0 q 551 31 551 0 l 551 420 q 507 588 551 553 q 395 624 463 624 q 261 571 307 624 q 216 391 216 519 l 216 31 q 185 0 216 0 l 127 0 z "},"ɧ":{"ha":765,"x_min":96,"x_max":670,"o":"m 127 0 q 96 31 96 0 l 96 713 q 165 933 96 854 q 380 1013 234 1013 q 544 986 484 1013 q 628 929 603 959 q 630 891 646 907 l 593 854 q 559 857 578 840 q 482 908 519 891 q 379 924 445 924 q 257 878 299 924 q 216 695 216 832 l 216 656 q 214 616 216 636 l 217 616 q 312 688 261 665 q 439 712 363 712 q 616 643 562 712 q 670 452 670 573 l 670 -63 q 620 -239 670 -195 q 496 -283 570 -283 q 393 -269 425 -283 q 381 -248 378 -262 l 393 -193 q 410 -182 396 -176 q 475 -195 436 -195 q 533 -155 515 -195 q 551 4 551 -116 l 551 420 q 507 588 551 553 q 395 624 463 624 q 261 571 307 624 q 216 391 216 519 l 216 31 q 185 0 216 0 l 127 0 z "},"ɨ":{"ha":434,"x_min":34,"x_max":400,"o":"m 64 327 q 34 351 34 327 l 34 393 q 64 416 34 416 l 157 416 l 157 682 q 188 712 157 712 l 246 712 q 277 682 277 712 l 277 416 l 370 416 q 400 393 400 416 l 400 351 q 370 327 400 327 l 277 327 l 277 31 q 246 0 277 0 l 188 0 q 157 31 157 0 l 157 327 l 64 327 m 188 841 q 157 871 157 841 l 157 930 q 188 960 157 960 l 246 960 q 277 930 277 960 l 277 871 q 246 841 277 841 l 188 841 z "},"ɩ":{"ha":448,"x_min":96,"x_max":418,"o":"m 96 183 l 96 682 q 127 712 96 712 l 185 712 q 216 682 216 712 l 216 191 q 233 98 216 119 q 282 77 250 77 q 330 90 301 77 q 371 113 359 104 q 390 107 383 123 l 412 55 q 404 33 418 41 q 342 3 378 18 q 241 -12 307 -12 q 135 39 174 -12 q 96 183 96 90 z "},"ɪ":{"ha":396,"x_min":68,"x_max":328,"o":"m 98 0 q 68 24 68 0 l 68 64 q 98 88 68 88 l 138 88 l 138 624 l 98 624 q 68 648 68 624 l 68 688 q 98 712 68 712 l 298 712 q 328 688 328 712 l 328 648 q 298 624 328 624 l 258 624 l 258 88 l 298 88 q 328 64 328 88 l 328 24 q 298 0 328 0 l 98 0 z "},"ɫ":{"ha":507,"x_min":22,"x_max":485,"o":"m 37 451 q 29 481 22 458 q 78 559 43 529 q 166 590 112 590 q 194 588 185 590 l 194 877 q 201 903 194 890 l 248 989 q 269 1013 261 1013 l 293 1013 q 313 989 313 1013 l 313 525 q 350 515 331 515 q 393 530 379 515 q 418 571 408 545 q 444 585 427 591 l 470 573 q 478 543 485 566 q 430 465 464 495 q 341 434 395 434 q 313 436 322 434 l 313 31 q 283 0 313 0 l 224 0 q 194 31 194 0 l 194 499 q 157 509 176 509 q 114 494 128 509 q 89 453 100 479 q 64 439 80 433 l 37 451 z "},"ɬ":{"ha":566,"x_min":27,"x_max":554,"o":"m 27 513 q 85 644 27 600 q 216 689 144 689 l 216 877 q 222 903 216 890 l 270 989 q 291 1013 283 1013 l 315 1013 q 335 989 335 1013 l 335 420 q 420 437 384 423 q 484 471 456 450 q 518 463 503 486 l 541 429 q 528 393 554 409 q 446 354 490 369 q 335 332 401 339 l 335 31 q 304 0 335 0 l 246 0 q 216 31 216 0 l 216 332 q 79 385 132 339 q 27 513 27 431 m 131 513 q 157 444 131 461 q 216 420 183 426 l 216 601 q 152 576 172 601 q 131 513 131 551 z "},"ɭ":{"ha":319,"x_min":96,"x_max":388,"o":"m 96 -63 l 96 877 q 103 903 96 890 l 151 989 q 172 1013 163 1013 l 195 1013 q 216 989 216 1013 l 216 4 q 234 -155 216 -116 q 292 -195 252 -195 q 357 -182 330 -195 q 374 -193 370 -176 l 385 -248 q 373 -269 388 -262 q 270 -283 342 -283 q 146 -239 196 -283 q 96 -63 96 -195 z "},"ɮ":{"ha":804,"x_min":96,"x_max":736,"o":"m 127 0 q 96 31 96 0 l 96 877 q 103 903 96 890 l 151 989 q 172 1013 163 1013 l 195 1013 q 216 989 216 1013 l 216 712 l 699 712 q 729 688 729 712 l 729 656 q 704 604 729 635 l 458 297 l 458 294 q 660 221 584 294 q 736 15 736 149 q 664 -211 736 -138 q 444 -283 592 -283 q 261 -238 326 -283 q 191 -184 196 -193 q 192 -146 176 -159 l 233 -113 q 275 -126 253 -96 q 319 -163 279 -132 q 437 -195 360 -195 q 574 -144 537 -195 q 610 9 610 -94 q 568 157 610 106 q 406 208 525 208 l 355 208 q 325 231 325 208 l 325 266 q 349 320 325 290 l 591 623 l 591 624 q 551 623 571 623 l 216 623 l 216 31 q 185 0 216 0 l 127 0 z "},"ɯ":{"ha":1138,"x_min":95,"x_max":1042,"o":"m 95 248 l 95 682 q 125 712 95 712 l 184 712 q 214 682 214 712 l 214 288 q 248 116 214 155 q 350 77 281 77 q 463 135 418 77 q 509 309 509 193 l 509 682 q 539 712 509 712 l 597 712 q 628 682 628 712 l 628 288 q 661 116 628 155 q 764 77 694 77 q 877 129 831 77 q 922 309 922 182 l 922 682 q 953 712 922 712 l 1011 712 q 1042 682 1042 712 l 1042 31 q 1011 0 1042 0 l 954 0 q 924 31 924 0 l 924 85 l 921 85 q 825 12 877 36 q 726 -12 774 -12 q 592 32 639 -12 q 531 120 545 76 l 528 120 q 434 26 491 64 q 313 -12 377 -12 q 150 58 205 -12 q 95 248 95 127 z "},"ɰ":{"ha":1138,"x_min":95,"x_max":1042,"o":"m 95 248 l 95 682 q 125 712 95 712 l 184 712 q 214 682 214 712 l 214 288 q 248 116 214 155 q 350 77 281 77 q 463 135 418 77 q 509 309 509 193 l 509 682 q 539 712 509 712 l 597 712 q 628 682 628 712 l 628 288 q 661 116 628 155 q 764 77 694 77 q 877 129 831 77 q 922 309 922 182 l 922 682 q 953 712 922 712 l 1011 712 q 1042 682 1042 712 l 1042 -241 q 1011 -271 1042 -271 l 953 -271 q 922 -241 922 -271 l 922 43 q 924 85 922 64 l 921 85 q 825 12 877 36 q 726 -12 774 -12 q 592 32 639 -12 q 531 120 545 76 l 528 120 q 434 26 491 64 q 313 -12 377 -12 q 150 58 205 -12 q 95 248 95 127 z "},"ɱ":{"ha":1138,"x_min":96,"x_max":1043,"o":"m 127 0 q 96 31 96 0 l 96 682 q 127 712 96 712 l 184 712 q 214 682 214 712 l 214 627 l 217 627 q 313 700 261 676 q 412 724 364 724 q 546 680 499 724 q 607 592 593 636 l 610 592 q 704 686 647 648 q 825 724 761 724 q 988 654 933 724 q 1043 464 1043 585 l 1043 -63 q 993 -239 1043 -195 q 869 -283 943 -283 q 766 -269 798 -283 q 754 -248 751 -262 l 766 -193 q 783 -182 769 -176 q 848 -195 809 -195 q 906 -155 888 -195 q 924 4 924 -116 l 924 425 q 890 596 924 557 q 788 635 857 635 q 675 577 720 635 q 629 403 629 519 l 629 31 q 599 0 629 0 l 541 0 q 510 31 510 0 l 510 425 q 477 596 510 557 q 374 635 444 635 q 261 583 307 635 q 216 403 216 530 l 216 31 q 185 0 216 0 l 127 0 z "},"ɲ":{"ha":769,"x_min":-72,"x_max":674,"o":"m -57 -269 q -69 -248 -72 -262 l -58 -193 q -41 -182 -54 -176 q 24 -195 -14 -195 q 82 -155 64 -195 q 100 4 100 -116 l 100 682 q 131 712 100 712 l 188 712 q 218 682 218 712 l 218 627 l 221 627 q 316 700 265 676 q 443 724 367 724 q 620 654 566 724 q 674 464 674 585 l 674 31 q 644 0 674 0 l 585 0 q 555 31 555 0 l 555 431 q 511 600 555 564 q 399 635 467 635 q 265 583 311 635 q 220 403 220 530 l 220 -63 q 170 -239 220 -195 q 46 -283 120 -283 q -57 -269 -26 -283 z "},"ɳ":{"ha":772,"x_min":96,"x_max":842,"o":"m 127 0 q 96 31 96 0 l 96 682 q 127 712 96 712 l 184 712 q 214 682 214 712 l 214 627 l 217 627 q 312 700 261 676 q 439 724 363 724 q 616 654 562 724 q 670 464 670 585 l 670 4 q 688 -155 670 -116 q 746 -195 706 -195 q 811 -182 785 -195 q 828 -193 825 -176 l 840 -248 q 827 -269 842 -262 q 724 -283 796 -283 q 601 -239 650 -283 q 551 -63 551 -195 l 551 431 q 507 600 551 564 q 395 635 463 635 q 261 583 307 635 q 216 403 216 530 l 216 31 q 185 0 216 0 l 127 0 z "},"ɴ":{"ha":807,"x_min":96,"x_max":711,"o":"m 127 0 q 96 31 96 0 l 96 682 q 127 712 96 712 l 212 712 q 270 679 248 712 l 591 194 l 593 194 q 591 235 591 214 l 591 682 q 622 712 591 712 l 680 712 q 711 682 711 712 l 711 31 q 680 0 711 0 l 618 0 q 560 33 583 0 l 216 551 l 214 551 q 216 510 216 530 l 216 31 q 185 0 216 0 l 127 0 z "},"ɵ":{"ha":779,"x_min":58,"x_max":721,"o":"z "},"ɶ":{"ha":1091,"x_min":58,"x_max":1017,"o":"m 58 356 q 144 625 58 526 q 399 724 230 724 q 493 718 446 724 q 586 712 540 712 l 971 712 q 1002 688 1002 712 l 1002 646 q 971 623 1002 623 l 630 623 l 630 412 l 941 412 q 972 389 972 412 l 972 346 q 941 322 972 322 l 630 322 l 630 90 l 986 90 q 1017 66 1017 90 l 1017 24 q 986 0 1017 0 l 586 0 q 493 -6 540 0 q 399 -12 446 -12 q 144 87 230 -12 q 58 356 58 186 m 185 356 q 238 150 185 224 q 395 77 290 77 q 511 90 470 77 l 511 623 q 395 635 470 635 q 238 562 290 635 q 185 356 185 488 z "},"ɷ":{"ha":975,"x_min":58,"x_max":918,"o":"m 58 318 q 174 607 58 491 q 488 724 291 724 q 801 607 684 724 q 918 318 918 491 q 858 84 918 179 q 690 -12 798 -12 q 556 26 602 -12 q 488 125 509 63 l 487 125 q 419 26 466 63 q 286 -12 373 -12 q 118 84 178 -12 q 58 318 58 179 m 184 325 q 205 157 184 237 q 300 77 226 77 q 393 130 358 77 q 428 266 428 183 l 428 365 q 452 392 428 392 l 524 392 q 547 365 547 392 l 547 266 q 582 130 547 183 q 675 77 617 77 q 770 157 749 77 q 791 325 791 237 q 719 538 791 440 q 488 635 646 635 q 257 538 330 635 q 184 325 184 440 z "},"ɸ":{"ha":872,"x_min":58,"x_max":814,"o":"m 58 356 q 136 615 58 509 q 376 721 214 721 l 376 946 q 407 977 376 977 l 465 977 q 496 946 496 977 l 496 721 q 736 615 659 721 q 814 356 814 509 q 736 97 814 203 q 496 -9 659 -9 l 496 -241 q 465 -271 496 -271 l 407 -271 q 376 -241 376 -271 l 376 -9 q 136 97 214 -9 q 58 356 58 203 m 184 356 q 231 145 184 210 q 376 79 278 79 l 376 633 q 231 567 278 633 q 184 356 184 502 m 496 79 q 641 145 594 79 q 688 356 688 210 q 641 567 688 502 q 496 633 594 633 l 496 79 z "},"ɹ":{"ha":490,"x_min":9,"x_max":393,"o":"m 14 16 l 29 72 q 47 81 33 84 q 92 77 71 77 q 222 148 171 77 q 274 343 274 220 l 274 682 q 304 712 274 712 l 363 712 q 393 682 393 712 l 393 31 q 363 0 393 0 l 306 0 q 275 31 275 0 l 275 112 l 273 112 q 196 20 240 51 q 86 -12 152 -12 q 25 -4 43 -12 q 14 16 9 2 z "},"ɺ":{"ha":490,"x_min":9,"x_max":393,"o":"m 25 -4 q 14 16 9 2 l 29 72 q 47 81 33 84 q 92 77 71 77 q 222 148 171 77 q 274 343 274 220 l 274 970 q 304 1001 274 1001 l 363 1001 q 393 970 393 1001 l 393 31 q 363 0 393 0 l 306 0 q 275 31 275 0 l 275 112 l 273 112 q 196 20 240 51 q 86 -12 152 -12 q 25 -4 43 -12 z "},"ɻ":{"ha":496,"x_min":9,"x_max":566,"o":"m 25 -4 q 14 16 9 2 l 29 72 q 47 81 33 84 q 92 77 71 77 q 222 148 171 77 q 274 343 274 220 l 274 682 q 304 712 274 712 l 363 712 q 393 682 393 712 l 393 4 q 411 -155 393 -116 q 469 -195 429 -195 q 534 -182 508 -195 q 551 -193 548 -176 l 563 -248 q 551 -269 566 -262 q 448 -283 519 -283 q 324 -238 374 -283 q 274 -63 274 -194 l 274 71 q 275 112 274 92 l 273 112 q 196 20 240 51 q 86 -12 151 -12 q 25 -4 44 -12 z "},"ɼ":{"ha":490,"x_min":96,"x_max":480,"o":"m 127 -271 q 96 -241 96 -271 l 96 682 q 127 712 96 712 l 184 712 q 214 682 214 712 l 214 600 l 217 600 q 294 692 250 661 q 404 724 338 724 q 465 716 447 724 q 476 696 480 710 l 460 640 q 443 631 457 628 q 398 635 419 635 q 267 564 319 635 q 216 369 216 492 l 216 -241 q 185 -271 216 -271 l 127 -271 z "},"ɽ":{"ha":490,"x_min":96,"x_max":480,"o":"m 96 -63 l 96 682 q 127 712 96 712 l 184 712 q 214 682 214 712 l 214 600 l 217 600 q 294 692 250 661 q 404 724 338 724 q 465 716 447 724 q 476 696 480 710 l 460 640 q 443 631 457 628 q 398 635 419 635 q 267 564 319 635 q 216 369 216 492 l 216 4 q 234 -155 216 -116 q 292 -195 252 -195 q 357 -182 330 -195 q 374 -193 370 -176 l 385 -248 q 373 -269 388 -262 q 270 -283 342 -283 q 146 -239 196 -283 q 96 -63 96 -195 z "},"ɾ":{"ha":490,"x_min":96,"x_max":480,"o":"m 127 0 q 96 31 96 0 l 96 370 q 172 621 96 519 q 404 724 248 724 q 465 716 447 724 q 476 696 480 710 l 460 640 q 443 631 457 628 q 398 635 419 635 q 267 563 319 635 q 216 352 216 490 l 216 31 q 185 0 216 0 l 127 0 z "},"ɿ":{"ha":490,"x_min":9,"x_max":393,"o":"m 14 696 q 25 716 9 710 q 86 724 43 724 q 317 621 241 724 q 393 370 393 519 l 393 -241 q 363 -271 393 -271 l 304 -271 q 274 -241 274 -271 l 274 352 q 222 563 274 490 q 92 635 171 635 q 47 631 71 635 q 29 640 33 628 l 14 696 z "},"ʀ":{"ha":755,"x_min":96,"x_max":721,"o":"m 127 0 q 96 31 96 0 l 96 682 q 127 712 96 712 l 382 712 q 603 665 538 712 q 669 516 669 617 q 618 378 669 430 q 450 313 568 327 l 450 312 q 522 261 498 285 q 563 213 545 237 l 691 40 q 673 0 721 0 l 599 0 q 560 25 578 0 l 441 195 q 375 270 404 248 q 300 293 346 293 l 216 293 l 216 31 q 185 0 216 0 l 127 0 m 216 381 l 366 381 q 490 408 437 381 q 543 516 543 434 q 500 601 543 578 q 365 623 458 623 l 216 623 l 216 381 z "}}}
